<svg xmlns="http://www.w3.org/2000/svg" width="2048" height="2048" viewBox="0 0 2048 2048"><path fill="#1a382e" d="M999.693 610.465c7.077-.795 15.367.244 22.187-.268 59.26-4.444 109.37 17.183 130.36 75.682 5.55 15.48 8.68 35.44 16.76 50.381 6.91-.442 11.86.073 18.93.887 33.96 3.91 83.33 14.5 110.27 36.618 7.94 6.521 22.82 31.125 25.72 40.191 8.64 27.017 3.05 26.926 22.01 50.839 12.66 5.97 22.31 4.508 36.07 4.624 22.36.188 41.88 6.806 59.9 19.864 19.25 13.943 16.14 30.627 31.87 44.791 8.62 7.764 32.99 7.605 41.67 16.936 13.2 14.173 27.66 42.932 28.47 62.18.94 22.28-12.83 61.99-27.67 77.57-25.25 26.51-88.86 36.29-123.67 37.44-6.33 26.46-1.39 53.6-10.26 79.26-6.41 18.52-23.88 36.75-35.26 52.52-9.69 13.44-40.84 30.7-57.13 32.78-25.92 3.32-66.5 1.8-91.32-7.13-.44 5.81-.37 12.47-.39 18.41-.08 29.03-10.71 62.23-29.9 84.34-18.75 21.6-57.65 39.54-86.39 40.56-34.4.47-64.47 1.01-94.169-19.29-41.892-28.63-44.342-65.71-51.947-111.63-66.562-.15-144.912.79-190.224-57.42-8.587-11.03-17.783-44.36-20.105-58.63-26.506-14.42-41.778-10.02-72.67-9.96-7.378-5.46-19.021-7.58-25.798-16-2.908-3.62-13.708-14.4-15.002-18-13.261-36.85-65.959-24.53-75.351-64.75-3.114-12.25-1.389-25.01-1.837-37.5-.965-26.9.929-53.02 2.085-79.79 2.743-2.647 4.888-5.428 7.29-8.368 9.134-3.406 14.064-6.25 24.243-8.793 33.942-8.479 70.296-2.461 104.649-4.85 2.197-1.994 5.207-5.291 7.364-7.503 6.236-28.259 5.185-66.378 14.141-93.896 1.456-4.476 18.213-28.04 21.525-32.533 23.896-32.41 55.814-42.143 94.858-43.594 10.051-.373 21.573-1.123 31.641.584 20.011 3.391 23.944 9.344 44.636 6.751 1.715-9.285.723-50.85.66-62.005 28.214-31.201 37.057-82.172 87.615-88.132 6.185-.729 18.782-1.525 24.169-3.166"/><path fill="#13f17d" d="M978.222 710.926c-4.439-6.256.803-5.604 2.669-11.726 3.711-1.88 6.113-4.531 9.11-7.362l-.004-.817-3.028-.243c1.115-1.719 7.77-2.654 10.502-3.299l-3.351-1.109-.325-1.014 2.174-1.198c2.785.885 2.709 1.008 5.081 2.798 2.53-.476 3.74-2.248 5.61-4.159 5.09.893 9 3.676 11.93 2.952l-1.26-1.461 1.24-1.218c10.73.2 28.11-1.428 35.36 5.797 1.24 4.99.37 5.475 3.32 8.421l1.96-.187c-.27-1.105-.33-2.269-.47-3.396l1.63.251c2.28 5.129 4.02 11.803 3.73 17.437l4.06 5.697c7.79.607 7.96 2.982 11.07 9.548 2.11 1.542 1.28 1.155 3.78 1.959 2.17 7.036 2.17 109.325.75 118.749 3.95 6.013 3.3 2.821 1.48 8.637-3.28 10.505-1.43 31.414-1.74 42.471 1.71 2.779 2.04 2.823 2.93 5.955-2.11 3.78-2.38 2.852-1.88 6.267l1.53 1.424 1.93-1.016.38 1.944-2.87 3.65.55 1.655 4.05 1.946.34 1.742c-3.91 3.478-5.33.336-6.22 3.079l2.05 2.498c-1.42.754-.58.567-2.58.079-.08 7.443-1.62 18.783 3.48 22.765 10.75 8.388 5.74 10.802 8.37 20.591 1.35-1.364.71-.584 1.86-2.385l.92 2.768-1.26 1.579-.28 2.752-1.48-.593.73.623-.12-.423c-1.79 13.165-15.32 31.296-31.32 24.646l1.86.09c-3.77-2.243-4.47-1.998-9.04-2.178-6.64.345-8.29 1.052-14.36 3.138-.04-2.576.19-2.23 1.13-4.853-1.16-2.828-2.62-4.101-4.55-6.397-9.37-11.146-8.94-12.22-9.71-25.771l1.06-1.775c1.44.888.92.366 1.69 1.396-1.02-7.051-8.51-4.272-4.85-11.205-6.38.785-2.36 4.449-7.03 2.53l-.54-1.101c-2.87-5.679-4.16-7.255-10.84-7.243l-1.96 2.931c-4.93-1.091 1.55-2.186-5.12-1.898-6.981 6.646-.75 20.689-5.994 30.145l.254 3.658 1.045.195.476-4.501 1.069.801c.089 2.769.685 4.613-2.002 6.783-9.857 7.964-4.281 13.352-7.984 21.485l-.699-.02-.777-2.46c-3.916 7.5-13.935 26.79-21.467 30.88-4.43 2.4-7.281 2.81-11.129 6.72l2.08.94c-5.166 5.66-4.076 6.8-12.041 6.3-6.27 5.91 1.585 11.94-5.238 18.04-3.682 3.29-6.144 4.99-5.387 10.34l1.965.86c-2.086 2.04-4.205 2.28-7.066 3.07-1.795 2.58-5.107 36.32-5.322 42.07l-2.96.62c-1.168 1.94-4.564 7.57-5.588 9.3-.762 1.29 1.567 5.39-.892 8.05l-3.285-2.85-1.844.99-.6 2.82c-2.903.9-3.916 1.07-6.831 1.56l-1.545 1.91 1.008 1.43c-3.649 1.87-30.352 3.44-35.348 3-2.751-2.74-2.834-2.77-4.804-6.08-.944-.55-9.826-3.04-10.851-3.1l-.454-2.25 2.378-.5c-.919-2.98-1.904-5.95-2.953-8.9l-1.495-.33.979 2.78-1.387 1.33c-3.904-.37-1.978.18-5.633-2.77l-.644-1.7.905-.52c1.078-.63 3.377-1.68 3.267-2.93-.719-8.22-2.109-14.1-9.09-18.49l-.718-1.93c2.587.4 1.577.09 3.842 1.86l1.366-.77c.288-2.47.571-3.65.257-6.12-4.788-5.23-10.661-12.02-15.848-16.59-6.781 3.59-6.387 15.25-5.342 21.94l1.725-.16 1.416.9-.963 1.95-3.177.47c.292 7.35 5.032 18.39 3.335 22.3l-3.729 1.66c-2.202 38.53-1.633 84.85 51.259 79.98 11.059-1.02 25.946-1.78 31.504-12.99.253-5.88-3.151-26.19-3.885-33.91 4.244-2.69 5.59.57 8.164-2.39-1.282-2.14-1.445-1.84-1.622-4.3 35.771-16.96 60.489 24.01 29.042 44.19-2.19 1.4-14.328-.66-17.401 5.52-1.011 1.07-2.049 1.5-3.439 1.98-1.039.57-5.637 4.75-6.933 5.79-10.799 8.69-20.867 12.35-34.816 13.25a63.34 63.34 0 0 1-46.723-16.3c-11.84-10.59-18.921-24.24-19.909-40.14l-.276-.88c-1.262-6.38-.613-37.24-.57-46.12.219-26.64.074-53.28-.436-79.91-2.851 3.7-5.862 7.27-9.023 10.7-23.312 25.31-48.836 31.31-81.596 32.6-10.541 20.98-30.085 18.78-41.686-.11-.52-.78-5.787-16.37-5.665-18.16l2.844-.05c.286-2.63.579-1.42-.878-3.63-2.281.88-2.133.95-4.541.75.317-2.13-.072-5.54.448-6.7l1.695.26c1.528 2.41 1.832 3.33 4.144 4.98l2.202-.78c1.891-3.3 5.027-3.76 8.296-5.98-1.043-4.82-.303-2.98-5.219-6.73-.45-2.6-.774-4.79-.773-7.44l-2.381 1.55c-6.118-2.55-11.07-1.1-17.451-1.49-12.413-.74-23.079.64-35.186-.85-2.649 3.87-.777 3.96-2.204 9.03-5-8.51-7.471-5.5-12.059-16.61-5.942-5.18-7.653-8.05-7.391-15.9 1.911-6.9 3.503-7.83 9.628-11.67 3.022-1.41 10.674-1.78 14.595-2.73 28-6.835 47.829-7.015 76.009-5.41 2.56-1.588 3.167-2.188 6.099-2.961 1.171 1.695 1.708 2.401 3.077 3.931 6.711-.37 17.318.1 22.97-4.018 5.02-3.652 2.563-8.175 4.969-11.179l3.675 1.449c4.171-9.79 10.196-13.305 13.906-21.105-.581-2.023-1.314-3.125-2.472-4.877l1.363-.904c2.304 1.91 1.794 3.517 3.686 6.923 2.496-26.849-.172-60.045.903-87.938l-4.269-1.66c.625-4.621 9.431-4.062 10.126-5.181 3.156-5.08 4.389-7.616 9.296-11.941 20.63-30.852 50.295-37.885 82.105-18.062 3.544-2.802 1.978-2.002 6.826-2.487 3.999 1.582 3.88 3.449 5.838 6.301 1.998 2.91 8.63 8.472 11.544 10.913l-2.925 1.539c.419 3.198.024 1.562 2.027 4.102 4.196 5.323 5.324 22.199 6.222 29.665 1.631-2.297 1.677-2.819 2.772-5.39.937 3.009.421 3.747 1.316 6.887l-4.007 1.407a658 658 0 0 1-.805 22.594l.962-1.466 1.233.395c3.541 9.17-1.28 9.755-1.891 18.135-.24 3.3 2.734 12.791 2.247 17.018l-2.556.772q.007 5.755.193 11.506l1.855 1.262 1.022-3.151 1.749 2.255-.235.744.308-.353-2.355 1.725c1.467 5.767 4.672 5.911 3.572 8.709l-4.579-4.523-.943.113c-1.5 4.814-.465 8.288.287 13.342l.677-2.74 1.252.578c1.409 3.884.037 5.482-2.437 8.822.326 3.78 5.314 8.599 8.036 11.369l.346 1.95c-2.243.81-1.928.74-4.339 1.18l4.5 3.59c1.824-.96 2.801-1.63 4.509-2.79 1.179.89.762.82 1.451 2.66l2.493-3.52c3.169 1.15 5.302 4.12 7.857 6.76 1.198-4.29-3.343-2.31.426-4.68 15.279 4.9 8.903-.68 18.112-.39l3.583 2.17c10.348-6.49 12.875-10.817 19.473-20.3 8.279-11.897 8.538-22.84 9.948-37.177 1.188-12.082-2.053-99.745 2.163-102.315 2.386 7.23-.459 10.604 3.607 17.312l-.074-78.772c-.04-30.617-4.125-52.721 15.131-78.522"/><path fill="#1b6642" d="M1068.16 717.09c7.79.607 7.96 2.982 11.07 9.548 2.11 1.542 1.28 1.155 3.78 1.959 2.17 7.036 2.17 109.325.75 118.749 3.95 6.013 3.3 2.821 1.48 8.637-3.28 10.505-1.43 31.414-1.74 42.471 1.71 2.779 2.04 2.823 2.93 5.955-2.11 3.78-2.38 2.852-1.88 6.267l1.53 1.424 1.93-1.016.38 1.944-2.87 3.65.55 1.655 4.05 1.946.34 1.742c-3.91 3.478-5.33.336-6.22 3.079l2.05 2.498c-1.42.754-.58.567-2.58.079-.08 7.443-1.62 18.783 3.48 22.765 10.75 8.388 5.74 10.802 8.37 20.591 1.35-1.364.71-.584 1.86-2.385l.92 2.768-1.26 1.579-.28 2.752-1.48-.593.73.623-.12-.423c-1.79 13.165-15.32 31.296-31.32 24.646l1.86.09c-3.77-2.243-4.47-1.998-9.04-2.178-6.64.345-8.29 1.052-14.36 3.138-.04-2.576.19-2.23 1.13-4.853-1.16-2.828-2.62-4.101-4.55-6.397-9.37-11.146-8.94-12.22-9.71-25.771l1.06-1.775c1.44.888.92.366 1.69 1.396-1.02-7.051-8.51-4.272-4.85-11.205-6.38.785-2.36 4.449-7.03 2.53l-.54-1.101c-2.87-5.679-4.16-7.255-10.84-7.243l-1.96 2.931c-4.93-1.091 1.55-2.186-5.12-1.898-6.981 6.646-.75 20.689-5.994 30.145l.254 3.658 1.045.195.476-4.501 1.069.801c.089 2.769.685 4.613-2.002 6.783-9.857 7.964-4.281 13.352-7.984 21.485l-.699-.02-.777-2.46c-3.916 7.5-13.935 26.79-21.467 30.88-4.43 2.4-7.281 2.81-11.129 6.72l2.08.94c-5.166 5.66-4.076 6.8-12.041 6.3-6.27 5.91 1.585 11.94-5.238 18.04-3.682 3.29-6.144 4.99-5.387 10.34l1.965.86c-2.086 2.04-4.205 2.28-7.066 3.07-1.795 2.58-5.107 36.32-5.322 42.07l-2.96.62c-1.168 1.94-4.564 7.57-5.588 9.3-.762 1.29 1.567 5.39-.892 8.05l-3.285-2.85-1.844.99-.6 2.82c-2.903.9-3.916 1.07-6.831 1.56l-1.545 1.91 1.008 1.43c-3.649 1.87-30.352 3.44-35.348 3-2.751-2.74-2.834-2.77-4.804-6.08-.944-.55-9.826-3.04-10.851-3.1l-.454-2.25 2.378-.5c-.919-2.98-1.904-5.95-2.953-8.9l-1.495-.33.979 2.78-1.387 1.33c-3.904-.37-1.978.18-5.633-2.77l-.644-1.7.905-.52c1.078-.63 3.377-1.68 3.267-2.93-.719-8.22-2.109-14.1-9.09-18.49l-.718-1.93c2.587.4 1.577.09 3.842 1.86l1.366-.77c.288-2.47.571-3.65.257-6.12-4.788-5.23-10.661-12.02-15.848-16.59-6.781 3.59-6.387 15.25-5.342 21.94l1.725-.16 1.416.9-.963 1.95-3.177.47c.292 7.35 5.032 18.39 3.335 22.3l-3.729 1.66c-2.202 38.53-1.633 84.85 51.259 79.98 11.059-1.02 25.946-1.78 31.504-12.99.253-5.88-3.151-26.19-3.885-33.91 4.244-2.69 5.59.57 8.164-2.39-1.282-2.14-1.445-1.84-1.622-4.3 35.771-16.96 60.489 24.01 29.042 44.19-2.19 1.4-14.328-.66-17.401 5.52-1.011 1.07-2.049 1.5-3.439 1.98-1.039.57-5.637 4.75-6.933 5.79-10.799 8.69-20.867 12.35-34.816 13.25a63.34 63.34 0 0 1-46.723-16.3c-11.84-10.59-18.921-24.24-19.909-40.14l-.276-.88c-1.262-6.38-.613-37.24-.57-46.12.219-26.64.074-53.28-.436-79.91-2.851 3.7-5.862 7.27-9.023 10.7-23.312 25.31-48.836 31.31-81.596 32.6-10.541 20.98-30.085 18.78-41.686-.11-.52-.78-5.787-16.37-5.665-18.16l2.844-.05c.286-2.63.579-1.42-.878-3.63-2.281.88-2.133.95-4.541.75.317-2.13-.072-5.54.448-6.7l1.695.26c1.528 2.41 1.832 3.33 4.144 4.98l2.202-.78c1.891-3.3 5.027-3.76 8.296-5.98-1.043-4.82-.303-2.98-5.219-6.73-.45-2.6-.774-4.79-.773-7.44l.932-.79.07-1.65c5.247-7.37 14.644.34 22.243-4.44 14.053-.12 25.221-.34 38.676-5.06a83.5 83.5 0 0 0 30.911-19.23c28.607-28.075 24.826-63.924 24.533-100.667-.143-18.09-2.107-43.727 20.214-49.852 17.74-4.868 31.107 5.217 34.632 22.791 2.402 8.995 1.816 35.097 1.84 45.926l-.049 71.642-.125 74.94c-.041 8.46.596 22.09.15 29.99 6.276 20.82 16.729 36.15 42.039 33.33 41.72-4.65 24.851-58.53 43.348-85.1 11.488-16.5 25.047-20.81 37.1-35.5 26.172-27.348 23.292-66.732 23.245-101.358l-.111-115.429c.011-17.474-2.79-58.046 5.614-71.651a25.92 25.92 0 0 1 16.921-11.873c9.49-1.998 16.14.558 23.87 5.611 3.35 4.799 9.24 13.629 9.38 19.28 1.74 66.862 0 135.349.81 202.147-6.58 6.023-10.62 10.516-11.31 20.096a26.3 26.3 0 0 0 6.74 19.454c3.79 4.243 7.94 6.673 13.22 8.548 10.2.891 18.36-.031 25.73-7.969a25.65 25.65 0 0 0 6.73-18.987c-.58-9.907-5.06-15.275-12.12-21.412l.12-137.82c.01-21.996.92-46.522-.88-68.302-.62-7.579-5.79-18.145-9.15-24.905"/><path fill="#13f17d" d="M798.79 1026.14c-3.129-15.07 9.944-22.61 19.353-13.81.37 7.44.518 12.8 1.933 20.11l-3.28 1.98c.492 15.51 3.711 18.77 4.755 29.55l-1.999.57c-2.662 7.13-2.327 35.42-.528 43.35.292 7.35 5.032 18.39 3.335 22.3l-3.729 1.66c-2.202 38.53-1.633 84.85 51.259 79.98 11.059-1.02 25.946-1.78 31.504-12.99.253-5.88-3.151-26.19-3.885-33.91 4.244-2.69 5.59.57 8.164-2.39-1.282-2.14-1.445-1.84-1.622-4.3 35.771-16.96 60.489 24.01 29.042 44.19-2.19 1.4-14.328-.66-17.401 5.52-1.011 1.07-2.049 1.5-3.439 1.98-1.039.57-5.637 4.75-6.933 5.79-10.799 8.69-20.867 12.35-34.816 13.25a63.34 63.34 0 0 1-46.723-16.3c-11.84-10.59-18.921-24.24-19.909-40.14l-.276-.88c-1.262-6.38-.613-37.24-.57-46.12.219-26.64.074-53.28-.436-79.91-2.851 3.7-5.862 7.27-9.023 10.7-23.312 25.31-48.836 31.31-81.596 32.6-10.541 20.98-30.085 18.78-41.686-.11-1.485-26.25 22.35-38.87 38.87-18.2 3.071 5.87 2.134 6.48 9.012 6.9 13.054-2.97 19.286-1.86 34.099-7.5 19.84-7.56 37.855-24.58 46.525-43.87"/><path fill="#185335" d="M798.79 1026.14c-3.129-15.07 9.944-22.61 19.353-13.81.37 7.44.518 12.8 1.933 20.11l-3.28 1.98c.492 15.51 3.711 18.77 4.755 29.55l-1.999.57c-2.662 7.13-2.327 35.42-.528 43.35.292 7.35 5.032 18.39 3.335 22.3l-3.729 1.66c-2.202 38.53-1.633 84.85 51.259 79.98 11.059-1.02 25.946-1.78 31.504-12.99.253-5.88-3.151-26.19-3.885-33.91 4.244-2.69 5.59.57 8.164-2.39-1.282-2.14-1.445-1.84-1.622-4.3 35.771-16.96 60.489 24.01 29.042 44.19-2.19 1.4-14.328-.66-17.401 5.52-1.011 1.07-2.049 1.5-3.439 1.98 8.775-13 8.36-5.66 19.512-10.32 17.71-7.39 19.115-31.83-.062-39.24a22.75 22.75 0 0 0-17.924.8c-15.223 7.2-12.255 21.97-5.353 34.1a70 70 0 0 1-4.996 6.56c-17.884 20.43-52.713 20.14-72.065 1.58-22.359-21.45-16.788-57.8-16.539-86.85.329-25.93.432-51.86.308-77.8-.045-5.7.77-19.91-3.019-23.64-3.753-1.64-1.946-1.57-5.554-.77-3.81 2.9-5.396 7.35-7.77 11.79"/><path fill="#185335" d="M699.847 1076.22c3.054 4.3 2.363 10.21-1.6 13.68a10.273 10.273 0 0 1-13.775-.19c-3.863-3.59-4.386-9.52-1.212-13.72a10.277 10.277 0 0 1 16.587.23"/><path fill="#14e377" d="M709.154 1070.61c3.071 5.87 2.134 6.48 9.012 6.9l-2.921.93c.871 2.01 4.72 3.5 7.118 4.81l-.218 1.9.964-.44c-3.292 1.32-9.825 2.67-13.189 2.06-7.05-1.27-2.231-4.58-6.442-10.14l-3.631-.41a10.3 10.3 0 0 0-3.06-2.84c3.177-.73 5.158-.11 8.358.44 3.333-1.23 2.032-.21 4.009-3.21"/><path fill="#185335" d="M920.07 1170.65a9.89 9.89 0 0 1 12.985 4.88c2.271 4.9.195 10.72-4.664 13.07a9.89 9.89 0 0 1-9.957-.78 9.897 9.897 0 0 1 1.636-17.17"/><path fill="#1a7146" d="M845.048 886.432c2.402 8.995 1.816 35.097 1.84 45.926l-.049 71.642-.125 74.94c-.041 8.46.596 22.09.15 29.99-.606-.66-8.769-33.4-8.738-34.32l2.83 3.34c2.673-2.94 4.475-92.303 1.994-102.017l-1.711.677c-2.107-3.399-.769-6.873-1.506-10.419-1.24-5.964 3.193-8.834 3.76-13.445 2.615-21.29-.477-45.218 1.555-66.314"/><defs><linearGradient id="a" x1="915.652" x2="855.891" y1="1002.843" y2="1089.251" gradientUnits="userSpaceOnUse"><stop offset="0" stop-color="#1c6b44"/><stop offset="1" stop-color="#138c51"/></linearGradient></defs><path fill="url(#a)" d="M851.831 843.727c3.544-2.802 1.978-2.002 6.826-2.487 3.999 1.582 3.88 3.449 5.838 6.301 1.998 2.91 8.63 8.472 11.544 10.913l-2.925 1.539c.419 3.198.024 1.562 2.027 4.102 4.196 5.323 5.324 22.199 6.222 29.665 1.631-2.297 1.677-2.819 2.772-5.39.937 3.009.421 3.747 1.316 6.887l-4.007 1.407a658 658 0 0 1-.805 22.594l.962-1.466 1.233.395c3.541 9.17-1.28 9.755-1.891 18.135-.24 3.3 2.734 12.791 2.247 17.018l-2.556.772q.007 5.755.193 11.506l1.855 1.262 1.022-3.151 1.749 2.255-.235.744.308-.353-2.355 1.725c1.467 5.767 4.672 5.911 3.572 8.709l-4.579-4.523-.943.113c-1.5 4.814-.465 8.288.287 13.342l.677-2.74 1.252.578c1.409 3.884.037 5.482-2.437 8.822.326 3.78 5.314 8.599 8.036 11.369l.346 1.95c-2.243.81-1.928.74-4.339 1.18l4.5 3.59c1.824-.96 2.801-1.63 4.509-2.79 1.179.89.762.82 1.451 2.66l2.493-3.52c3.169 1.15 5.302 4.12 7.857 6.76 1.198-4.29-3.343-2.31.426-4.68 15.279 4.9 8.903-.68 18.112-.39l3.583 2.17c10.348-6.49 12.875-10.817 19.473-20.3 8.279-11.897 8.538-22.84 9.948-37.177 1.188-12.082-2.053-99.745 2.163-102.315 2.386 7.23-.459 10.604 3.607 17.312.128 24.213 2.207 92.178-3.268 111.162a60.74 60.74 0 0 1-15.131 25.848c-6.387 6.45-14.91 12.5-21.552 18.17-23.103 19.71-29.66 48.28-31.497 77.35-.349 5.53-.983 9.74-6.668 12.03-9.648-.62-9.078-12.27-9.09-19.84-.02-12.15.188-24.34.323-36.5-1.263-51.51.522-103.623-.198-155.176-.205-14.651-1.758-21.901-6.613-35.649-5.705-10.123-9.047-14.056-17.64-21.888"/><path fill="#1a7146" d="M869.471 865.615c7.607 7.462 8.903 24.436 8.607 34.768-1.398 48.849.425 97.441 1.058 146.257.142 10.98.549 22.11-.567 33.03l-1.164.28c-.044-6.72.26-17.31-1.123-23.51-1.263-51.51.522-103.623-.198-155.176-.205-14.651-1.758-21.901-6.613-35.649"/><path fill="#1a7146" d="M605.793 1009.39c3.022-1.41 10.674-1.78 14.595-2.73 28-6.835 47.829-7.015 76.009-5.41 2.56-1.588 3.167-2.188 6.099-2.961 1.171 1.695 1.708 2.401 3.077 3.931 6.711-.37 17.318.1 22.97-4.018 5.02-3.652 2.563-8.175 4.969-11.179l3.675 1.449c4.171-9.79 10.196-13.305 13.906-21.105-.581-2.023-1.314-3.125-2.472-4.877l1.363-.904c2.304 1.91 1.794 3.517 3.686 6.923 2.496-26.849-.172-60.045.903-87.938l-4.269-1.66c.625-4.621 9.431-4.062 10.126-5.181 3.156-5.08 4.389-7.616 9.296-11.941-4.66 10.147-7.63 17.722-8.682 28.802-3.626 38.218 13.488 97.598-34.59 114.639-18.167 6.45-46.317 3.92-66.081 4.06-17.676.13-37.002.63-54.58.1"/><path fill="#185335" d="M978.222 710.926c-4.439-6.256.803-5.604 2.669-11.726 3.711-1.88 6.113-4.531 9.11-7.362l-.004-.817-3.028-.243c1.115-1.719 7.77-2.654 10.502-3.299l-3.351-1.109-.325-1.014 2.174-1.198c2.785.885 2.709 1.008 5.081 2.798 2.53-.476 3.74-2.248 5.61-4.159 5.09.893 9 3.676 11.93 2.952l-1.26-1.461 1.24-1.218c10.73.2 28.11-1.428 35.36 5.797 1.24 4.99.37 5.475 3.32 8.421l1.96-.187c-.27-1.105-.33-2.269-.47-3.396l1.63.251c2.28 5.129 4.02 11.803 3.73 17.437-21.91-24.048-65.516-29.411-84.909-.376z"/><path fill="#185335" d="M603.556 1036.96c7.575 1.91 26.99 1.43 35.437 1.44l57.089.05c-7.599 4.78-16.996-2.93-22.243 4.44l-.07 1.65-.932.79-2.381 1.55c-6.118-2.55-11.07-1.1-17.451-1.49-12.413-.74-23.079.64-35.186-.85-2.649 3.87-.777 3.96-2.204 9.03-5-8.51-7.471-5.5-12.059-16.61"/><path fill="#13f17d" d="M1150.71 844.932c10.61-14.292 22.97-24.03 41.27-26.661a64.45 64.45 0 0 1 47.95 12.333c22.35 16.971 25.29 39.554 26.08 65.887 3.35 20.747-2.04 61.683 8.38 80.619 2.66 1.976 1.28 1.768 4.1 1.356-1.82-1.558-.79-.901-3.16-1.901-.87-4.625-.92-5.295-.28-9.952l.84-.508c1.87 3.861 3.09 7.577 6.4 10.071 7.17.454 10.91-3.575 15.9-4.69 23.82-10.339 30.24-12.593 57.2-12.564l.9-1.474c11.62-19.307 28.83-19.872 41.15-.795 2.68 5.312 5.78 13.006 6.11 18.893-1 1.77-.26 1.09-2.34 1.882-5.13 7.397-10.31 8.549-17.83 12.625-4.79 2.599-14.22-.838-19.02-2.174 1.26 1.145 16.49 9.122 17.66 9.131l2.65 2.984 3.55-.552 1.12 1.008-.4.32c7.85.29 14.92.76 22.7 1.55 5.39.55 9.13-4.316 15.85-2.1 5.04 1.66 8.84 3.93 13.65 5.64 6.07 2.15 16.24.3 21.54 3.63 14.23 9.44 11.88 23.16-3.62 29.05-4.31 2.09-12.37.25-21.7 3.11-29.72 9.11-71.3-2.24-99.32 7.08 1.48-.49-18.97 20.94-20.57 22.55l2.16 2.26c-.86 2.53-2.68 3.47-4.86 5.15l-.91 2.33.83 1.46-.15 1.09c-2.23 16.49-2.64 36.25-2.4 52.85.08 5.87 6.24 5.52 1.4 10.41l-.74-5.3-.61.02c.17 3.3.26 3.4 1.23 6.59l-1.33 2.75 1.06 1.71-.28 1.54c-.61 3.5-2.53 19.13-1.74 21.82l1.32-.21-1.62-.21c2.38.38 1.19.38 3.57-.46.26 1.17.66 2.5.66 3.64-2.53-.56-2.04-.63-4.39-2.12-5.92 3.29-14.19 29.69-21.24 34.34l-.01-3.15-2.14-.15c-2.47 2.51-4.22 3.73-4.96 7.14l2.04.97c-10.58 11.03-36.57 8.84-52.29 9.71-4.16-3.16-3.95-4.81-4.05-9.88-3.89-.97-4.44-1.06-8.44-1.31-2.55-3.83 1.55-5.52-6.9-3.89-3.75-5.26-8.02-11.74-12.49-16.21-2.18-.27-4 .02-4.71-1.32-3.54-6.66-9.3-15.7-9.43-23.24-.3-17.46.65-35.66 1.31-53.07.34-8.88-2.37-47.24 1.18-52.25l-1.42-1.3c-.84-3.64-1.66-6.25-5.63-7.35-.78 3 .12 1.97-2.38 3.45l-2.63-.73c-2.2-2.58-2.08-2.53-4.93-4.31-.4 1.46-.21 2.91-.16 4.41l-1.32.61c-1.34-2.66-1.57-3.18-3.38-5.52-1.97.14-4.77 3.32-6.61 4.98l-1.83-.66c-1.19-2.43-1.17-3.2-3.38-4.57-3.5.18-4.42.43-7.79-.76-1.18-2.95-.85-1.73-.44-5.22-1.36 2.63-2.34 5.34-4.67 6.98l-2.13-1 .07 1.46 1.66 2.11c-1.36 4.82-3.36 5.1-7.72 6.78-2.64 3.09-3.94 9.96-5.08 14.2 2.33-1.76 2.56-2.44 4.37-4.76.22 3.9-.88 5.34-3.86 7.66-.26 1.91-.41 3.3-.81 5.17l-1.91-.14c-.16 15.58-.15 31.17.04 46.75.14 6.74-.51 40.92.54 44.84l1.41 1.49c1.66-3.43-.94-3.41.45-6.83 2.77-6.83-4.26-18.36.19-25.38.13-.21.52-2.16.56-2.35 1.01 2.23.88 2.69 1.14 5.18l1.36-1.92 1.49.54c.63 2.2.94 2.06.63 4.04l-2.66.02c-1.5 4.15 2.44 11.65 2.41 14.54-.1 8.64-3.49 5.18-.49 14.87l-1.22 1.39c-2.57-.97-2.73-.93-4.91-2.54-1.12 10.33-.4 39.46-.24 50.96l.79.13c2.05-10.01-1.5-14.77 2.72-21.99l.86-.46c1.46 4.41.17 32.32.79 39.55 1.14-.64 1.51-1.01 2.84-1.11-2.15 6.72-2.97 5.92-3.1 13.41.22.32.43.65.64.97 2.39 10.65 1.17 24.39 1.67 35.5.08 1.83-.94 2.57-1.22 3.51-2.39 7.87-2.52 17.17-6.09 24.69-.77 1.6-1.09 3.63-1.46 5.38-2.05-1.15-4.07-2.35-6.07-3.58-3.17 1.71-2.86 7.93-2.96 11.32l-6.16.32c-3.05 5.12 5 3.91-7.53 8.97-3.1 4.56-4.37 9.81-10.12 9.87-7.01.06-12.77 2.47-19.6 3.05 5.41 2.98 14.4 4.19 20.17 2.58l3.89 1.53.42 1.41-4.26.9c-1.79-1.32-.98-.5-2.33-2.55-2.59-.51-2.22-.61-4.78-.5l-1.07 2.25-.71-1.7-.18.42c2.23 2.53 4.19 3.53 7.01 5.32l-.57 1.38c-16.17.42-12.19-9.95-27.72-9.92-14.76.03-16.99 14.65-29.15-.03l.47-1.13c4.2.94 10.6 3.39 13.99 2.87l.76-1.2-2.43-.41.07-.81 2.86-.71c-4.12-2.95-15.18-1.38-19.96-1.96-.74-.09-13.33-25.61-16.12-28.88-2.88-3.37-8.96-10.5-10.55-14.43-1.23-44-.1-87.95-2.67-131.97-.821-14.05 2.01-30.91-.33-44.62l-.66-3.95c-.509-3.03-.395-6.79-.389-9.91l1.119 3 .68.02.73-10.41-.85.15-.708 2.07-.903-.28c-1.426-3.81-2.011-3.33-.938-6.29l1.28-.51c1.239 1.88.919.9 1.129 2.89.99-3.23 1.31-3.46.78-6.86-.21-.26-.42-.52-.63-.77a39.48 39.48 0 0 1-8.383-28.1c2.274-23.1 26.513-27.91 45.233-19.88 1.15-1.07 2.28-2.16 3.4-3.26 4.79 1.33 13.05 23.93 11.56 30.24-1.42 6.02-7.62 14.66-3.14 18.21-.63 2.79.12 1.65-1.96 3.66-4.85.1-4.42-.74-7.22 1.7-.42 3.18-.86 1.95.32 4.28 1.65-1.67 1.09-1.17 1.93-3.67l1 1.29c-.78 5.06-1.82 9.13-.96 14.13l1.67 1.9c1.61-.27 1.74-.51 3.3.03-.12 4.11-.98 3.92-4.53 6.48l-.68 2.07c1.31 1.73 1.56 2.09 3.15 3.53l-1.75 5.73c-1.6-1.67-1.87-1.96-3.13-3.88-.85 2.95-1.07 2.87-.37 5.78l1.57 1.33 1.9-1.4.45 1.25c-2.05 2.7-2.9 2.72-2.61 5.18l2.54-1.23c.87 2.48.7 1.21 0 3.9l-1.76-.54.29 3.37-.95.87c-1.42-2.39-.95-1.49-1.37-4.46-3.88 12.65 7.34 12.16 1.5 22.29-2.63 4.57-1.8 6.39.02 10.76.51 1.22 1.03 2.43 1.57 3.63-1.32 2.39-2.54 1.68-2.56 2.21-.78 14.99-.62 46.66-.72 60.65 2.65 1.73 1.97.58 2.96 3.03-1.22 2.4-1.37 2.71-3.03 4.82l.29 6.07c3.48-.71-.48-.42 2.31-3.06l1.01.71-.3 2.2 1.88.89 2.85-2.51 1.44.27c3.16 8.03 7.5 6.74 7.21 14.45-.1 2.58-.16 3.5 1.27 5.55 2.93.72 2.85.51 5.85-.26-2.07-2.2-1.05-1.23-4.52-2.26l-.18-1.21c7.97-9.15-1.95-10.06 15.3-10.01 4.71-7.86 4.21-6.6 11.98-11.14-.08-19.1.72-41.6 1.21-63.41.98-43.59-3.77-95.28 2.9-138.03.54-3.47 8.27-28.22 11.58-27.98.46.03 3.41-2.87 4.36-4.02-2.12-.3-1.23.06-2.75-.88 1.99-3.04 3.42-7.18 5.77-8.96 1.1 2.26.57 1.63 2.28 3.37 3.5-9.8 4.42-8.18 10.36-15.69 4.46-5.64 10.98-6.37 12.4-12.289-2.42-1.627-1.1-.998-4.47-1.064-5.41-3.861 1.5-11.705-1.26-17.929-3.65-2.297-6.4-3.056-5.83-7.613 9.22-6.918 3.53-6.22 6.52-16.495 1.29 1.549.63.636 1.97 2.811 2.07-.785 2.78-2.492 4.4-4.575l2.45.92 1.15-.9 1.04-18.341c1.69-1.569 3.37-3.158 5.03-4.767.63-3.141.53-3.154 2.03-5.939l1.94-.062c.1-2.395 6.77-14.978 9.08-16.347.16-.096 1.52 1.625 4.94.357-.39-2.319-.36-1.691-.25-3.915l2.34-1.308c2.42.829 3.01 1.013 5.52 1.434 10.24-7.67 23.34-2.019 34.46 1.477 2.61-1.187 1.62-.968 4.45-1.22 2.56 2.108 4.52 5.619 6.37 8.49 2.07-.921 1.38-.782 3.59-1.075 2.55 6.631 1.96 15.977 5.28 24.449 3.72 1.712 4.07 1.815 4.65 5.529l-.91.94-3.65-2.366 1.43 1.045-.93 1.206c2.63 6.264 2.95 1.105 6.62 2.858l1.34 3.995c4.88 2.345 6.39 4.051 9.2 8.662l1-.128c10.57-10.685 8.04-62.079 8.95-76.786l.09-1.315c-1.1-14.178-6.6-26.347-17.67-35.496a54.26 54.26 0 0 0-41.29-11.706c-10.5 1.316-33.37 10.622-31.12 23.946 1.49 8.863 6.07 14.71.19 24.022-9.99 15.841-36.96 10.726-39.59-8.174a22.98 22.98 0 0 1 4.6-17.234c6.31-7.991 13.21-8.668 22.6-8.055"/><path fill="#1b6642" d="M1150.71 844.932c10.61-14.292 22.97-24.03 41.27-26.661a64.45 64.45 0 0 1 47.95 12.333c22.35 16.971 25.29 39.554 26.08 65.887 3.35 20.747-2.04 61.683 8.38 80.619 2.66 1.976 1.28 1.768 4.1 1.356-1.82-1.558-.79-.901-3.16-1.901-.87-4.625-.92-5.295-.28-9.952l.84-.508c1.87 3.861 3.09 7.577 6.4 10.071 7.17.454 10.91-3.575 15.9-4.69 23.82-10.339 30.24-12.593 57.2-12.564l.9-1.474c11.62-19.307 28.83-19.872 41.15-.795 2.68 5.312 5.78 13.006 6.11 18.893-1 1.77-.26 1.09-2.34 1.882-5.13 7.397-10.31 8.549-17.83 12.625-4.79 2.599-14.22-.838-19.02-2.174 1.26 1.145 16.49 9.122 17.66 9.131l2.65 2.984c-11.13 1.116-26.97-.58-37.36 4.476-.91.45-3.97 4.98-4.58 6.02-69 17.16-64.86 76.86-64.43 133.77 0 10.01.38 19.6-5.18 28.69-12 19.62-45.76 14.5-49.79-8.46-2.81-16.02-1.82-35.62-1.76-52.07l.04-106.7c.04-7.747.39-16.079.14-23.765-.76-23.35 5.11-57.159-17.81-71.919a36.09 36.09 0 0 0-27.62-4.694c-13 2.993-19.25 12.331-25.54 22.829-1.18-2.965-1.07-3.412-1.36-6.524.1-2.395 6.77-14.978 9.08-16.347.16-.096 1.52 1.625 4.94.357-.39-2.319-.36-1.691-.25-3.915l2.34-1.308c2.42.829 3.01 1.013 5.52 1.434 10.24-7.67 23.34-2.019 34.46 1.477 2.61-1.187 1.62-.968 4.45-1.22 2.56 2.108 4.52 5.619 6.37 8.49 2.07-.921 1.38-.782 3.59-1.075 2.55 6.631 1.96 15.977 5.28 24.449 3.72 1.712 4.07 1.815 4.65 5.529l-.91.94-3.65-2.366 1.43 1.045-.93 1.206c2.63 6.264 2.95 1.105 6.62 2.858l1.34 3.995c4.88 2.345 6.39 4.051 9.2 8.662l1-.128c10.57-10.685 8.04-62.079 8.95-76.786l.09-1.315c-1.1-14.178-6.6-26.347-17.67-35.496a54.26 54.26 0 0 0-41.29-11.706c-10.5 1.316-33.37 10.622-31.12 23.946 1.49 8.863 6.07 14.71.19 24.022-9.99 15.841-36.96 10.726-39.59-8.174a22.98 22.98 0 0 1 4.6-17.234c6.31-7.991 13.21-8.668 22.6-8.055"/><path fill="#13f17d" d="M1150.71 844.932c10.61-14.292 22.97-24.03 41.27-26.661a64.45 64.45 0 0 1 47.95 12.333c22.35 16.971 25.29 39.554 26.08 65.887 3.35 20.747-2.04 61.683 8.38 80.619 2.66 1.976 1.28 1.768 4.1 1.356-1.82-1.558-.79-.901-3.16-1.901-.87-4.625-.92-5.295-.28-9.952l.84-.508c1.87 3.861 3.09 7.577 6.4 10.071 7.17.454 10.91-3.575 15.9-4.69-1.84 1.357-11.09 8.042-12.55 9.483-.67 2.384-1.19 3.639-2.39 5.808.11 5.212 2.51 4.721 7.36 5.435-10.23 10.508-14.34 15.968-21.43 28.988-.52 1.44-2.3 6.1-2.53 7.15-2.47 4.15-5.03 5.95-9.83 4.51-7.69-8.78.85-132.438-3.83-155.231-1.1-14.178-6.6-26.347-17.67-35.496a54.26 54.26 0 0 0-41.29-11.706c-10.5 1.316-33.37 10.622-31.12 23.946 1.49 8.863 6.07 14.71.19 24.022-9.99 15.841-36.96 10.726-39.59-8.174a22.98 22.98 0 0 1 4.6-17.234c6.31-7.991 13.21-8.668 22.6-8.055"/><path fill="#1a7146" d="M1266.01 896.491c3.35 20.747-2.04 61.683 8.38 80.619 2.66 1.976 1.28 1.768 4.1 1.356-1.82-1.558-.79-.901-3.16-1.901-.87-4.625-.92-5.295-.28-9.952l.84-.508c1.87 3.861 3.09 7.577 6.4 10.071 7.17.454 10.91-3.575 15.9-4.69-1.84 1.357-11.09 8.042-12.55 9.483-8.76 7.168-12.01 10.675-18.65 19.871l-1.14-2.444c1.16-33.127-1.41-68.666.16-101.905"/><path fill="#185335" d="M1141.77 856.632c5.17-1.664 10.73 1.094 12.52 6.217a10.01 10.01 0 0 1-5.89 12.676c-3.4 1.294-7.24.64-10.02-1.708a10 10 0 0 1-3.36-9.591c.7-3.571 3.29-6.478 6.75-7.594"/><path fill="#14e377" d="m1355.39 958.922.9-1.474c11.62-19.307 28.83-19.872 41.15-.795 1.24 14.413-2.19 27.575-20.27 29.552-9.71 1.062-16.95-7.168-20.93-15.512-13.79.307-22.78.57-36.05 4.561-10.05 3.67-15.1 5.737-23.77 12.088-1.72 1.429-4.25 3.402-5.81 4.87-4.85-.714-7.25-.223-7.36-5.435 1.2-2.169 1.72-3.424 2.39-5.808 1.46-1.441 10.71-8.126 12.55-9.483 23.82-10.339 30.24-12.593 57.2-12.564"/><path fill="#1a382e" d="M1374.18 954.604c5.41-1.517 11.02 1.669 12.49 7.094s-1.76 11.01-7.2 12.433c-5.37 1.407-10.87-1.78-12.33-7.14-1.45-5.359 1.69-10.888 7.04-12.387"/><path fill="#13f17d" d="M1345.58 960.848c3.22 1.056 6.36 3.859 8.79 6.135l-1.41.305c-4.63.515-8.45 1.594-11.97-1.843 1.04-3.268.78-2.258 4.59-4.597"/><path fill="#185335" d="M1296.42 987.342c8.67-6.351 13.72-8.418 23.77-12.088 2.86 2.298 2.97 1.617 3.85 4.558-3.08 3.061-5 6.116-8.62 6.329-5.82-3.341-7.95.197-14.62 2.897l-.37.783c3.9.78 4.48.622 8.53.275l-.84 2.415-1.49-.038c-4.99-.084-5.88-.36-10.49 1.56-.71-2.433-.15-4.172.28-6.691"/><path fill="#1b6642" d="M1140.39 1042.23c4.35 1.33 3.57.44 6.25 5.09-1.36 2.63-2.34 5.34-4.67 6.98l-2.13-1 .07 1.46 1.66 2.11c-1.36 4.82-3.36 5.1-7.72 6.78-2.64 3.09-3.94 9.96-5.08 14.2 2.33-1.76 2.56-2.44 4.37-4.76.22 3.9-.88 5.34-3.86 7.66-.26 1.91-.41 3.3-.81 5.17l-1.91-.14c-.16 15.58-.15 31.17.04 46.75.14 6.74-.51 40.92.54 44.84l1.41 1.49c1.66-3.43-.94-3.41.45-6.83 2.77-6.83-4.26-18.36.19-25.38.13-.21.52-2.16.56-2.35 1.01 2.23.88 2.69 1.14 5.18l1.36-1.92 1.49.54c.63 2.2.94 2.06.63 4.04l-2.66.02c-1.5 4.15 2.44 11.65 2.41 14.54-.1 8.64-3.49 5.18-.49 14.87l-1.22 1.39c-2.57-.97-2.73-.93-4.91-2.54-1.12 10.33-.4 39.46-.24 50.96l.79.13c2.05-10.01-1.5-14.77 2.72-21.99l.86-.46c1.46 4.41.17 32.32.79 39.55 1.14-.64 1.51-1.01 2.84-1.11-2.15 6.72-2.97 5.92-3.1 13.41.22.32.43.65.64.97 2.39 10.65 1.17 24.39 1.67 35.5.08 1.83-.94 2.57-1.22 3.51-2.39 7.87-2.52 17.17-6.09 24.69-.77 1.6-1.09 3.63-1.46 5.38-2.05-1.15-4.07-2.35-6.07-3.58-3.17 1.71-2.86 7.93-2.96 11.32l-6.16.32c-3.05 5.12 5 3.91-7.53 8.97-3.1 4.56-4.37 9.81-10.12 9.87-7.01.06-12.77 2.47-19.6 3.05 5.41 2.98 14.4 4.19 20.17 2.58l3.89 1.53.42 1.41-4.26.9c-1.79-1.32-.98-.5-2.33-2.55-2.59-.51-2.22-.61-4.78-.5l-1.07 2.25-.71-1.7-.18.42c2.23 2.53 4.19 3.53 7.01 5.32l-.57 1.38c-16.17.42-12.19-9.95-27.72-9.92-14.76.03-16.99 14.65-29.15-.03l.47-1.13c4.2.94 10.6 3.39 13.99 2.87l.76-1.2-2.43-.41.07-.81 2.86-.71c-4.12-2.95-15.18-1.38-19.96-1.96-.74-.09-13.33-25.61-16.12-28.88-2.88-3.37-8.96-10.5-10.55-14.43-1.23-44-.1-87.95-2.67-131.97-.821-14.05 2.01-30.91-.33-44.62l-.66-3.95c-.509-3.03-.395-6.79-.389-9.91l1.119 3 .68.02.73-10.41-.85.15-.708 2.07-.903-.28c-1.426-3.81-2.011-3.33-.938-6.29l1.28-.51c1.239 1.88.919.9 1.129 2.89.99-3.23 1.31-3.46.78-6.86-.21-.26-.42-.52-.63-.77a39.48 39.48 0 0 1-8.383-28.1c2.274-23.1 26.513-27.91 45.233-19.88 1.15-1.07 2.28-2.16 3.4-3.26 4.79 1.33 13.05 23.93 11.56 30.24-1.42 6.02-7.62 14.66-3.14 18.21-.63 2.79.12 1.65-1.96 3.66-4.85.1-4.42-.74-7.22 1.7-.42 3.18-.86 1.95.32 4.28 1.65-1.67 1.09-1.17 1.93-3.67l1 1.29c-.78 5.06-1.82 9.13-.96 14.13l1.67 1.9c1.61-.27 1.74-.51 3.3.03-.12 4.11-.98 3.92-4.53 6.48l-.68 2.07c1.31 1.73 1.56 2.09 3.15 3.53l-1.75 5.73c-1.6-1.67-1.87-1.96-3.13-3.88-.85 2.95-1.07 2.87-.37 5.78l1.57 1.33 1.9-1.4.45 1.25c-2.05 2.7-2.9 2.72-2.61 5.18l2.54-1.23c.87 2.48.7 1.21 0 3.9l-1.76-.54.29 3.37-.95.87c-1.42-2.39-.95-1.49-1.37-4.46-3.88 12.65 7.34 12.16 1.5 22.29-2.63 4.57-1.8 6.39.02 10.76.51 1.22 1.03 2.43 1.57 3.63-1.32 2.39-2.54 1.68-2.56 2.21-.78 14.99-.62 46.66-.72 60.65 2.65 1.73 1.97.58 2.96 3.03-1.22 2.4-1.37 2.71-3.03 4.82l.29 6.07-.49 1.02-1.24-.05c-4.28-5.52-.26-23.72-3.22-33.47.05-9.58-.05-19.16-.31-28.73 1.4-28.71.56-72.13.1-101.37 6.87-6.55 12.07-12.43 12.07-22.87.01-7.04-2.87-13.77-7.97-18.62a27.72 27.72 0 0 0-21.04-7.8c-15.8.96-25.568 15.47-23.841 30.94.836 7.49 6.151 13.21 11.431 18.21l-.08 126.19c-.01 12.46.15 25.17-.01 37.64-.34 26.62-.29 50.97 19.86 71.15 21.19 21.22 58.75 19.09 78.7-2.87 5.99-6.65 8.82-11.55 12.66-19.69 1.72-4.78 2.91-10.9 4.06-15.94 1-18.73.54-41.61.56-60.59l.02-99.13c-.05-36.37-6.35-72.5 18.89-101.66"/><path fill="#185335" d="M1120.92 1303.61c5.85-6.26 2.89-10.15 7.28-17.5l1.68-.91 1.04.62c-4.43 8.18 5.73 31.97-14.06 33.73 1.72-4.78 2.91-10.9 4.06-15.94"/><path fill="#1a7146" d="M1140.39 1042.23c4.35 1.33 3.57.44 6.25 5.09-1.36 2.63-2.34 5.34-4.67 6.98l-2.13-1z"/><path fill="#1a7146" d="M1040.24 1269.87c3.48-.71-.48-.42 2.31-3.06l1.01.71-.3 2.2 1.88.89 2.85-2.51 1.44.27c3.16 8.03 7.5 6.74 7.21 14.45-.1 2.58-.16 3.5 1.27 5.55 2.93.72 2.85.51 5.85-.26-2.07-2.2-1.05-1.23-4.52-2.26l-.18-1.21c7.97-9.15-1.95-10.06 15.3-10.01 4.71-7.86 4.21-6.6 11.98-11.14-.08-19.1.72-41.6 1.21-63.41.98-43.59-3.77-95.28 2.9-138.03.54-3.47 8.27-28.22 11.58-27.98.46.03 3.41-2.87 4.36-4.02-2.12-.3-1.23.06-2.75-.88 1.99-3.04 3.42-7.18 5.77-8.96 1.1 2.26.57 1.63 2.28 3.37 3.5-9.8 4.42-8.18 10.36-15.69 4.46-5.64 10.98-6.37 12.4-12.289-2.42-1.627-1.1-.998-4.47-1.064-5.41-3.861 1.5-11.705-1.26-17.929-3.65-2.297-6.4-3.056-5.83-7.613 9.22-6.918 3.53-6.22 6.52-16.495 1.29 1.549.63.636 1.97 2.811 2.07-.785 2.78-2.492 4.4-4.575l2.45.92 1.15-.9 1.04-18.341c1.69-1.569 3.37-3.158 5.03-4.767.63-3.141.53-3.154 2.03-5.939l1.94-.062c.29 3.112.18 3.559 1.36 6.524l-1.88 6.489c-3.86 19.597.28 38.969-7.46 58.13-6.93 17.17-20.92 25.87-31.28 40.27-22.04 30.65-17.77 73-17.77 108.99l.04 110.7c.02 17.37.94 35.64-1.58 52.81-1.12 7.58-7.89 12.18-9.86 16.79-27.05 14.89-45.21-2.62-45.77-29.96-.37-18.34-.15-36.71.07-55.02 2.96 9.75-1.06 27.95 3.22 33.47l1.24.05z"/><path fill="#1a7146" d="M1140.39 1042.23c29.11-28.78 36.37-46.8 36.2-88.242-.03-5.044-1.09-14.24 2.45-17.241 2.57-2.176 1.14-1.166 4.9-2.125 2.49.661 5.56 1.754 6.27 4.34 4.2 15.097 1.78 43.045 1.77 58.052l.39 99.946c.01 21.53-.6 46.81.3 68.01-5.4-7.92 2.23-91.49-4.13-100.68l-1.42-1.3c-.84-3.64-1.66-6.25-5.63-7.35-.78 3 .12 1.97-2.38 3.45l-2.63-.73c-2.2-2.58-2.08-2.53-4.93-4.31-.4 1.46-.21 2.91-.16 4.41l-1.32.61c-1.34-2.66-1.57-3.18-3.38-5.52-1.97.14-4.77 3.32-6.61 4.98l-1.83-.66c-1.19-2.43-1.17-3.2-3.38-4.57-3.5.18-4.42.43-7.79-.76-1.18-2.95-.85-1.73-.44-5.22-2.68-4.65-1.9-3.76-6.25-5.09"/><path fill="#185335" d="M1192.67 1164.97c10.62 44.24 55.25 65.32 93.23 36.62 50.89-38.45-13.91-142.4 61.13-161.31 21.76-5.48 59.45.07 82.98-2.14 5.57-.52 23.43-.4 29.05.4-4.31 2.09-12.37.25-21.7 3.11-29.72 9.11-71.3-2.24-99.32 7.08 1.48-.49-18.97 20.94-20.57 22.55l2.16 2.26c-.86 2.53-2.68 3.47-4.86 5.15l-.91 2.33.83 1.46-.15 1.09c-2.23 16.49-2.64 36.25-2.4 52.85.08 5.87 6.24 5.52 1.4 10.41l-.74-5.3-.61.02c.17 3.3.26 3.4 1.23 6.59l-1.33 2.75 1.06 1.71-.28 1.54c-.61 3.5-2.53 19.13-1.74 21.82l1.32-.21-1.62-.21c2.38.38 1.19.38 3.57-.46.26 1.17.66 2.5.66 3.64-2.53-.56-2.04-.63-4.39-2.12-5.92 3.29-14.19 29.69-21.24 34.34l-.01-3.15-2.14-.15c-2.47 2.51-4.22 3.73-4.96 7.14l2.04.97c-10.58 11.03-36.57 8.84-52.29 9.71-4.16-3.16-3.95-4.81-4.05-9.88-3.89-.97-4.44-1.06-8.44-1.31-2.55-3.83 1.55-5.52-6.9-3.89-3.75-5.26-8.02-11.74-12.49-16.21-2.18-.27-4 .02-4.71-1.32-3.54-6.66-9.3-15.7-9.43-23.24-.3-17.46.65-35.66 1.31-53.07.34-8.88-2.37-47.24 1.18-52.25 6.36 9.19-1.27 92.76 4.13 100.68"/><path fill="#1a7146" d="M1342.73 1010.49c.61-1.04 3.67-5.57 4.58-6.02 10.39-5.056 26.23-3.36 37.36-4.476l3.55-.552 1.12 1.008-.4.32c7.85.29 14.92.76 22.7 1.55 5.39.55 9.13-4.316 15.85-2.1 5.04 1.66 8.84 3.93 13.65 5.64 6.07 2.15 16.24.3 21.54 3.63-36.36.46-84.95-3-119.95 1"/><path fill="#8e8f91" d="M1935.18 1887.43c4.81 3.16 9.92 18.34 14.64 25.52 7.64 11.61 31.92 19.28 33.7 23.41-2.76 3.62-10.73 4.97-15.15 7.26-17.8 9.23-24.36 21.67-30.12 39.16-.8-.17-3.49-.84-3.85-1.61-4.28-8.85-7.76-16.68-13.33-24.73-6.23-8.98-26.2-14.49-30.17-20.17 1.06-6.35 11.82-6.86 18.42-11.3 15.35-10.32 18.97-22.25 25.86-37.54"/></svg>