<svg xmlns="http://www.w3.org/2000/svg" width="2816" height="1536" viewBox="0 0 2816 1536"><path fill="#fdfdfc" d="M2172.46 907.882c-75.6-43.06-103.35-138.363-62.7-215.281 40.66-76.918 135.04-107.662 213.2-69.447 78.16 38.214 111.87 131.581 76.13 210.906-35.73 79.325-127.99 115.95-208.4 82.732a161 161 0 0 1-18.23-8.91m85.25-41.699c119.58-7.968 116.76-198.754-10.03-196.771-123.83 9.126-118.29 198.18 10.03 196.771"/><path fill="#fdfdfc" d="M1575.6 607.606c88.67-9.191 167.94 55.377 176.89 144.072 8.94 88.695-55.85 167.79-144.57 176.486-88.37 8.662-167.08-55.817-175.99-144.163-8.91-88.345 55.35-167.241 143.67-176.395m21.79 256.761c52.95-2.934 93.66-47.98 91.23-100.959s-47.09-94.109-100.09-92.182c-53.72 1.953-95.53 47.347-93.06 101.043 2.46 53.696 48.25 95.072 101.92 92.098"/><path fill="#fdfdfc" d="M1930.68 610.393c4.45-.743 18.45-.872 23.19-.676 48.94 2.016 81.78 17.481 114.84 52.657-11.09 12.325-26.56 26.594-38.31 38.881-.76.793-4.57 3.407-4.71 3.307-10.89-7.742-24.16-21.787-36.57-27.071-11.63-4.955-24.2-7.601-35.36-8.189-25.66-1.351-50.33 6.381-69.19 23.851-19.96 18.48-29.96 44.946-30.8 71.756-.81 25.883 8.14 54.012 26.26 72.864a97.17 97.17 0 0 0 69.2 29.214c31.58.274 52.36-13.158 73.85-34.224 1.68-1.202 1.01-.792 3.22-1.182 5.48 2.958 36.26 33.493 43.02 39.892l-.52.642c-26.46 32.15-61.3 49.458-102.47 53.342-91.96 8.674-171.12-47.222-179.75-143.48a161.74 161.74 0 0 1 36.13-118.014c27.62-32.903 65.88-49.809 107.97-53.57"/><path fill="#fdfdfc" d="M1102.03 615.125c23.65-.584 48.97-.218 72.76-.311a29296 29296 0 0 0 122.63 306.192l-70.57-.111c-7.1-16.047-14.32-35.263-21.05-51.726l-51.67-126.692a5600 5600 0 0 1-34.15-82.626c-5.34-12.939-13.96-32.189-17.95-44.726"/><path fill="#0ff984" d="M753.416 967.256c1.081-13.598.664-31.225.697-45.175l.264-73.703c.107-18.793-.792-38.565 3.699-56.951 4.361-20.221 26.054-29.923 31.697-48.667 4.792-15.917-2.52-40.693 12.633-52.631 16.987-13.382 40.03-2.818 41.904 18.95 1.23 14.291.72 27.894.68 41.918l-.374 79.958c-.052 9.857-.597 21.18.423 30.827 2.978 28.162 39.939 24.466 40.643-3.979.755-30.527-5.277-65.375 20.71-87.88a52 52 0 0 1 21.807-11.025c22.737-5.486 60.884-.36 85.281-1.719 7.01-.39 12.11 7.069 11.4 13.999-4.35 9.201-19.66 7.976-28.348 7.901l-36.045-.215c-18.895-.055-40.349-1.551-49.461 19.322-12.462 28.549 7.042 64.316-16.073 90.79-12.895 14.769-30.113 17.509-48.04 9.309-10.478-4.793-16.864-15.614-21.463-25.895-1.195-10.207-.561-29.154-.522-40.148l.301-73.029c-.057-13.465-.028-27.064-.303-40.533-.107-5.238-.821-9.904-5.525-12.77-3.856.47-2.574-.165-5.581 2.028-1.84 4.415-1.301 13.626-.942 18.586-1.506 14.173-3.035 27.914-11.298 40.184-7.621 9.244-20.313 18.901-23.96 28.727-3.568 9.613-2.886 29.008-2.907 39.855l-.081 71.632c-.01 30.749 8.841 88.237-37.641 95.148-11.369 1.69-21.768-2.833-30.599-10.258a40.72 40.72 0 0 1-14.145-28.052c-1.017-13.536-.242-35.101-.173-49.103l.267-86.619c-4.42-4.504-11.287-12.395-10.141-18.797 5.673-31.694 59.254-17.745 31.456 17.407-1.645 26.192-.628 54.477-.755 81.37-.064 13.391-2.621 54.461 5.472 65.039 8.675 11.339 26.392 7.414 35.043-5.801"/><path fill="#0ff984" d="M695.062 535.179c23.866-2.482 43.255 8.729 47.773 33.826 2.929 16.27.514 38.564.23 55.623a7312 7312 0 0 0-.398 89.359c4.131 3.776 8.746 8.215 9.156 14.151.787 11.417-6.98 22.041-19.021 21.588a20 20 0 0 1-14.268-6.641c-9.136-10.252-3.733-20.625 4.771-28.587.274-41.515.713-101.565-1.153-144.51-2.027-4.963-8.651-11.988-13.492-13.538-33.471-10.717-26.356 41.723-26.374 61.527l-.192 86.239c-.104 32.665-1.333 53.517-29.124 74.07-7.392 5.706-13.211 11.127-17.61 19.437-6.219 11.747-2.006 24.774-6.591 37.196-3.268 8.853-7.963 16.136-18.365 16.893-12.473.907-25.295-4.151-29.398-16.961-2.657-8.661-2.12-17.661-1.887-26.597.752-28.811.335-57.639.451-86.456.036-13.925.446-27.884-.036-41.802-.718-20.77-14.659-30.915-33.85-20.713-15.463 15.208-.968 58.831-13.235 84.4-7.527 15.69-18.99 27.224-35.554 32.808-8.314 2.803-85.889 4.479-91.721.955-2.555-1.545-5.143-5.598-5.533-8.557-.35-2.662.062-5.138 1.8-7.243 2.317-2.806 6.023-4.076 9.488-4.741 6.606-1.27 14.119-.571 20.845-.502 16.438.169 33.594 1.293 49.964.255 60.496-3.838 19.096-78.604 46.409-108.788a40.7 40.7 0 0 1 28.265-13.221c11.396-.534 21.3 2.773 29.775 10.438 14.328 12.835 13.229 31.443 13.384 49.063.374 42.505-.096 85.049-.042 127.554.005 3.861.528 4.808 3.126 7.224 10.242 1.667 7.715-7.01 8.294-13.777a94.6 94.6 0 0 1 6.753-27.751c10.183-25.105 37.619-26.443 42.409-53.573 2.326-13.176 1.707-28.38 1.699-41.888l.017-77.825c-.151-33.869-7.639-67.206 33.235-78.935"/><path fill="#0ff984" d="M1356.69 615.158c22.77-.451 46.31-.243 69.14-.337-8.51 25.034-21.36 52.455-31.08 77.318-22.7 58.004-49.01 116.191-71.36 174.156-2.12 7.023-7.69 19.498-10.54 27.204-1.88-3.908-3.89-8.913-5.36-13.047-8.41-23.665-20.59-47.27-28.17-71.039 22.3-54.247 42.91-109.437 64.9-163.825 4.09-10.121 7.91-20.53 12.47-30.43"/><path fill="#0ff984" d="M823.499 623.307a59 59 0 0 1 4.172-.258c12.881-.318 24.862 3.043 34.299 12.12a49.3 49.3 0 0 1 13.322 23.301c3.87 15.14.441 73.111 1.052 93.99 16.1-20.367 36.63-31.195 62.752-29.969 21.932-36.673 50.373 16.313 15.911 19.999-6.406.686-12.878-6.727-16.736-11.373-15.806.773-25.423 2.293-38.726 11.028-10.431 8.024-16.762 20.566-23.437 31.802-2.896 1.416-1.325 1.023-4.976.591-9.477-8.736 3.352-105.734-8.023-122.793-3.486-6.609-10.652-15.503-18.987-16.978-45.94-8.129-33.739 13.992-39.561 30.824a11.25 11.25 0 0 1-6.327 6.751c-3.124 1.322-11.037 2.036-13.245.029-22.345-18.441-6.921-26.174 13.529-30.628 1.317-.287 5.777-7.438 7.349-9.586 3.987-5.445 11.271-7.398 17.632-8.85m-29.89 41.683a7.352 7.352 0 1 0-5.321-13.707 7.352 7.352 0 0 0 5.321 13.707"/><path fill="#1b5a40" fill-opacity=".008" d="M788.533 651.192a7.352 7.352 0 1 1 4.83 13.889 7.352 7.352 0 0 1-4.83-13.889"/><path fill="#0ff984" d="M538.531 780.552c2.997-5.39 8.575-20.647 15.473-16.61 2.879 5.027 1.889 10.795 1.752 16.864l-.039 53.548c-.047 13.111-.976 26.894 1.392 40.077 4.828 26.875 38.066 36.584 58.575 20.893 7.183-5.497 1.98-19.189 5.079-26.219 7.303-12.786 29.859-8.467 28.329 8.606a15.82 15.82 0 0 1-5.736 10.693c-4.158 3.438-9.298 3.411-14.451 3.691-21.37 35.656-74.966 20.403-80.131-14.005-3.066-20.423-2.123-66.769-1.18-88.283l-1.248-2.502-2.748.138a289 289 0 0 1-5.203 5.578c-14.604 15.178-33.906 20.155-54.317 20.572-20.492 33.322-45.26-11.275-19.111-18.808 6.768-1.95 15.586 5.128 20.685 9.268 22.443 1.35 38.404-6.261 52.879-23.501"/><path fill="#8b8c8f" d="M2703.94 1374.63c3.21 3.1 4.75 8.51 6.6 12.74 11.54 26.52 20.99 24.79 41.43 34.98.77 4.2-16.02 9.24-21.71 13.25-15.69 11.05-18.19 20.49-25.07 36.69-.69-.21-2.99-1.23-3.22-1.83-6.09-15.62-15.17-32.86-31.8-39.04-3.84-1.42-10.28-5.23-14.03-7.35 8.91-7.61 24.31-8.74 34.55-23.39 5.46-7.81 10.31-22.74 13.25-26.05"/></svg>