<svg xmlns="http://www.w3.org/2000/svg" width="2500" height="2500" viewBox="0 0 2500 2500"><path fill="#ccd0f1" d="M1465.27 1063.419c16.988-4.367 41.488-.585 59.103-1.254 64.462-2.443 129.387-5.405 133.276 144.163 3.043 117.148 2.098 223.29-80.387 230.123-14.853 1.786-38.145 1.096-53.743.905-35.093-.43-80.433 7.517-110.265-31.233-14.926-19.387-24.864-60.775-26.063-92.635-2.262-59.91-6.105-150.851 15.725-200.462 16.306-37.075 38.326-44.477 62.354-49.607m99.264 293.557c33.685-5.139 39.953-27.328 40.317-87.668.209-34.68 2.97-85.983-12.573-112.141-12.028-18.571-45.004-14.484-60.402-14.364-17.914.138-36.255-.454-53.96.387-37.537 7.39-36.7 34.766-38.554 91.848-3.906 120.165 12.754 125.828 74.81 122.214 14.28-.831 34.692.884 50.362-.276"/><path fill="#ccd0f1" d="M2233.739 1331.468c-.055.809-.11 1.62-.155 2.43-10.302 98.322-65.361 108.016-112.027 103.978-43.832-3.793-108.903 18.714-139.69-53.358-16.26-39.546-15.988-92.716-15.897-139.487.127-50.083.754-105.827 22.447-143.092 20.867-35.837 54.124-40.199 81.686-39.93 10.629.103 21.33-.29 31.895.047 21.739.695 44.486-2.41 65.943 3.91 5.033 1.186 15.87 4.199 20.322 8.317 28.26 13.751 44.05 59.305 46.756 109.593 3.525 21.736 1.854 122.136-1.28 147.592m-88.182 25.513c35.774-7.818 37.537-34.68 38.345-95.246.627-46.536 2.38-113.318-32.867-117.48-29.924-2.604-61.746-2.041-91.824-.956-30.741 4.883-38.681 25.658-39.698 80.987-.545 29.588-1.7 72.368 4.778 99.863 9.457 40.174 42.405 32.998 63.372 32.978z"/><path fill="#bfc4f5" d="m2233.739 1331.468-1.826-.889c-.79-2.903-1.209-146.466-.727-158.111l1.19 1.307c.345 5.413.581 6.082 2.643 10.1 3.525 21.737 1.854 122.137-1.28 147.593"/><path fill="#bfc4f5" d="M2167.94 1065.966c5.034 1.186 15.871 4.199 20.323 8.317l-.754 2.135c-2.526.38-9.003-3.681-12.682-3.913-6.913-.434-13.817-.333-20.73-.628l-1.063-1.253-1.027.399.863.135c1.254-2.147 12.427-4.794 15.07-5.192"/><path fill="#ccd0f1" d="M1327.716 961.435c11.392-2.188 44.077-1.586 56.313.962 1.726.36 1.745 1.811 2.49 4.298-1.045 12.684-15.326 56.307-19.368 69.673l-39.58 131.284-48.629 161.886c-8.321 27.622-16.797 57.638-26.063 83.75-10.892 26.288-26.598 23.167-41.16 24.677-36.683 3.809-43.342-42.853-59.312-95.328l-41.924-139.63-47.574-158.638c-6.923-23.379-14.1-47.407-20.84-70.984-1.154-4.03-1.1-6.438-.218-10.023 6.214-4.222 49.491-4.002 56.722-1.675l2.172 2.694c2.016 4.498 17.233 57.862 19.54 65.72l57.767 196.397c3.879 13.115 30.405 107.729 35.356 110.61 6.832-3.04 30.015-91.607 35.156-109.28l55.832-188.975c5.433-18.387 16.925-60.903 22.72-75.887z"/><path fill="#bfc4f5" d="m1098.573 961.687 2.172 2.694-.536 3.582c-12.3 5.441-26.2 2.992-38.808 1.037 12.381-8.928 24.327-4.64 37.172-7.313"/><path fill="#ccd0f1" d="M1929.087 1431.622c-.281.74-1.517 2.723-1.925 3.436-8.095 5.446-125.9 1.647-144.005 2.284-19.15.674-52.689-11.848-67.187-40.664-24.419-48.5-20.05-112.378-20.34-173.415-.2-42.835 4.06-93.307 22.447-122.877 24.564-39.515 60.347-38.08 91.098-37.967l44.277.215c21.865.034 44.095-2.24 65.888-.361 2.852.245 6.577.263 8.512 4.524 2.398 5.279 1.917 51.804 1.499 60.747-.173 3.623-.545 10.225-2.362 12.585-7.022 9.14-125.3-.925-146.375 4.547-6.94 1.8-15.57 5.827-20.921 14.369-9.666 15.405-10.538 44.202-10.974 65.693-.673 33.09-3.807 89.531 10.22 115.153 9.929 18.128 29.024 16.914 42.06 17.506 11.482-.823 23.374-.524 34.91-.45 29.516.187 59.085-.6 88.582.515 2.734.103 4.624 3.537 6.04 7.425-.054 9.428-.435 53.583.41 60.917z"/><path fill="#bfc4f5" d="M1800.999 1357.397c11.482-.823 23.374-.524 34.91-.45 29.516.187 59.085-.6 88.582.515 2.734.103 4.624 3.537 6.04 7.425-.054 9.428-.435 53.583.41 60.917l-1.854 5.818-2.78-1.618c.164-29.86-.526-38.862-2.924-68.5-31.677-4.01-70.813 1.342-103.144-.373-7.113-.378-28.433 1.439-34.175-.977 1.635-2.002 10.51-1.816 14.035-2.558z"/><defs><linearGradient id="a" x1="443.281" x2="553.642" y1="776.272" y2="693.29" gradientUnits="userSpaceOnUse"><stop offset="0" stop-color="#513ec7"/><stop offset="1" stop-color="#8f58ee"/></linearGradient></defs><path fill="url(#a)" d="M410.129 716.742c1.95-4.666 2.861-19.48 4.279-26.15 5.971-28.092 11.465-95.971 44.067-105.509 26.679-7.805 40.82 34.507 45.85 54.951.718 2.599 2.694 9.314 2.638 11.686 8.928 34.103 13.545 79.498 20.743 114.857 3.333 16.372 9.875 41.2 12.152 56.249-1.312 14.932 11.463 46.794 9.911 50.787-.143-.004-10.405-4.599-12.974-5.379-.104-3.85.553-3.414-1.411-5.605-8.034-.181-7.423 1.89-15.162-2.865-.631.951-1.192 1.815-1.8 2.788-.722-6.275-4.788-9.89-4.744-15.388 1.767-1.733 2.489-1.151 5.741-1.377l-.313-.936c-12.615-1.155-4.253-6.584-13.642-15.094-2.745-6.068-5.799-21.831-7.414-29.203-7.218-32.953-11.874-66.376-17.234-99.669a938 938 0 0 0-10.282-51.375c-1.192-5.404-2.34-14.075-6.878-16.976-6.57 4.745-11.089 58.672-14.18 70.13a143 143 0 0 0-4.215 2.287c-.743 6.18-4.067 29.819-6.092 34.671-2.693 1.07-3.237 1.543-6.038.759-1.865-4.593 1.991-4.621.386-10.442l-1.11-.358-2.214 3.045-.744-.48c-.095-3.712.55-3.779-1.267-6.071l-2.01.209c-1.34 3.209-1.001 2.031.099 6.121-10.642-.48-8.593 5.14-15.167 6.505-1.708-2.49-.498-16.603-.975-22.168" transform="scale(.90843 1.6276)"/><path fill="#9075e7" d="M460.54 1060.74c-.118 5.022-.145 18.439-1.795 21.507-2.472-6.418-5.712-27.715-4.654-34.935 1.42 2.785.763 2.153 2.566 3.538l-.18-6.282 1.667-2.849c.652 4.23 2.447 15.16 2.396 19.02"/><path fill="#7259e3" d="M518.786 922.465c.513 13.286.007 15.52.048 27.062 4.016-4.914 1.501-12.742 4.784-12.207 2.388 3.032 1.693 1.09 2.464 5.619-1.11 6.009-1.417 4.505-.423 9.174 6.806 8.062 20.17-10.605 20.036 11.172l.326-2.487c1.532-.937 1.95-2.226 2.933-4.441-2.801 20.39-5.39 48.483-7.274 69.527-2.283 35.306-4.414 62.294-5.01 97.977-2.338 75.433 1.212 138.792 8.26 212.937 1.007 4.885 2.032 8.413 1.85 13.56 3.484 16.935 5.317 37.884 8.89 55.415 15.018 65.302 9.67 75.3 47.668 106.368-2.591 14.4-5.47 26.436-14.457 31.022-7.358 3.755-17.803.536-24.084-7.267-28.168-34.995-40.625-108.99-47.998-165.966-15.315-73.745-13.97-287.604-5.335-366.417 1.257-18.364 4.38-65.428 7.322-81.048"/><defs><linearGradient id="b" x1="657.074" x2="611.663" y1="921.872" y2="927.044" gradientUnits="userSpaceOnUse"><stop offset="0" stop-color="#1b1a64"/><stop offset="1" stop-color="#453fac"/></linearGradient></defs><path fill="url(#b)" d="m568.892 841.687 3.131.812c5.587 9.772 14.516 51.096 23.25 63.673.527.759 4.869 2.236 6.067 2.603l-.049.948-2.809 1.075c.754 2.635.053 1.429 2.804 3.292l3.014.025c.938 3.095.703 3.994.544 7.304 1.861 3.816 3.506 5.085 6.508 7.961 8.204-6.479 6.328-11.794 7.579-21.253.422-3.191 4.335-5.303 1.809-8.395l-2.724-.626 1.375-2.731c-4.743 2.597-4.959 2.504-6.108 7.837l-1.157.239c-4.735-7.124 8.006-5.968 4.813-15.157-1.698 1.017-2.715 1.921-4.251 3.145l-.825-.545c.993-2.006 2.678-5.731 3.888-7.406-1.671.288-3.112.542-4.801.731-.25-2.133-.212-1.201.379-3.022 1.809-5.57.159-13.346.352-18.488 16.532 40.122 10.645 46.264 52.474 65.353-2.853 8.847-6.022 16.242-15.915 19.06-8.099 2.307-19.597.329-26.511-4.465-31.008-21.501-44.72-66.964-52.837-101.97" transform="scale(.90843 1.6276)"/><path fill="#bd7af5" d="M518.786 922.465c.513 13.286.007 15.52.048 27.062 4.016-4.914 1.501-12.742 4.784-12.207 2.388 3.032 1.693 1.09 2.464 5.619-1.11 6.009-1.417 4.505-.423 9.174 6.806 8.062 20.17-10.605 20.036 11.172l.326-2.487c1.532-.937 1.95-2.226 2.933-4.441-2.801 20.39-5.39 48.483-7.274 69.527-6.675 7.448-3.24 16.783-4.813 29.217-.712 5.624-1.789 10.736-2.594 16.376-4.035-3.376-2.704-12.139-2.366-18.926-1.205 2.29-1.193 3.92-1.482 6.901l-1.16 1.056c-1.89-3.39-2.412-12.283-2.992-17.485-3.017-6.064-2.461 1.172-7.57-3.992l-.66-9.854-1.329-1.284c-.33 5.711-.186 6.579-1.975 11.046l-1.008-.197c-2.06-8.878-2.042-25.087-2.267-35.229 1.257-18.364 4.38-65.428 7.322-81.048"/><path fill="#9075e7" d="M534.273 1071.477c.805-5.64 1.882-10.752 2.594-16.376 1.573-12.434-1.862-21.769 4.813-29.217-2.283 35.306-4.414 62.294-5.01 97.977-4.413 9.092-2.897 27.308-2.828 40.075.556 11.45.543 50.198-2.715 59.282-1.652-8.205 2.467-39.082.22-46.645-.808-2.717-11.91-3.588-11.076-16.574 3.47 1.355 3.407 3.598 7.712 4.381 3.21-2.921 2.13-1.138 3.875-6.704 1.327-15.736-.07-14.157-1.728-27.171-1.446-11.341 5.5-13.545 4.374-32.057l-.812-1.836 1.11 1.797-1.598-1.309-1.468 1.797c-1.604-6.328 1.272-19.378 2.538-25.59l.099 3.874.345-.729z"/><defs><linearGradient id="c" x1="586.855" x2="622.997" y1="1003.537" y2="890.016" gradientUnits="userSpaceOnUse"><stop offset="0" stop-color="#272a6b"/><stop offset="1" stop-color="#4946b4"/></linearGradient></defs><path fill="url(#c)" d="M539.858 822.826c4.555 11.491 10.805 37.198 14.419 49.056 24.039 78.884 95.933 185.248 140.524 46 1.008-3.154 2.942-8.181 4.497-11.1 6-15.262 40.616-3.298 32.676 15.332-.879 2.128-2.025 5.19-2.978 7.181-10.701 24.151-16.159 41.417-33.004 62.739-40.703 51.526-97.487 27.936-130.657-18.482-21.327-29.844-36.261-64.012-47.749-98.916-4.225-12.833-10.881-31.207-12.122-44.879 9.389 8.51 1.027 13.939 13.642 15.094l.313.936c-3.252.226-3.974-.356-5.741 1.377-.044 5.498 4.022 9.113 4.744 15.388.608-.973 1.169-1.837 1.8-2.788 7.739 4.755 7.128 2.684 15.162 2.865 1.964 2.191 1.307 1.755 1.411 5.605 2.569.78 12.831 5.375 12.974 5.379 1.552-3.993-11.223-35.855-9.911-50.787" transform="scale(.90843 1.6276)"/><path fill="#7259e3" d="M635.263 1475.878c5.45-24.84 36.897-5.367 29.684 24.955-.798 3.463-1.84 8.447-2.705 11.688-7.71-2.378-7.56 6.902-18.319-6.877l-.716.319c-2.652-1.543-2.8-1.937-5.06-5.135l-.602-.866-.533 3.856-1.477.893c-.71-2.837-.24-23.715-.272-28.833"/><path fill="#4550b6" d="m643.923 1505.644 1.65-1.327c10.03 3.011 11.674 5.601 19.374-3.484-.798 3.463-1.84 8.447-2.705 11.688-7.71-2.378-7.56 6.902-18.319-6.877"/><path fill="#82f2f1" d="m770.118 1053.384.275-1.364c4.803-24.334 11.225-90.17 21.923-95.984 38.285-20.809 10.137 97.51 7.754 110.128-2.927 21.752-7.8 45.721-11.31 67.515l-32.41 195.86c-2.154 20.567-7.731 44.185-10.51 64.077-4.369 31.26-16.917 64.391-34.053 30.254-1.604-3.197-1.772-14.68-1.247-18.924 8.957-55.662 17.895-111.852 28.1-166.857a15132 15132 0 0 0 31.478-184.705"/><path fill="#5c90ec" d="M746.63 1224.155c7.14 7.979 6.788 23.073 9 33.438l.767 1.719-.323 2.81 3.383-4.096 1.434.65c.387 4.374.575 4.599-.172 8.948-1.08 7.837-2.512 15.337-2.09 23.224-2.217 6.743-3.39 15.674-4.636 23.29l-1.49 7.078-.136 8.42c1.112-2.263.644-1.45 2.37-2.66l1.614 2.563c-2.155 20.567-7.732 44.185-10.51 64.077-4.37 31.26-16.918 64.391-34.054 30.254-1.604-3.197-1.772-14.68-1.247-18.924 8.957-55.662 17.895-111.852 28.1-166.857.034 4.208-.006 5.415.55 9.652l1.082.89c2.908-4.928 5.111-17.415 6.358-24.476"/><path fill="#73caef" d="M746.63 1224.155c7.14 7.979 6.788 23.073 9 33.438l-1.718 4.788c-1.336-10.18-1.178-12.802-5.023-20.249l-2.132 1.732c-10.324 42.432-17.382 81.67-25.746 125.846-2.764 14.596-13.012 72.025 9.94 58.408 5.613-3.33 10.186-36.779 11.82-47.606 3.09-10.732 3.013-23.644 3.372-35.657l-.018-.078 6.242-15.14c1.112-2.264.644-1.452 2.37-2.661l1.614 2.563c-2.155 20.567-7.732 44.185-10.51 64.077-4.37 31.26-16.918 64.391-34.054 30.254-1.604-3.197-1.772-14.68-1.247-18.924 8.957-55.662 17.895-111.852 28.1-166.857.034 4.208-.006 5.415.55 9.652l1.082.89c2.908-4.928 5.111-17.415 6.358-24.476"/><path fill="#66a7ee" d="M742.95 1298.623c1.347 6.047.813 6.782 3.25 9.35 2.803-2.176 4.441-6.29 6.549-10.442l.797.939c-.304 6.478-.731 9.494.447 15.669l-1.49 7.077-.136 8.42-6.242 15.14.018.079c-.36 12.013-.281 24.925-3.372 35.657-3.957-10.094-6.399-17.06-5.13-30.102 1.278-15.524 1.973-32.865 2.566-48.548l.831-.82 1.438 3.725z"/><path fill="#73caef" d="M747.525 1290.827c-.09 3.66-.516 4.726.422 7.002 4.412-7.762 5.741-28.265 12.772-30.205-1.08 7.837-2.512 15.337-2.09 23.224-2.217 6.743-3.39 15.674-4.636 23.29-1.178-6.174-.751-9.19-.447-15.668l-.797-.94c-2.108 4.153-3.746 8.267-6.548 10.444-2.438-2.569-1.904-3.304-3.25-9.351-.987-3.141-.734-1.432-.506-5.386l.532 1.467c.184-5.393.038-12.406 1.57-16.72 1.934 2.82 2.308 8.268 2.978 12.843"/><path fill="#4ccaf2" d="M748.889 1242.132c3.845 7.447 3.687 10.069 5.023 20.25l1.717-4.79.768 1.72-.323 2.81 3.383-4.096 1.434.65c.387 4.374.575 4.599-.172 8.948-7.031 1.94-8.36 22.443-12.772 30.205-.938-2.276-.513-3.342-.422-7.002-.289-4.418.783-44.383 1.364-48.695"/><path fill="#a2eff4" d="m770.118 1053.384.275-1.364c4.803-24.334 11.225-90.17 21.923-95.984 38.285-20.809 10.137 97.51 7.754 110.128l-1.674-3.62c.098-13.033 3.44-27.781 4.486-40.833.563-5.984-2.329-16.748-.685-21.935 4.214-13.29 8.622-33.543-5.476-32.39-9.476 8.946-18.998 73.733-25.237 96.407l-.912.434z"/><path fill="#42e2ef" d="M746.63 1224.155c1.304-6.86 1.564-10.955 4.829-14.918 9.1-2.103 2.915 29.73 10.973 35.07 3.364 8.551-1.69 37.355-3.802 46.54-.423-7.886 1.008-15.386 2.09-23.223.746-4.35.558-4.574.171-8.947l-1.434-.651-3.383 4.096.323-2.81-.768-1.72c-2.21-10.364-1.858-25.458-8.999-33.437"/><path fill="#42e2ef" d="m770.73 1093.316.897 2.026c.152 7.149 4.685 24.562 9.68 25.417l.583-1.867c-.253-6.642-2.637-13.717-3.912-21.226 12.852 12.95 1.18 63.815-2.812 83.184-3.092 9.655-3.988 21.671-10.19 24.873l-2.018-3.374-4.233 2.77c-3.563-1.424-3.912-3.913-6.874-9.276 2.416-21.513 12.03-88.27 18.878-102.527"/><path fill="#9075e7" d="M530.203 852.937c1.61-26.398 20.475-80.963 31.78-97.732 19.556-29.014 43.375-16.555 59.338 20.104 10.078 23.144 46.284 155.102 24.904 179.197-18.005 20.291-28.553-31.8-28.252-55.358-21.837-130.975-40.413-133.024-62.102-3.131a1187 1187 0 0 0-3.929 31.914c-.861 7.853-2.899 21.432-2.988 28.426-.984 2.215-1.401 3.504-2.933 4.441l-.326 2.487c.134-21.777-13.23-3.11-20.036-11.172-.994-4.67-.687-3.165.423-9.174-.77-4.53-.076-2.587-2.464-5.619-3.283-.535-.768 7.293-4.784 12.207-.041-11.541.465-13.776-.048-27.062l.15-1.247c.807-7.768 1.528-14.428 2.625-22.081 2.198-13.1 5.594-34.372 8.642-46.2"/><path fill="#c5c4f2" d="m551.265 896.542-1.042-4.306c1.417-3.218 1.787-3.259 3.672-5.63l.147-2.137c-2.343-.65-2.917-.018-4.287-2.41l2.69-2.25c2.424.464 1.322-.282 3.334 2.666-.026 4.596.025 8.948.092 13.542a1187 1187 0 0 0-3.929 31.914c-.861 7.853-2.899 21.432-2.988 28.426-.984 2.215-1.401 3.504-2.933 4.441l-.326 2.487c.134-21.777-13.23-3.11-20.036-11.172-.994-4.67-.687-3.165.423-9.174-.77-4.53-.076-2.587-2.464-5.619-3.283-.535-.768 7.293-4.784 12.207-.041-11.541.465-13.776-.048-27.062l.15-1.247 2.485-2.37 2.623 1.441c1.353-3.547 2.432-7.55 3.542-11.382 6.694-2.178 10.537-4.957 19.143-7.487.57-1.522.377-.918.837-2.477l.309-1.064z"/><path fill="#daa8f3" d="m551.265 896.542-1.042-4.306c1.417-3.218 1.787-3.259 3.672-5.63l.147-2.137c-2.343-.65-2.917-.018-4.287-2.41l2.69-2.25c2.424.464 1.322-.282 3.334 2.666-.026 4.596.025 8.948.092 13.542a1187 1187 0 0 0-3.929 31.914l-.689-3.06c-3.588-5.056-3.952-7.34-8.524-10.349l.778-.216c-6.089-2.59-6.545-.723-12.337-.37l-1.178-1.24c-2.95 5.73-2.449 6.96-5.948 7.593 1.353-3.547 2.432-7.55 3.542-11.382 6.694-2.178 10.537-4.957 19.143-7.487.57-1.522.377-.918.837-2.477l.309-1.064z"/><path fill="#bd7af5" d="m530.203 852.937 1.755.783c1.05 10.915-7.073 28.394-4.61 39.924l.909.695c.252-6.036-.307-6.44 1.391-10.339l.73 1.341-.692 8.138c4.026 1.229 5.288-2.55 10.013.082 3.84-1.21 5.26 2.327 7.03 7.86-8.606 2.529-12.449 5.308-19.143 7.486-1.11 3.832-2.19 7.835-3.542 11.382l-2.623-1.44-2.485 2.37c.807-7.77 1.528-14.43 2.625-22.082 2.198-13.1 5.594-34.372 8.642-46.2"/><defs><linearGradient id="d" x1="329.4" x2="405.29" y1="787.232" y2="704.499" gradientUnits="userSpaceOnUse"><stop offset="0" stop-color="#272c6c"/><stop offset="1" stop-color="#513bba"/></linearGradient></defs><path fill="url(#d)" d="M410.129 716.742c.477 5.565-.733 19.678.975 22.168 6.574-1.365 4.525-6.985 15.167-6.505-1.1-4.09-1.439-2.912-.099-6.121l2.01-.209c1.817 2.292 1.172 2.359 1.267 6.071l.744.48 2.214-3.045 1.11.358c1.605 5.821-2.251 5.849-.386 10.442 2.801.784 3.345.311 6.038-.759 2.025-4.852 5.349-28.491 6.092-34.671a143 143 0 0 1 4.215-2.287c-2.718 24.498-7.505 51.605-13.176 75.432-4.841 20.335-13.751 54.457-40.965 50.333-27.383-3.896-32.854-36.038-38.368-58.244-2.427-8.281-2.489-19.487-12.605-22.11-19.824-5.141-79.387 15.094-73.59-22.559 3.078-19.991 45.995-11.176 60.966-12.792 22.093-2.384 39.69-.051 49.725 21.674 7.922 13.231 8.872 37.588 15.538 46.071l.969.226c4.921-5.19 9.229-52.982 12.159-63.953" transform="scale(.90843 1.6276)"/><path fill="#42e2ef" d="M883.71 1191.094c-13.994-27.428-28.708-53.332-43.483-79.521-7.055-12.087-14.633-28.208-9.184-46.366 5.541-18.46 18.719-20.7 26.782-6.435 19.342 34.217 38.548 69.275 57.882 103.583 6.059 10.743 14.489 27.717 12.981 43.994-.563 6.486-2.044 12.606-4.297 17.784-5.414 12.27-63.597 114.526-68.121 119.841-4.39 5.199-9.798 6.86-14.904 4.576-3.121-1.454-4.955-3.892-6.998-8.158-5.802-7.178-5.054-21.398-3.894-32.08 3.511-10.6 33.159-60.293 40.403-73.148 5.191-10.766 13.308-20.052 15.63-32.042.838-4.328-1.393-8.384-2.797-12.028"/><path fill="#a2eff4" d="M883.71 1191.094c-13.994-27.428-28.708-53.332-43.483-79.521-7.055-12.087-14.633-28.208-9.184-46.366 5.541-18.46 18.719-20.7 26.782-6.435 19.342 34.217 38.548 69.275 57.882 103.583 6.059 10.743 14.489 27.717 12.981 43.994-.563 6.486-2.044 12.606-4.297 17.784-5.414 12.27-63.597 114.526-68.121 119.841-4.39 5.199-9.798 6.86-14.904 4.576-3.121-1.454-4.955-3.892-6.998-8.158 5.058.887 12.536 10.518 17.85 1.014 22.568-40.358 45.01-80.963 68.149-120.3 2.007-3.414 3.543-5.83 3.897-10.655 2.625-36.14-12.155-35.283-23.274-54.4-1.126-2.034-1.513-3.892-3.894-7.587l-4.479.985c1.808-4.587 1.497-2.162 1.205-7.406-5.634-5.62-9.66-16.429-15.367-23.319l-.48-5.109c-1.989 2.06-2.73 4.509-4.086 7.83-3.93 2.073-4.942.486-8.396-3.572-4.116.451-7.302 1.773-10.546-3.104l-1.502 2.883.759 1.25c5.094 8.46 24.681 44.549 25.583 54.065 3.552 3.628 3.47 7.585 5.232 15.778z"/><path fill="#82f2f1" d="M879.787 1172.967c-7.052-14.915-43.362-69.348-40.867-86.412 3.48-5.479 14.466-7.352 19.028-7.477 4.996-.139 31.65 47.192 36.716 56.106 1.581 2.783 7.359 11.6 7.372 15.082-2.786-2.71-5.485-5.316-8.214-8.223-5.634-5.62-9.66-16.429-15.367-23.319l-.48-5.109c-1.989 2.06-2.73 4.509-4.086 7.83-3.93 2.073-4.942.486-8.396-3.572-4.116.451-7.302 1.773-10.546-3.104l-1.502 2.883.759 1.25c5.094 8.46 24.681 44.549 25.583 54.065"/><path fill="#82f2f1" d="M830.474 1308.312c3.511-10.6 33.159-60.293 40.403-73.148l1.83 4.468c-1.243 4.852-6.77 12.095-9.346 17.266-9.136 18.345-19.757 44.184-31.557 57.155-1.177-3.05-.8-1.957-1.33-5.74"/><path fill="#9075e7" d="M639.79 1107.494c9.01-16.994 24.99-55.933 38.848-57.098 4.456-.374 10.535 2.894 13.704 8.537 2.469 4.398 3.251 10.43 3.026 16.504-1.241 33.49-47.16 95.307-60.276 124.44l.725 1.582c10.824 23.414 26.002 47.548 37.735 68.998 11.558 21.133 30.467 45.795 13.549 76.395-12.879 23.296-46.605-50.874-53.62-63.84-10.08-15.536-20.71-36.272-29.89-53.47-16.378-30.68-4.59-51.011 8.805-73.552 9.389-15.798 17.999-33.03 27.393-48.496"/><path fill="#bfc4f5" d="M639.79 1107.494c9.01-16.994 24.99-55.933 38.848-57.098 4.456-.374 10.535 2.894 13.704 8.537 2.469 4.398 3.251 10.43 3.026 16.504-1.241 33.49-47.16 95.307-60.276 124.44l.725 1.582c10.824 23.414 26.002 47.548 37.735 68.998 11.558 21.133 30.467 45.795 13.549 76.395-12.879 23.296-46.605-50.874-53.62-63.84l.64-5.816c2.288 4.469 7.325 10.942 10.257 15.574 9.373 14.372 17.295 31.213 25.85 46.97 3.528 5.403 12.405 6.158 15.317-.757 10.035-23.827-2.241-39.243-10.215-53.861a5994 5994 0 0 0-26.328-47.734c-5.848-10.371-13.106-21.961-18.12-33.374l-.743-1.717c8.55-24.217 27.156-43.869 32.883-69.123 3.027-13.346 17.181-26.81 22.251-38.16l-1.58-1.604-1.072 1.885-1.996-2.638.164-3.682c-5.222-5.675-4.397 7.373-16.173 3.836l-3.518-2.687-.916 1.234c-1.537 2.04-2.669 3.34-4.567 3.965-3.746 8.071-8.461 13.424-13.235 19.472-2.11-3.047-1.468-2.182-2.59-7.301"/><path fill="#66a7ee" d="M655.615 1095.323c4.213-10.97 7.605-22.393 15.7-24.393 3.778 5.993-4.302 17.667-6.7 21.881l-3.517-2.687-.916 1.234c-1.537 2.04-2.669 3.34-4.567 3.965"/><path fill="#bd7af5" d="M639.79 1107.494c1.122 5.119.48 4.254 2.59 7.301l-.835 1.95c-10.187 23.325-41.359 63.17-40.563 87.723.69 21.248 26.575 50.001 33.138 72.728l-.64 5.817c-10.078-15.537-20.709-36.273-29.89-53.47-16.377-30.68-4.59-51.012 8.806-73.553 9.389-15.798 17.999-33.03 27.393-48.496"/><path fill="#c7c9f2" d="M2128.878 1791.727c-2.08 2.279-6.985 8.187-9.184 9.652-44.704 29.801-46.784-133.154-3.552-112.988 4.951 2.295 8.04 5.86 12.718 9.798l1.308-8.04c2.562-3.5 5.932-2.784 8.349.96 3.388 25.342.282 86.279.309 115.218.045 38.297-22.738 51.53-40.598 37.32-3.234-2.31-6.041-5.908-8.158-10.888-.736-5.908-1.162-4.883-.063-9.359 4.787-4.183 12.046 8.04 21.03 10.19l1.254.292c15.307-4.736 16.015-17.725 16.587-42.155m-12.636-2.604c12.736-8.09 13.363-20.41 13.509-42.724.172-26.823-3.998-46.534-21.43-43.588-18.75 15.886-18.768 88.656 7.921 86.312"/><path fill="#ccd0f1" d="M2098.228 1843.648c-3.234-2.312-6.041-5.909-8.158-10.889-.736-5.908-1.162-4.883-.063-9.359 4.787-4.183 12.046 8.04 21.03 10.19l1.254.292c2.734 1.449 4.287.814 7.113.212l2.325 2.18-.118 3.5c-3.924 5.03-13.263 2.75-17.96 1.383a38 38 0 0 1-2.87-.944z"/><path fill="#bfc4f5" d="M2130.168 1690.149c2.562-3.5 5.932-2.784 8.349.96-2.816 4.28-.881 4.134-2.526 12.907-2.961 2.409-1.535 2.213-4.35 1.627-1.11-3.662-.4-9.033-.128-13.46z"/><path fill="#c7c9f2" d="M1691.224 1691.467c-.563-12.467-.89-38.281.182-50.325 2.116-2.979 7.113-2.23 10.147-2.165.082 35.384 1.008 86.295-.073 120.442.091 9.359.709 33.675-.39 41.553-7.059 5.81-8.476 3.597-10.202-7.178-4.006 1.986-5.641 6.722-8.766 8.61-17.878 10.71-28.916-7.812-33.803-35.221-1.426-15.267-1.708-29.508.327-44.613.19-1.22.39-2.44.6-3.645 4.75-26.547 17.314-39.079 32.249-29.134 3.089 2.05 5.596 5.192 8.684 7.242zm-31.795 76.465c5.305 28.938 28.825 27.636 31.423-1.172l.272-49.251c-11.31-21.713-23.228-25.407-30.741 4.329-2.907 11.49-1.644 17.122-2.943 27.49.636 6.071 1.235 12.614 1.99 18.604"/><path fill="#bfc4f5" d="M1648.646 1722.57c.19-1.22.39-2.44.6-3.645 4.75-26.547 17.314-39.079 32.249-29.134 3.089 2.05 5.596 5.192 8.684 7.242l1.045-5.566c.445 2.62.809 2.832.382 4.525-2.299 9.098-.627 14.518-.482 21.517-11.31-21.713-23.228-25.407-30.741 4.329-2.907 11.49-1.644 17.122-2.943 27.49.636 6.071 1.235 12.614 1.99 18.604l-1.3 3.336c-5.005.619-5.714-3.19-9.811-4.085-1.426-15.267-1.708-29.508.327-44.613"/><path fill="#ccd0f1" d="M1648.646 1722.57c2.017-2.506 2.743-3.743 5.16-4.882 6.005 4.476 1.08 22.298 3.634 31.64.636 6.071 1.235 12.614 1.99 18.604l-1.3 3.336c-5.005.619-5.714-3.19-9.811-4.085-1.426-15.267-1.708-29.508.327-44.613"/><path fill="#c5c4f2" d="M1824.772 1694.64c9.357-12.353 21.285-10.497 30.251 2.003l1.808 1.823c1.708-7.292 2.589-10.205 7.385-11.865 1.318 1.236 2.435 1.692 2.608 5.029 1.671 33.121.445 67.236.663 100.57.136 20.49-.854 43.05-13.3 51.578l-.463-4.525c-3.198-5.762-3.843-4.671-9.175-5.957 12.146-9.603 12.155-19.173 12.527-41.162a74 74 0 0 1-2.389 3.353c-8.249 10.937-13 10.986-22.52 8.561l-3.643-1.888c-18.732-22.51-21.339-82.373-3.752-107.52m32.504 76.14c.136-16.113 2.271-49.154-4.224-60.433-1.308-2.262-5.278-5.86-7.15-7.47l-8.502.179c-18.505 15.071-18.996 71.63.263 85.416 7.476 5.355 15.888-5.794 19.613-17.692"/><path fill="#bfc4f5" d="M1824.772 1694.64c9.357-12.353 21.285-10.497 30.251 2.003-4.26 5.403-7.14 3.483-12.3 2.05l3.461 2.328-.281 1.855-8.503.18-1.272-1.498 2.734-2.344c-2.37-3.483-5.687 3.5-9.974-.048l-.518-3.663c-2.08 2.133-2.335 4.753-3.916 8.757-.245-3.532.31-3.939.318-7.422z"/><path fill="#ccd0f1" d="M1828.524 1802.16c4.997-9.847.736-8.463 3.906-11.149 3.144 1.14 8.849 3.532 10.475 8.773-2.835 2.083-7.631 3.32-10.738 4.264z"/><path fill="#c5c4f2" d="M1125.19 1788.146c-10.674-26.725-11.637-74.17 5.133-92.496 42.46-46.403 67.724 82.666 23.274 108.691-12.79 2.246-18.986.033-28.407-16.195m28.298-.032c5.087-5.892 8.64-10.482 10.61-21.81 2.054-11.605 2.771-37.386-1.435-47.851-16.46-40.902-40.988 2.783-33.366 41.764 1.89 9.7 1.89 11.328 5.123 20.1 5.532 7.943 8.085 10.043 15.725 8.562a49 49 0 0 0 3.343-.765"/><path fill="#ccd0f1" d="m1125.19 1788.146.99-4.378c3.444-2.376 4.552-2.571 8.24-3.45 5.532 7.942 8.085 10.042 15.725 8.56a49 49 0 0 0 3.343-.764l.055 2.572-2.907 3.955.408 1.155 3.362-1.123-.2 3.027c-1.69 1.4-2.526 2.084-4.324 3.158l3.715 3.483c-12.79 2.246-18.986.033-28.407-16.195"/><path fill="#bfc4f5" d="M1169.295 1730.855c6.177 5.55 3.306 29.232 1.344 38.786-1.708-1.84-1.626-1.644-2.77-4.541-.518-11.361.327-23.047 1.426-34.245"/><path fill="#c7c9f2" d="M1614.071 1804.195c-41.542 13.85-50.581-94.922-15.68-115.902 4.298-2.588 9.93-1.806 14.5-1.497 7.766 4.59 13.09 9.066 17.705 22.021 5.341 15.967 6.34 33.431 4.66 51.693-2.816 22.038-8.185 37.825-21.185 43.685m9.593-39.453c1.708-17.123 1.853-29.77-1.771-46.078-4.888-13.753-8.113-14.762-16.57-17.204-16.424 8.838-20.113 35.336-16.152 63.314 2.444 17.22 9.511 24.284 19.023 25.684 9.929-5.762 11.464-8.708 15.47-25.716"/><path fill="#ccd0f1" d="M1630.596 1708.817c5.341 15.967 6.34 33.431 4.66 51.693-3.652 3.776-2.916 8.87-6.041 10.726-2.762-2.344-3.225-2.946-5.55-6.494 1.707-17.123 1.852-29.77-1.772-46.078 1.544-3.141 5.323-5.273 8.703-9.847"/><path fill="#bfc4f5" d="M1623.664 1764.742c2.326 3.548 2.79 4.15 5.55 6.494 3.126-1.856 2.39-6.95 6.042-10.726-2.816 22.038-8.185 37.825-21.185 43.685-.236-4.541.527-6.283 1.98-9.88-3.197 2.018-9.347 2.425-12.572.505l-.046-2.23 4.534-.065.227-2.067c9.929-5.762 11.464-8.708 15.47-25.716"/><path fill="#bfc4f5" d="M1612.89 1686.796c7.767 4.59 13.09 9.066 17.706 22.021-3.38 4.574-7.159 6.706-8.703 9.847-4.888-13.753-8.113-14.762-16.57-17.204 3.307-.764 3.933-2.44 6.859-3.336l.6-.18c-.51-2.554-.991-4.247-1.645-6.672z"/><path fill="#c7c9f2" d="M1437.018 1804.439c-37.318-21.973-26.39-128.288 10.51-118.066 29.252 8.105 34.376 84.13 9.92 113.867-8.575 5.094-11.4 5.452-20.43 4.199m16.543-20.036c6.04-10.596 8.748-20.573 8.702-35.644-.209-71.078-39.416-57.634-37.563 4.964.645 21.565 8.403 33.838 20.258 36.149 2.389-1.042 6.186-3.841 8.603-5.469"/><path fill="#ccd0f1" d="M1444.958 1789.872c2.389-1.042 6.186-3.841 8.603-5.469l3.76 2.393c1.327 5.761.246 6.787.128 13.444-8.576 5.094-11.401 5.452-20.43 4.199 3.315-11.491 6.422-3.679 10.283-9.961-2.063-3.028-3.689-2.165-6.832-2.49l2.017-.619c.618-1.335 1.072-.96 2.47-1.497"/><path fill="#84868d" d="M2397.292 2238.47c3.788 3.11 3.416 8.448 5.315 15.186 12.572 44.45 19.167 47.624 42.305 64.242-29.742 23.779-33.085 22.59-45.794 78.792-5.232-7.292-8.366-34.375-17.314-50.244-8.394-14.893-22.266-19.955-25.446-27.718l.473-3.288c3.906-5.794 6.777-6.169 11.264-9.993 16.234-13.835 23.356-38.786 29.197-66.976"/><path fill="#c6bcb3" d="M829.745 858.448c16.984-20.353 18.75-43.468 23.269-77.952 5.635 65.902 14.555 79.26 50.259 92.648-25.323 10.503-39.88 18.128-47.476 67.16-1.128 8.115-2.119 17.01-3.126 25.237-1.84-12.573-2.775-23.042-4.993-35.962-5.266-23.2-8.95-30.799-20.66-43.274-8.748-6.426-15.889-9.037-24.997-12.238 11.49-5.433 16.979-7.741 27.724-15.619"/><path fill="#9aacb7" d="M802.021 874.067c11.49-5.433 16.979-7.741 27.724-15.619-3.104 8.923-6.316 9.685-12.154 14.336 1.218 2.492 2.126 3.604 3.564 5.591 3.972-.199 2.424-1.099 5.753 3.83l.11 4.1c-8.748-6.426-15.889-9.037-24.997-12.238"/><path fill="#c5c4f2" d="M2055.84 1706.636c-19.821-18.815-24.19 21.208-32.875 14.632-.709-2.23-1.545-3.645-1.309-6.022 2.499-25.488 17.342-28.662 27.599-28.483 28.197 6.625 19.985 50.879 20.839 87.37.209 8.789.917 17.627 1.808 26.286-6.486 8.626-13.363-4.932-12.918-5.258-11.873 8.627-23.201 18.685-34.32-.667-5.905-10.433-7.323-28.027-2.29-40.332 7.195-28.255 24.246-14.762 33.975-20.54 5.024-8.236 2.08-17.61-.508-26.986m-20.275 80.453c10.592 5.566 15.152.162 23.719-10.026l.227-29.118c-11.583-.033-23.892-4.362-29.47 17.431.827 11.589.663 13.542 5.524 21.713"/><path fill="#bfc4f5" d="M2055.84 1706.636c-19.821-18.815-24.19 21.208-32.875 14.632-.709-2.23-1.545-3.645-1.309-6.022 2.499-25.488 17.342-28.662 27.599-28.483-1.363.83-.918.05-1.49 1.97l-.673.537 3.044.52.772 2.1c-1.835 1.888-4.006 1.14-6.241.977l-.209 1.725c6.032 7.096 9.802-5.566 11.9 8.09z"/><path fill="#ccd0f1" d="M2022.374 1754.162c2.907-1.855 4.306-2.864 7.031-5.42 1.336 4.07.51 10.742.636 16.634.827 11.589.663 13.542 5.524 21.713-2.998 8.854-5.896 5.045-10.902 7.405-5.904-10.433-7.322-28.027-2.289-40.332"/><path fill="#c5c4f2" d="M1303.234 1686.78c4.151-.228 6.876-.44 11.028.309 10.02 5.11 14.598 12.256 18.677 30.045.963 10.466 2.299 22.608 2.435 33.057-13.79 1.465-30.342.635-44.34.553.899 14.388 1.98 21.175 7.158 33.008-2.398.407-3.525.228-5.887-.602-2.28 3.174-1.698 3.043-2.934 8.675-16.206-35.466-12.182-89.16 13.863-105.045m21.402 48.502c-1.08-12.11-1.544-21.289-7.621-29.134-3.189-4.183-7.222-5.73-11.083-4.248-9.611 3.809-12.936 18.457-14.944 33.691 9.666.863 24.055.782 33.648-.309"/><path fill="#ccd0f1" d="M1324.636 1735.282c3.07-1.074 2.044.358 3.543-3.467.118-10.774-.563-11.507 4.76-14.68.963 10.465 2.299 22.607 2.435 33.056-13.79 1.465-30.342.635-44.34.553l-.873-1.107c-2.943-.406-2.834-.618-5.332 2.28l-.781-2.898c.136-4.28.1-11.8 1.108-15.283l2.47 3.76c2.49-.342 1.436.406 3.362-1.905 9.666.863 24.055.782 33.648-.309"/><path fill="#c7c9f2" d="M1303.234 1686.78c4.151-.228 6.876-.44 11.028.309 1.272 3.467 2.071 6.022 3.17 9.684-4.941.781-7.249.456-12.218-.179-.218-5.176-.245-5.664-1.98-9.814"/><path fill="#c7c9f2" d="M1981.104 1701.037c-.209.098-.427.196-.645.293l-1.072.521c-26.762 12.842-7.794 85.4-15.307 101.465-3.416.341-4.942.911-8.267-.944-6.74-20.427 11.51-110.66-19.794-99.056-20.031 7.422-4.497 73.812-11.955 96.826-2.544 3.808-2.77 3.63-6.232 3.939l-1.399-2.377c-2.825-14.388-2.135-95.49-1.1-113.004 3.135-3.027 1.8-2.685 5.17-2.132 3.061 2.995 3.76 5.29 5.66 10.498 4.632-.619 8.166-6.999 12.645-9.798 13.862-8.708 18.968 10.058 24.89 14.73 6.523-1.058 10.584-3.467 17.406-.96"/><path fill="#c5c4f2" d="M1790.143 1802.827c-6.268-14.876 10.601-121.012-22.275-97.59-16.197 11.54-4.06 71.533-9.23 96.516-3.188 3.044-6.031 2.311-9.147-.504-.4-1.221-.8-2.425-1.2-3.646.71-22.103-1.507-87.89.319-106.56l1.99-2.375c3.351-.88 3.542-1.09 6.612.992 1.99 4.167 1.381 2.702 1.563 9.44 1.217 1.97 1.435.57 3.07-1.692 14.554-20.166 32.413-15.576 36.52 20.556 1.398 12.289.962 24.219.853 37.55.137 10.839 1.581 39.745-1.153 47.004-1.772.765-2.072.96-3.88 1.27z"/><path fill="#ccd0f1" d="m1795.04 1744.071.735 1.286.49-3.76 1.473 1.563c.617 4.329 1.026 7.942 1.48 12.353.137 10.84 1.581 39.746-1.153 47.005-1.772.765-2.072.96-3.88 1.27 2.39-18.49-3.515-43.539.855-59.717"/><path fill="#c7c9f2" d="M1790.143 1802.827c1.772-13.183-1.553-61.132 3.08-66.552 1.79 3.385 1.235 2.441 1.817 7.796-4.37 16.178 1.535 41.227-.854 59.717z"/><path fill="#c5c4f2" d="M2223.71 1708.964c-43.932-40.316-36.31 117.22-1.935 75.097 3.76-4.622 3.97-22.412 13.29-16.553 7.53 25.538-31.35 60.938-46.612 16.667-14.08-40.82-.581-110.546 28.07-97.102 9.003 2.148 27.708 26.708 17.933 42.48-6.095 1.253-9.902-11.214-10.747-20.59"/><path fill="#ccd0f1" d="M2216.524 1687.073c9.002 2.148 27.707 26.708 17.932 42.48-6.095 1.253-9.902-11.214-10.747-20.59-.89-9.635-5.25-10.497-10.038-13.932l.173-1.855 3.843-1.4c-1.427-3.01-1.227-1.383-1.163-4.703"/><path fill="#c5c4f2" d="M1101.063 1648.026c2.725-.081 9.547-.667 11.455 2.377-5.105 29.834-22.71 118.212-31.995 150.683-.709 2.49-6.559 2.295-9.257 1.123-3.17-10.091-8.748-39.258-11.246-51.449 4.024 2.116 4.151 5.323 8.23 9.375l1.236-1.643-.055-5.225 1.572-1.465 5.023 24.723c7.159-28.76 19.15-97.07 25.037-128.499"/><path fill="#c7c9f2" d="M1382.34 1658.427c4.506-.521 6.531-1.481 9.974 2.62 1.726 6.299.872 19.499.818 27.507 3.107.081 5.187.211 8.276.862 2.834 3.793 2.262 1.888 3.061 7.162l-1.635 4.02c-3.161 3.564-6.35 2.637-10.238 2.571.182 22.77-1.472 58.138 1.408 79.737 1.172 8.805 6.24 2.474 10.828 6.022 1.672 5.452 1.045 4.866.863 12.207-30.94 28.776-23.564-71.012-23.41-97.721-3.234-.196-5.223-.375-8.412-1.237-2.734-3.581-2.216-1.84-3.152-6.853l1.263-3.597c3.097-3.922 6.413-2.913 10.401-2.864z"/><path fill="#bfc4f5" d="M1387.527 1718.274c4.578 5.11 3.18 31.12.963 38.639-5.678-7.91-3.707-28.255-.963-38.64"/><path fill="#c7c9f2" d="M1530.323 1801.753c-2.28-2.034-4.388-4.606-6.277-7.65-13.8-22.428-13.781-69.905-1.19-93.733 4.805-9.196 11.491-14.486 18.523-14.632 11.31-.326 25.49 12.679 26.035 36.36.1 4.33-.227 3.89-1.835 6.413-11.419 1.205-8.012-16.845-16.179-23.763-23.655-20.036-28.58 41.846-22.502 68.49 2.153 9.456 6.54 13.77 11.128 16.504l.99.57.092 3.58-1.3.342-.844 1.253c-2.662 3.874-3.253 5.176-6.641 6.266"/><path fill="#ccd0f1" d="M1963.699 1701.998c5.496-10.759 11.092-16.407 19.277-16.358 29.324.18 21.202 63.9 22.22 97.77.136 4.769-.627 14.404-1.263 18.766-3.061 1.937-3.752 2.93-6.704 1.498-8.349-15.153 3.47-75.911-7.095-95.036-2.507-4.525-5.814-5.892-9.03-7.6-6.822-2.507-10.883-.098-17.405.96"/><path fill="#ccd0f1" d="M1216.951 1755.692c-.173-1.92-.3-3.857-.4-5.81-.826-16.016 1.808-34.147 7.65-46.631 4.714-10.189 11.545-16.52 18.913-17.513 8.72-1.123 14.789 4.525 21.03 14.502 3.407 7.47 7.385 17.903 5.641 27.995-8.884 6.412-10.401-13.851-15.225-22.25-15.534-8.968-21.602-1.27-27.108 25.147-7.004 10.742-1.062 18.131-4.76 29.475-3.18-.195-2.598-.846-5.741-4.915"/><path fill="#bfc4f5" d="M1264.144 1700.24c3.407 7.47 7.385 17.903 5.641 27.995-8.884 6.412-10.401-13.851-15.225-22.25 2.916 1.335 4.288 2.116 7.267 2.442 2.208-2.995 1.508-2.035 2.317-8.187"/><path fill="#c7c9f2" d="M1719.63 1688.13c4.625-.504 7.205-1.546 10.584 3.467.954 12.598.49 33.757.436 47.168a7584 7584 0 0 0 .109 64.29c-3.97.196-7.63 1.221-10.783-2.636-.863-9.847-.509-31.608-.454-42.725.1-22.445-.554-47.347.109-69.564"/><path fill="#c7c9f2" d="M1196.657 1687.903c3.46 1.448 2.907.179 4.505 4.166.527 12.337 1.445 103.678-.154 110.319l-3.134 2.116c-2.998-.488-4.542-.098-6.713-3.37-.99-17.854-.954-91.031-.327-109.114 1.48-3.434 2.934-2.978 5.823-4.117"/><path fill="#c7c9f2" d="M2160.192 1687.968c2.97.195 5.015-.326 7.386 2.669 1.925 21.989.009 84.96.136 110.026.009 1.871-.609 1.92-1.89 3.694-2.961-.244-5.269.017-7.976-2.067-1.635-14.241-.6-90.478-.418-109.44.028-2.913 1.009-2.978 2.762-4.882"/><path fill="#c5c4f2" d="M1216.951 1755.692c3.143 4.07 2.562 4.72 5.741 4.915 3.698-11.344-2.244-18.733 4.76-29.475-.6 25.195 1.717 79.654 27.617 52.799 4.033-4.167 4.006-20.638 13.726-16.715 4.088 9.602-4.642 25.716-9.193 31.136-5.86 6.998-13.073 9.342-19.94 6.494-14.254-5.664-20.467-24.935-22.711-49.154"/><path fill="#c5c4f2" d="M1059.03 1687.61a2721 2721 0 0 1 7.212 38.769c1.081 5.534 4.216 20.475 4.76 25.423l-1.571 1.465.055 5.225-1.236 1.643c-4.079-4.052-4.206-7.259-8.23-9.375l-2.171-9.977c-2.599-14.909-7.004-34.602-10.075-49.674l1.38-1.449c5.67 2.149 4.28 7.276 9.876-2.05"/><path fill="#c7c9f2" d="M1057.849 1740.783c.744-6.07 1.962-12.256 3.224-18.034l2.762 4.525 2.407-.895c1.081 5.534 4.216 20.475 4.76 25.423l-1.571 1.465.055 5.225-1.236 1.643c-4.079-4.052-4.206-7.259-8.23-9.375z"/><path fill="#c7c9f2" d="m1298.192 1783.752 1.108.993c20.267 17.903 20.903-10.938 31.859-4.9.79 2.36 1.508 3.06.963 5.42-4.715 20.427-22.139 22.82-31.214 18.1-4.297-2.165-8.248-6.12-11.537-11.54 1.236-5.632.654-5.501 2.934-8.675 2.362.83 3.489 1.009 5.887.602"/><path fill="#ccd0f1" d="m1547.82 1789.514.908-.88c9.43-9.358 8.267-23.567 17.832-21.549 3.398 9.31-6.204 27.702-10.52 32.308-8.811 6.983-16.424 8.333-25.717 2.36 3.388-1.09 3.979-2.392 6.64-6.266l.845-1.253 1.3-.342-.091-3.58z"/><path fill="#c7c9f2" d="m1547.82 1789.514.908-.88c9.43-9.358 8.267-23.567 17.832-21.549 3.398 9.31-6.204 27.702-10.52 32.308.836-3.239 1.627-5.224 1.282-8.659-6.541.326-5.033 3.679-9.503-1.22"/><path fill="#c5c4f2" d="M1854.187 1843.778c-9.947 7.877-28.397 7.926-35.401-11.247-1.181-3.239-.827-4.15-.282-7.568 4.797-5.355 10.002 2.376 14.48 6.754 3.852.684 7.704 1.205 11.565 1.58 5.332 1.285 5.977.194 9.175 5.956z"/><path fill="#c7c9f2" d="M1832.985 1831.717c3.851.684 7.703 1.205 11.564 1.58 5.332 1.285 5.977.194 9.175 5.956l.463 4.525c-5.105-.163-15.752.016-20.14-3.613l.073-1.628c-.99-1.611-1.59-1.856-2.816-2.718l.036-2.035z"/><path fill="#c7c9f2" d="M1039.271 1648.043c3.816-.293 8.103-.163 11.964-.18l7.795 39.747c-5.596 9.326-4.207 4.199-9.875 2.05l-1.38 1.449z"/><path fill="#0f1222" fill-opacity=".012" d="M1930.532 1364.887c3.316 2.55 2.852 1.145 4.478 5.705.373 28.304-3.552 29.548 1.009 58.503l-.99 1.006c-2.126-3.32-2.063-4.524-4.088-4.297-.845-7.334-.464-51.49-.41-60.917"/><path fill="#c5c4f2" d="M1193.205 1646.48c3.134-3.076 7.067-1.058 8.802 4.541 1.745 5.583.645 12.63-2.452 15.804-3.144 3.207-7.14 1.22-8.903-4.443-1.762-5.648-.618-12.793 2.553-15.902"/><path fill="#bfc4f5" d="M2159.81 1646.252c2.144-1.806 4.66-1.367 6.568 1.156s2.89 6.706 2.553 10.905c-.327 4.215-1.917 7.747-4.142 9.228-3.234 2.149-6.85-.667-8.185-6.38-1.336-5.696.081-12.272 3.206-14.909"/><path fill="#bfc4f5" d="M1721.956 1646.513c3.216-2.67 7.032-.163 8.53 5.582 1.5 5.746.119 12.598-3.088 15.3-3.225 2.718-7.059.228-8.567-5.55s-.109-12.647 3.125-15.332"/></svg>