<svg xmlns="http://www.w3.org/2000/svg" width="5000" height="5000" viewBox="0 0 5000 5000"><defs><linearGradient id="a" x1="556.33" x2="785.655" y1="1090.01" y2="938.958" gradientUnits="userSpaceOnUse"><stop offset="0" stop-color="#513acd"/><stop offset="1" stop-color="#a357ff"/></linearGradient></defs><path fill="url(#a)" d="M525.557 1042.67c7.048-39.59 11.254-79.723 18.702-119.599 9.927-53.152 11.943-108.78 44.261-154.765 23.985-34.128 67.459-34.304 88.592 2.072 38.788 66.767 46.703 153.305 58.237 228.713a2874 2874 0 0 0 16.328 93.959c6.479 34.3 13.128 68.22 22.57 101.83 1.438 5.12 3.579 12.62 4.424 17.74-2.658 8.6 5.74 25.58 2.019 34.72-8.708 6.02-42.534-27.31-58.19-26.73-10.398.38-9.047-37.61-21.638-51-3.983-6.23-13.003-62.07-14.988-71.75-8.382-40.88-13.408-83.48-20.885-124.549-9.075-49.851-16.098-101.9-32.173-150.04-13.377 30.845-17.224 67.118-22.575 100.166-9.157 56.554-14.32 116.643-26.826 172.413-1.56-.08-2.94-.16-4.429-1.36-17.367-13.96-34.595-29.66-50.587-45.18-1.311-1.27-2.395-4.98-2.842-6.64" transform="scale(2.44141)"/><path fill="#90f9f9" d="M3368.12 1880.374c33.765-104.216 164.039-64.502 153.174 33.823-4.32 39.06-19.067 75.574-32.812 112.32-21.24 86.953-56.47 192.312-82.886 280.176l-118.018 399.83c-19.385 64.306-62.475 182.373-73.266 243.628-13.6 48.413-45.435 173.291-71.314 209.62-36.597 35.79-61.01 38.793-107.935 18.7-60.4-31.86-22.9-128.076-4.736-175.268 15.21-54.15 37.158-130.274 55.737-182.13 3.882-25.878 29.541-102.27 37.989-129.638l71.07-232.496c40.356-127.485 74.316-260.676 116.625-388.128 5.396-38.93 42.554-152.751 56.372-190.437"/><path fill="#67aefa" d="M3111.577 2811.87c25.098-75 53.198-149.464 77.417-224.928 3.858-11.962 13.086-32.91 27.075-31.762 7.471 5.59 9.497 14.233 12.915 23.169l-8.154 27.612c3.052 11.28 2.979 14.063 10.352 22.534 9.74-.317 2.27-17.065 12.89-25.879 7.276 2.881 11.377 8.887 15.577 15.479 31.2 48.852-20.704 47.851-28.492 90.308 5.542 2.343 12.769-20.728 26.66-25 8.448 15.283-6.86 57.788-11.987 75.244l-.537 2.734c-8.276 40.576-47.803 151.539-49.17 187.159 6.714.561 6.445 1 12.207-2.344l5.982 3.955c-13.6 48.413-45.435 173.291-71.314 209.62-36.597 35.79-61.01 38.793-107.935 18.7-60.4-31.86-22.9-128.076-4.736-175.268 15.21-54.15 37.158-130.274 55.737-182.13-.537 11.866-3.003 26.466 4.663 35.523 5.298-16.186 10.62-30.981 20.85-44.726"/><path fill="#abd3fa" d="M3090.727 2856.596c5.298-16.186 10.62-30.981 20.85-44.726-9.058 41.943-23.315 86.474-36.499 127.441-18.408 57.3-50.293 129.078-52.32 188.794 7.813 16.773 21.631 33.033 12.305 50.367-60.4-31.86-22.9-128.077-4.736-175.27 15.21-54.15 37.158-130.273 55.737-182.128-.537 11.865-3.003 26.465 4.663 35.522"/><path fill="#9bddfa" d="M3030.327 3003.203c15.21-54.15 37.158-130.274 55.737-182.13-.537 11.866-3.003 26.466 4.663 35.523-4.15 23.975-33.325 122.608-52.148 143.702-.513.561-6.86 2.514-8.252 2.905"/><path fill="#9bddfa" d="m3245.83 2758.647-.537 2.734c-8.276 40.576-47.803 151.539-49.17 187.159 6.714.561 6.445 1 12.207-2.344l5.982 3.955c-13.6 48.413-45.435 173.291-71.314 209.62-8.398-7.032-8.081-9.18-9.448-19.752 14.77-31.128 19.336-78.686 27.71-112.158 11.645-46.46 28.467-94.629 42.87-140.454 10.743-34.229 23.658-101.563 41.7-128.76"/><path fill="#a6c1f8" d="M3022.759 3128.105c41.748 38.794 63.379 58.277 110.79 11.914 1.368 10.572 1.05 12.72 9.449 19.751-36.597 35.792-61.01 38.794-107.935 18.702 9.326-17.334-4.492-33.594-12.304-50.367"/><path fill="#c5fbf9" d="M3368.12 1880.374c33.765-104.216 164.039-64.502 153.174 33.823-4.32 39.06-19.067 75.574-32.812 112.32-25.903-47.89 43.604-94.331 1.904-175.228-12.842-6.127-19.629-9.086-31.396-17.583-17.285-.083-35.572.562-51.001 9.415l-1.66 4.272c10.424 8.948 50.732-9.277 69.336 8.418 31.25 29.72 12.963 85.259 6.2 122.947-5.908 32.903-11.865 69.072-22.363 101.143-.634-56.355.391-64.187 11.426-119.236-40.332-79.935-97.73-27.24-107.275 33.44-2.295 14.621-37.183 90.842-46.51 101.636l-4.003-1.375-1.392-23.555c5.396-38.93 42.554-152.751 56.372-190.437"/><path fill="#d8fbf9" d="m3368.12 1880.374 11.377 24.016c-6.982 26.792-53.735 174.392-66.357 189.976l-1.392-23.555c5.396-38.93 42.554-152.751 56.372-190.437"/><defs><linearGradient id="b" x1="815.2" x2="919.229" y1="1515.232" y2="1268.224" gradientUnits="userSpaceOnUse"><stop offset="0" stop-color="#252a65"/><stop offset="1" stop-color="#5b47d9"/></linearGradient></defs><path fill="url(#b)" d="M700.862 1169.61c12.591 13.39 11.24 51.38 21.638 51 15.656-.58 49.482 32.75 58.19 26.73 3.721-9.14-4.677-26.12-2.019-34.72 26.181 87.77 51.129 180.84 114.533 250.18 23.192 25.37 49.942 45.99 85.948 37.47 14.891-3.52 21.728-17.22 32.988-22.32l14.34-20.32c8.72 6.14 18.02 8.86 28 12.38.04 1.33-.27 2.14-.56 3.49l-.99-.29c2.28 1.68 2.52 1.12 5.89 1.33 4.42 1.15 9.18 3.92 10.28 4.17 7.44 1.02 12.41 2.58 18.99 6.57-4.35 7.13-7.49 12.12-12.49 18.75-15.9 27.44-57.11 58.99-88.819 63.62-121.314 17.73-194.632-120.09-232.511-214.06-24.15-59.91-40.092-121.64-53.408-183.98" transform="scale(2.44141)"/><path fill="#392c92" d="m2471.049 3608.282 35.01-49.61c21.289 14.99 43.994 21.631 68.359 30.225.098 3.247-.66 5.225-1.367 8.52l-2.417-.707c5.566 4.101 6.152 2.734 14.38 3.247-26.831 3.32-47.51-1.44-68.75-17.945a281 281 0 0 1-5.25-4.174c-15.087 17.09-18.261 23.437-39.965 30.444"/><path fill="#392c92" d="M2610.111 3610.137c18.165 2.49 30.298 6.3 46.363 16.04-10.62 17.408-18.286 29.59-30.493 45.777.561-9.302 4.028-24.585 5.883-34.204-8.618-9.986-14.282-16.48-21.753-27.613"/><path fill="#3eeaf6" d="M3616.949 2228.224c-23.34-35.398-26.172-87.078 7.178-117.33a78.18 78.18 0 0 1 57.593-19.729c50.097 3.206 85.79 46.612 116.382 81.382 79.052 71.888 151.904 152.098 227.197 227.596 88.599 88.826 113.257 130.208 16.284 227.034l-169.775 169.116c-46.656 46.607-95.948 101.075-150.05 137.77-27.075 18.383-76.171 11.4-97.192-13.233-49.072-57.544-23.56-98.12 20.654-141.163 80.665-78.54 156.153-160.474 238.575-235.693 4.468-5.494 17.139-17.676 22.656-23.316l-16.577-18.286z"/><path fill="#90f9f9" d="M3616.949 2228.224c-23.34-35.398-26.172-87.078 7.178-117.33a78.18 78.18 0 0 1 57.593-19.729c50.097 3.206 85.79 46.612 116.382 81.382 79.052 71.888 151.904 152.098 227.197 227.596 88.599 88.826 113.257 130.208 16.284 227.034l-169.775 169.116c-46.656 46.607-95.948 101.075-150.05 137.77-27.075 18.383-76.171 11.4-97.192-13.233-49.072-57.544-23.56-98.12 20.654-141.163 80.665-78.54 156.153-160.474 238.575-235.693 2.588 4.858 1.831 2.172 1.929 8.13-19.605 38.159-107.91 124.902-139.917 162.67-20.215 18.75-40.796 48.658-60.62 66.602-42.14 38.16-57.838 36.744-60.792 101.026 28.59 38.354 49.366 38.135 93.8 31.592 67.309-73.438 339.843-306.007 364.111-375.391 5.664-16.163 2.173-31.788-5.786-46.583-20.85-38.72-63.623-63.452-95.752-91.635-21.411-18.76-40.064-41.695-64.234-56.998-9.765-6.184-21.093-9.316-32.055-12.688-19.263 13.133-62.5 25.706-66.87 43.128-7.593 30.364 61.132 78.057 72.51 106.353 5.004 12.5 3.808 11.303-.245 22.192z"/><path fill="#d8fbf9" d="M3616.949 2228.224c-23.34-35.398-26.172-87.078 7.178-117.33a78.18 78.18 0 0 1 57.593-19.729c50.097 3.206 85.79 46.612 116.382 81.382-21.656-.266-22.193-18.2-40.162-27.053-20.166.49-17.163 1.743-32.031-13.394-165.21-25.149-66.455 62.054-108.96 96.124"/><path fill="#9e76f6" d="M2749.907 2146.551c30.688-31.877 54.004-51.028 100.952-52.234 40.259-1.033 74.316 34.234 71.802 74.163-4.224 66.648-63.135 107.852-105.005 151.78-63.062 66.15-136.084 125.178-192.847 196.614 20.044 33.594 55.737 66.162 83.472 95.215 34.594 31.934 66.601 65.6 99.731 99 23.73 23.925 51.71 48.241 73.511 73.461 48.12 46.167 55.322 118.116-7.397 154.493-47.34 35.205-107.813-27.051-137.867-58.252-22.705-19.288-51.123-50.977-71.29-73.047-17.553-14.698-29.442-27.979-44.897-44.654-47.412-45.312-93.97-91.528-139.575-138.623-98.54-103.198-67.932-137.793 24.414-225.992 23.901-22.827 48.218-49.714 73.071-72.88 14.844-20.643 60.425-63.099 80.176-80.177 17.872-25.542 67.823-74.013 91.749-98.867"/><defs><linearGradient id="c" x1="1162.196" x2="1122.229" y1="876.987" y2="946.203" gradientUnits="userSpaceOnUse"><stop offset="0" stop-color="#ace4f9"/><stop offset="1" stop-color="#a492fb"/></linearGradient></defs><path fill="url(#c)" d="M1126.36 879.226c12.57-13.057 22.12-20.901 41.35-21.395 16.49-.423 30.44 14.022 29.41 30.377-1.73 27.299-25.86 44.176-43.01 62.169-25.83 27.095-55.74 51.273-78.99 80.533 8.21 13.76 22.83 27.1 34.19 39-4.11 2.3-4.24 2.01-3.52 7.13-12.67-10.03-35.73-27.55-39.11-44.31-1.68-8.31 8.2-17.49 14.07-22.52 12.61-10.769 23.72-22.638 34.37-35.467 5.91-17.269 45.05-36.307 5.93-47.66-1.54-4.374-1.81-5.77-4.43-9.468-14.76-7.662-24.2 25.401-43.79 31.045-1.98 1.214-1.61 1.287-3.75 1.766l-13.14 2.136c6.08-8.455 24.75-25.845 32.84-32.84 7.32-10.462 27.78-30.316 37.58-40.496" transform="scale(2.44141)"/><path fill="#dfbffa" d="M2749.907 2146.551c30.688-31.877 54.004-51.028 100.952-52.234 40.259-1.033 74.316 34.234 71.802 74.163-4.224 66.648-63.135 107.852-105.005 151.78-63.062 66.15-136.084 125.178-192.847 196.614 20.044 33.594 55.737 66.162 83.472 95.215-10.035 5.615-10.352 4.907-8.594 17.407-30.933-24.487-87.232-67.26-95.484-108.179-4.101-20.288 20.02-42.7 34.35-54.98 30.787-26.292 57.911-55.269 83.912-86.59 17.969-12.949 41.773-39.06 57.324-55.28 26.49-27.647 132.423-113.885 117.408-152.083-13.501-10.093-30.591-.364-48.584-2.37-5.933-16.568-7.813-20.182-19.507-33.507-5.298.803-17.505.806-23.413.96-6.519 2.204-15.943 5.09-21.948 7.79-6.055 4.578-15.186 11.06-20.362 16.074-5.03-4.375-9.155-9.675-13.476-14.78"/><path fill="#d8fbf9" d="M2866.313 2107.484c10.303 4.485 18.09 6.743 25.66 14.868 2.904 8 3.515 7.959 1.513 16.52-19.19 16.993-46.094-2.743-64.38-2.365-5.298.803-17.505.806-23.413.96a2255 2255 0 0 1-23.609-9.324c27.002-7.937 56.47-16.958 84.229-20.66"/><path fill="#cfc4f0" d="M2749.907 2146.551c4.32 5.105 8.447 10.405 13.476 14.78-24.78 29.305-42.383 49.217-70.605 75.806-14.063 5.833-23.243 12.83-34.62 8.281 17.872-25.542 67.823-74.013 91.749-98.867"/><path fill="#dfbffa" d="M2658.158 2245.418c11.377 4.549 20.557-2.448 34.62-8.28-18.36 19.167-59.107 59.716-73.56 78.93-4.834 2.964-3.93 3.142-9.155 4.312l-32.08 5.214c14.843-20.642 60.424-63.098 80.175-80.176"/><path fill="#c5fbf9" d="M2805.693 2137.467c5.908-.154 18.115-.157 23.413-.96 11.694 13.325 13.574 16.939 19.507 33.506-10.547 1.514-16.43 3.51-24.756-1.74-7.764-25.342-16.577-21.76-40.112-23.016 6.005-2.7 15.43-5.586 21.948-7.79"/><path fill="#dd8cfc" d="m2577.982 2325.594 32.08-5.214c-18.627 18.855-38.94 36.899-57.055 55.573-52.393 53.982-165.274 137.747-78.76 213.675 58.814 51.611 106.128 114.795 165.405 166.04l-19.58 7.422c-47.412-45.312-93.97-91.528-139.575-138.623-98.54-103.198-67.932-137.793 24.414-225.992 23.901-22.827 48.218-49.714 73.071-72.88"/><path fill="#cfc4f0" d="M2708.28 2612.089c34.595 31.934 66.602 65.6 99.732 99 23.73 23.925 51.71 48.241 73.511 73.461-17.651-.805-29.785-8.764-46.802-15.356-25.537-18.067-113.843-115.235-135.034-139.698-1.758-12.5-1.44-11.792 8.594-17.407"/><path fill="#abd3fa" d="M2834.721 2769.194c17.017 6.592 29.15 14.55 46.802 15.356 48.12 46.167 55.322 118.116-7.397 154.493-5.2-10.791 1.293-17.676 6.787-27.588 32.3-68.897.756-94.385-46.192-142.261"/><path fill="#a6c1f8" d="M2735.136 2841.777c46.948 41.943 66.333 115.723 145.777 69.678-5.494 9.912-11.988 16.797-6.787 27.588-47.34 35.205-107.813-27.051-137.867-58.252 9.375-13.55 1.733-23.34-1.123-39.014"/><path fill="#cfc4f0" d="M2664.97 2807.744c17.725-.684 18.726-.83 35.18 3.344a2095 2095 0 0 1 34.986 30.689c2.856 15.674 10.498 25.464 1.123 39.014-22.705-19.288-51.123-50.977-71.29-73.047"/><path fill="#dfbffa" d="M2639.652 2755.668a849 849 0 0 1 60.499 55.42c-16.455-4.175-17.456-4.028-35.181-3.344-17.554-14.698-29.443-27.979-44.898-44.654z"/><defs><linearGradient id="d" x1="379.384" x2="482.761" y1="1127.731" y2="1011.508" gradientUnits="userSpaceOnUse"><stop offset="0" stop-color="#222767"/><stop offset="1" stop-color="#4f38b5"/></linearGradient></defs><path fill="url(#d)" d="M583.415 1095.85c-5.753 33.07-20.466 80.07-47.917 101.03-7.907 6.04-25.8 9.99-35.568 7.25-62.748-17.58-58.195-95.35-80.688-143.72-5.409-11.62-24.047-9.17-34.93-9.56-28.198-1-58.003 6.12-85.898.21-43.847-8.24-33.807-64.336 3.294-67.036 23.307-1.696 51.352 2.411 75.362.057 11.411-1.119 25.122-.136 36.66-.005 44.569.521 66.616 37.264 76.092 76.504 4.963 20.55 6.84 39.28 16.538 59.09 11.791-24.78 14.914-50.14 19.197-77 .447 1.66 1.531 5.37 2.842 6.64 15.992 15.52 33.22 31.22 50.587 45.18 1.489 1.2 2.869 1.28 4.429 1.36" transform="scale(2.44141)"/><path fill="#9e76f6" d="M2100.17 1503.059c32.37-94.505 101.857-230.132 194.948-275.528a182.56 182.56 0 0 1 141.55-8.115c148.858 53.042 219.195 283.013 255.695 422.322 15.673 59.888 50.366 143.983-24.048 177.042-34.742 15.437-89.942 1.865-101.514-35.376-36.792-119.4-55.835-245.596-126.053-352.01-13.593-20.6-49.016-70.142-78.901-53.523-47.59 26.462-103.745 141.868-113.68 191.592-4.709 14.634-12.319 41.157-17.851 54.5-21.238-7.383-151.836 18.01-169.004 6.362l14.17-50.232a1858 1858 0 0 1 24.687-77.034"/><path fill="#dd8cfc" d="M2100.17 1503.059c17.433 31.497-12.125 52.16-19.115 82.21 12.876 4.86 20.787 4.023 34.33 3.986 7.311-8.603 12.338-15.908 18.774-25.083 7.453 10.56 13.479 17.473 21.872 27.078 25.488 5.198 48.015 6.877 73.596 2.407 3.982-9.592 8.25-22.253 14.925-29.712l3.616 5.518c-4.71 14.634-12.32 41.157-17.852 54.5-21.238-7.383-151.836 18.01-169.004 6.362l14.17-50.232a1858 1858 0 0 1 24.687-77.034"/><path fill="#5346db" d="M1968.082 2632.792c8.828 26.807 20.014 117.408 30.3 132.52 9.55-8.252 2.595-11.939 11.895-15.503 8.916 3.857 11.577 6.518 19.372 12.598-1.523 13.916-5.217 34.692-1.094 47.339 11.287 10.4 31.377 28.906 45.181 34.814 18.457-10.767 8.025-27.954 42.932-8.691 10.938-1.758 14.138-6.739 21.614-15.406.542-.561 1.829-4.54 2.16-5.444-10.844-18.555-12.082-101.245-8.886-123.316 17.493 90.113 21.985 166.236 44.939 259.449a3522 3522 0 0 0 34.668 123.291c15.933 43.018 35.274 92.285 49.03 135.816 44.564 91.992 88.465 208.472 213.15 132.593 9.669-7.08 6.592-6.86 17.066-8.057 15.894 13.208 5.03 49.488-.879 66.773-30.786 65.771-82.759 106.69-157.898 102.417-85.366-11.01-163.418-113.721-196.197-186.622-102.84-168.261-157.41-491.114-167.353-684.57"/><defs><linearGradient id="e" x1="1007.4" x2="941.517" y1="1360.955" y2="1382.428" gradientUnits="userSpaceOnUse"><stop offset="0" stop-color="#0e1146"/><stop offset="1" stop-color="#332392"/></linearGradient></defs><path fill="url(#e)" d="M925.774 1314.92c18.253 37.68 36.235 85.39 87.306 54.31 3.96-2.9 2.7-2.81 6.99-3.3 6.51 5.41 2.06 20.27-.36 27.35-12.61 26.94-33.898 43.7-64.675 41.95l2.961-3.55c2.946-9.27-17.559-72.48-22.247-82.18-1.415 1.9-2.132 7.19-2.688 9.84-1.68-13.99-5.25-29.68-7.287-44.42" transform="scale(2.44141)"/><path fill="#0c1041" d="M2473.344 3342.852c9.668-7.08 6.591-6.86 17.065-8.057 15.894 13.208 5.03 49.488-.879 66.773-16.235-19.947-17.139-34.18-16.186-58.716"/><path fill="#6f5bf9" d="M2131.556 2691.703c17.493 90.113 21.985 166.236 44.939 259.449-12.07 13.696-15.007 47.778-27.375 64.185-3.045 4.028-6.143 9.448-5.674 14.575-9.283 11.182-10.899 12.793-24.756 16.064-23.821-8.862 18.181-42.529 7.917-64.697-15.75-10.791-55.346 14.941-38.303-45.142 3.86-13.623 18.364-11.694 29.47-13.427 21.585-3.394 7.53-8.692 15.686-18.995 5.11-.83 15.613-1.928 17.051-7.739 5.13-20.679-3.037-56.885-12.229-75.513.542-.561 1.829-4.54 2.16-5.444-10.844-18.555-12.082-101.245-8.886-123.316"/><path fill="#9e76f6" d="M2143.446 3029.912c-.47-5.127 2.63-10.547 5.674-14.575 12.368-16.407 15.305-50.489 27.375-64.185a3522 3522 0 0 0 34.668 123.291l-4.182 5.933-3.887-.122c-6.8-8.35-10.176-23.682-13.489-34.595-6.528-3.174-17.295 7.568-21.61 5.542-14.793-7.007-2.923-14.673-24.55-21.29"/><path fill="#392c92" d="M2135.435 3317.363c10.245 6.641 19.15 14.43 25.55 24.903 43.054 70.483 91.804 134.204 177.876 153.052l-7.229 8.667c-85.366-11.01-163.418-113.721-196.197-186.622"/><path fill="#9e76f6" d="M1968.082 2632.792a3142 3142 0 0 1 32.92-709.92c1.171 7.658 1.606 15.315 4.91 22.036a466 466 0 0 1 10.641-8.582c10.442 2.232 59.85 61.446 74.441 70.889 17.149 11.099 33.724 61.694 56.417 33.772-19.754 197.085-41.185 389.437-19.434 587.533 2.273 20.678 3.462 42.383 3.579 63.183-3.196 22.07-1.958 104.761 8.887 123.316-.332.903-1.619 4.883-2.16 5.444-7.477 8.667-10.677 13.648-21.615 15.406-34.907-19.263-24.475-2.076-42.932 8.691-13.804-5.908-33.894-24.414-45.18-34.814-4.124-12.647-.43-33.423 1.093-47.34-7.795-6.079-10.456-8.74-19.372-12.597-9.3 3.564-2.344 7.25-11.895 15.503-10.286-15.112-21.472-105.713-30.3-132.52"/><path fill="#d9ccbf" d="m3721.93 1357.356 27.075 95.217c16.528 37.202 52.612 81.956 90.185 95.369 4.786 1.701 32.35 15.251 35.23 18.008 10.693 26.46 26.929 13.122 35.913 25.549l-.806 11.265c-141.235 38.46-165.185 116.116-192.7 249.692-44.019-181.347-62.183-214.656-246.827-263.069 140.04-34.414 174.635-45.486 229.884-182.41 12.45-11.946 14.453-20.635 19.922-37.087-.269-3.203 1.391-9.072 2.124-12.534"/><path fill="#e7d2b9" d="m3721.93 1357.356 27.075 95.217c-30.738 8.005-22.68-65.923-29.2-82.683-.268-3.203 1.392-9.072 2.125-12.534"/><defs><linearGradient id="f" x1="876.921" x2="872.17" y1="740.052" y2="667.072" gradientUnits="userSpaceOnUse"><stop offset="0" stop-color="#fffffa"/><stop offset="1" stop-color="#e6a3fd"/></linearGradient></defs><path fill="url(#f)" d="M844.312 667.78c7.032 4.771 60.525-5.63 69.224-2.606-4.054 14.73-10.774 37.253-13.126 51.752-1.37 7.198-2.996 14.917-4.168 22.099a2223 2223 0 0 0-5.611 25.619 875 875 0 0 0-7.586 46.726c-.741 5.248-2.388 20.024-3.467 24.617-9.295 11.437-16.084-9.287-23.108-13.833-5.977-3.868-26.214-28.122-30.491-29.036a191 191 0 0 0-4.359 3.515c-1.353-2.753-1.531-5.889-2.011-9.026 3.335-27.664 8.855-53.11 14.906-80.207a1076 1076 0 0 0 9.797-39.62" transform="scale(2.44141)"/><path fill="#dd8cfc" d="M2001.002 1922.872c8.142-67.54 21.618-129.664 36.391-195.819 4.016 26.893 5.606 41.836 24.846 60.716-.534 9.311-2.253 18.33 2.168 26.201 7.154 5.298 16.077 4.224 25.03 3.626 11.66 5.788 2 4.44 16.76 15.236 10.415 7.62 14.517 10.166 25.845 16.51 36.208-2.41 19.507 4.223 42.353 17.468a2136 2136 0 0 0-18.52 114.077c-1.81 12.812-5.83 48.887-8.464 60.1-22.693 27.922-39.268-22.673-56.417-33.772-14.592-9.443-63.999-68.657-74.44-70.889a466 466 0 0 0-10.643 8.582c-3.303-6.721-3.738-14.378-4.91-22.036"/><path fill="#dfbffa" d="M2070.904 1807.918c51.487-10.086 54.675 19.265 117.19-3.655a5426 5426 0 0 0-13.699 62.547c-22.846-13.245-6.145-19.878-42.353-17.469-11.328-6.343-15.43-8.889-25.845-16.509-14.76-10.796-5.1-9.448-16.76-15.236-4.45-2.063-10.674-2.876-15.528-3.753z"/><path fill="#cfc4f0" d="M2198.27 1750.31c-3.345 17.574-7.314 36.419-10.176 53.953-62.515 22.92-65.703-6.43-117.19 3.655 12.957-11.08 28.118-17.913 43.618-24.436 5.56 5.72 11.82 13.786 19.068 15.368 9.897-4.33 17.868-8.283 28.696-7.255 3.11-.367 9.36 1.47 11.96-1.4 12.137-13.39 9.673-26.398 24.024-39.885"/><path fill="#dfbffa" d="M2135.53 1663.323c14.957 3.689 23.194 4.712 34.007 15.334l-.12 4.143c-5.573 4.956-10.239 4.773-17.697 5.899-13.199 15.151-12.076 12.624-34.817 17.217-6.272 1.264-13.88.241-19.082-3.792-.29-3.32-.655-4.949-.328-8.244-3.752-7.215-3.437-3.65-1.892-10.918 9.605-12.703 24.654-15.19 39.93-19.64"/><path fill="#cfc4f0" d="M2097.493 1693.88c17.754-3.47 36.14-5.618 54.227-5.181-13.199 15.151-12.076 12.624-34.817 17.217-6.272 1.264-13.88.241-19.082-3.792-.29-3.32-.655-4.949-.328-8.244"/><defs><linearGradient id="g" x1="1058.471" x2="1112.471" y1="1472.102" y2="1343.197" gradientUnits="userSpaceOnUse"><stop offset="0" stop-color="#413895"/><stop offset="1" stop-color="#6270e4"/></linearGradient></defs><path fill="url(#g)" d="M1026.48 1457.63c10.56-18.01 20.12-35.46 27.68-55 5.96-15.39 9.21-32.79 17.48-47.04 14.72-25.37 47.77-19.73 61.17 3.78.15 37.23-26.14 93.24-44.72 125.91-6.58-3.99-11.55-5.55-18.99-6.57-1.1-.25-5.86-3.02-10.28-4.17-3.37-.21-3.61.35-5.89-1.33l.99.29c.29-1.35.6-2.16.56-3.49-9.98-3.52-19.28-6.24-28-12.38" transform="scale(2.44141)"/><path fill="gray" d="M4722.712 4607.844c23.804 13.843 20.874 46.167 40.625 68.628 17.456 19.873 60.865 31.567 73.584 47.656-1.074 13.721-20.654 16.7-34.033 23.536-41.504 21.167-56.518 55.517-74.34 94.848-19.971-19.262-22.999-49.219-39.478-66.137-19.385-19.922-52.295-31.592-76.246-50.245l-2.587-2.05a1588 1588 0 0 0 18.53-8.399c58.032-26.831 72.437-49.34 93.945-107.837"/><path fill="#cfc4f0" d="M3310.576 1382.99c18.238-2.624 35.206 9.834 38.184 28.013 2.979 18.181-9.155 35.396-27.27 38.711a33.83 33.83 0 0 1-32.13-11.687 33.81 33.81 0 0 1-5.517-33.735 33.8 33.8 0 0 1 26.733-21.302"/><path fill="#e7d2b9" fill-opacity=".973" d="M3874.42 1565.95a1277 1277 0 0 1 90.088 22.842c-19.385 5.722-35.205 9.614-54.98 13.972l.805-11.265c-8.984-12.427-25.22.91-35.913-25.55"/><path fill="#e7d2b9" fill-opacity=".957" d="M3716.241 1323.205a3222 3222 0 0 0 5.689 34.15c-.733 3.463-2.393 9.332-2.124 12.535-5.47 16.452-7.471 25.141-19.922 37.087a1268 1268 0 0 0 16.357-83.772"/></svg>