<svg xmlns="http://www.w3.org/2000/svg" width="5000" height="5000" viewBox="0 0 5000 5000"><path fill="#ccd0f1" d="M2930.54 2126.844c33.976-8.734 82.977-1.17 118.206-2.507 128.924-4.886 258.775-10.81 266.551 288.327 6.087 234.297 4.197 446.582-160.774 460.248-29.705 3.57-76.29 2.19-107.485 1.81-70.186-.86-160.865 15.032-220.53-62.468-29.852-38.773-49.728-121.55-52.126-185.27-4.524-119.821-12.21-301.703 31.45-400.925 32.612-74.15 76.653-88.955 124.709-99.215m198.529 587.116c67.37-10.277 79.905-54.655 80.632-175.336.418-69.362 5.941-171.966-25.145-224.284-24.055-37.142-90.007-28.968-120.803-28.727-35.829.277-72.511-.908-107.922.775-75.072 14.779-73.4 69.531-77.107 183.695-7.813 240.332 25.509 251.657 149.618 244.43 28.561-1.663 69.386 1.768 100.727-.553"/><path fill="#ccd0f1" d="M4467.477 2662.944a431 431 0 0 0-.309 4.86c-20.603 196.644-130.723 216.032-224.055 207.956-87.663-7.585-217.805 37.428-279.379-106.716-32.521-79.091-31.976-185.433-31.795-278.974.255-100.166 1.508-211.654 44.895-286.185 41.733-71.674 108.249-80.398 163.372-79.86 21.257.205 42.66-.58 63.79.094 43.477 1.39 88.972-4.821 131.886 7.819 10.065 2.373 31.74 8.398 40.643 16.634 56.523 27.503 88.1 118.61 93.514 219.186 7.05 43.474 3.706 244.275-2.562 295.186m-176.363 51.025c71.548-15.634 75.073-69.358 76.69-190.491 1.254-93.073 4.76-226.638-65.734-234.961-59.847-5.209-123.492-4.082-183.648-1.911-61.483 9.766-77.362 51.315-79.397 161.973-1.09 59.176-3.397 144.736 9.557 199.726 18.913 80.349 84.81 65.997 126.744 65.957z"/><path fill="#bfc4f5" d="m4467.477 2662.944-3.652-1.777c-1.58-5.808-2.416-292.933-1.453-316.224l2.38 2.614c.69 10.826 1.163 12.164 5.287 20.201 7.05 43.474 3.706 244.275-2.562 295.186"/><path fill="#bfc4f5" d="M4335.882 2131.938c10.065 2.373 31.74 8.398 40.643 16.634l-1.508 4.27c-5.05.76-18.005-7.362-25.363-7.825-13.827-.869-27.635-.667-41.461-1.256l-2.126-2.507-2.053.798 1.726.27c2.507-4.294 24.855-9.587 30.142-10.384"/><path fill="#ccd0f1" d="M2655.432 1922.875c22.783-4.375 88.154-3.17 112.627 1.924 3.452.72 3.488 3.623 4.978 8.597-2.09 25.368-30.65 112.614-38.735 139.346l-79.161 262.568-97.256 323.773c-16.643 55.245-33.594 115.277-52.126 167.5-21.784 52.579-53.198 46.335-82.322 49.356-73.365 7.617-86.683-85.706-118.623-190.658l-83.848-279.26-95.149-317.276c-13.844-46.758-28.198-94.815-41.679-141.97-2.307-8.06-2.198-12.874-.436-20.045 12.428-8.445 98.983-8.005 113.445-3.35l4.342 5.387c4.034 8.998 34.466 115.726 39.08 131.442l115.535 392.794c7.758 26.23 60.81 215.459 70.712 221.22 13.663-6.077 60.03-183.213 70.313-218.56l111.664-377.95c10.865-36.774 33.848-121.807 45.44-151.775z"/><path fill="#bfc4f5" d="m2197.147 1923.38 4.342 5.387-1.072 7.165c-24.6 10.882-52.398 5.983-77.616 2.074 24.764-17.855 48.656-9.281 74.346-14.626"/><path fill="#ccd0f1" d="M3858.175 2863.253c-.563 1.482-3.034 5.446-3.852 6.872-16.188 10.892-251.798 3.294-288.009 4.567-38.299 1.348-105.377-23.694-134.374-81.328-48.838-96.999-40.099-224.756-40.68-346.83-.4-85.67 8.121-186.614 44.895-245.755 49.128-79.03 120.694-76.159 182.194-75.934l88.554.43c43.732.068 88.19-4.48 131.777-.723 5.705.491 13.154.527 17.024 9.05 4.796 10.556 3.834 103.606 2.998 121.494-.345 7.246-1.09 20.449-4.724 25.169-14.044 18.281-250.6-1.85-292.75 9.095-13.882 3.6-31.142 11.654-41.843 28.737-19.331 30.81-21.076 88.405-21.948 131.387-1.344 66.178-7.612 179.062 20.44 230.306 19.858 36.256 58.049 33.828 84.12 35.013 22.966-1.647 46.748-1.048 69.823-.902 59.03.374 118.168-1.198 177.162 1.032 5.468.205 9.247 7.074 12.082 14.85-.11 18.854-.872 107.165.817 121.833z"/><path fill="#bfc4f5" d="M3601.998 2714.803c22.965-1.647 46.747-1.048 69.822-.902 59.03.374 118.168-1.198 177.162 1.032 5.468.205 9.247 7.074 12.082 14.85-.11 18.854-.872 107.165.817 121.833l-3.706 11.637-5.56-3.235c.327-59.72-1.053-77.725-5.85-137.002-63.354-8.021-141.624 2.685-206.286-.746-14.226-.755-56.868 2.878-68.35-1.953 3.27-4.004 21.02-3.633 28.07-5.117z"/><defs><linearGradient id="a" x1="443.281" x2="553.642" y1="776.272" y2="693.29" gradientUnits="userSpaceOnUse"><stop offset="0" stop-color="#513ec7"/><stop offset="1" stop-color="#8f58ee"/></linearGradient></defs><path fill="url(#a)" d="M410.129 716.742c1.95-4.666 2.861-19.48 4.279-26.15 5.971-28.092 11.465-95.971 44.067-105.509 26.679-7.805 40.82 34.507 45.85 54.951.718 2.599 2.694 9.314 2.638 11.686 8.928 34.103 13.545 79.498 20.743 114.857 3.333 16.372 9.875 41.2 12.152 56.249-1.312 14.932 11.463 46.794 9.911 50.787-.143-.004-10.405-4.599-12.974-5.379-.104-3.85.553-3.414-1.411-5.605-8.034-.181-7.423 1.89-15.162-2.865-.631.951-1.192 1.815-1.8 2.788-.722-6.275-4.788-9.89-4.744-15.388 1.767-1.733 2.489-1.151 5.741-1.377l-.313-.936c-12.615-1.155-4.253-6.584-13.642-15.094-2.745-6.068-5.799-21.831-7.414-29.203-7.218-32.953-11.874-66.376-17.234-99.669a938 938 0 0 0-10.282-51.375c-1.192-5.404-2.34-14.075-6.878-16.976-6.57 4.745-11.089 58.672-14.18 70.13a143 143 0 0 0-4.215 2.287c-.743 6.18-4.067 29.819-6.092 34.671-2.693 1.07-3.237 1.543-6.038.759-1.865-4.593 1.991-4.621.386-10.442l-1.11-.358-2.214 3.045-.744-.48c-.095-3.712.55-3.779-1.267-6.071l-2.01.209c-1.34 3.209-1.001 2.031.099 6.121-10.642-.48-8.593 5.14-15.167 6.505-1.708-2.49-.498-16.603-.975-22.168" transform="scale(1.81686 3.25521)"/><path fill="#9075e7" d="M921.08 2121.485c-.235 10.046-.29 36.879-3.59 43.015-4.945-12.835-11.424-55.43-9.307-69.87 2.838 5.57 1.524 4.307 5.13 7.077l-.357-12.565 3.332-5.697c1.304 8.46 4.895 30.32 4.793 38.04"/><path fill="#7259e3" d="M1037.572 1844.936c1.027 26.572.013 31.042.097 54.124 8.03-9.827 3.001-25.485 9.567-24.414 4.777 6.065 3.387 2.178 4.928 11.237-2.22 12.018-2.835 9.01-.845 18.35 13.612 16.123 40.34-21.211 40.07 22.344l.653-4.974c3.063-1.875 3.899-4.454 5.867-8.884-5.604 40.781-10.78 96.966-14.548 139.056-4.568 70.612-8.828 124.587-10.02 195.954-4.677 150.866 2.424 277.585 16.52 425.876 2.014 9.769 4.063 16.826 3.698 27.119 6.97 33.87 10.634 75.768 17.78 110.83 30.036 130.606 19.34 150.6 95.338 212.738-5.184 28.799-10.941 52.871-28.916 62.044-14.714 7.51-35.605 1.071-48.166-14.534-56.338-69.99-81.25-217.982-95.998-331.934-30.629-147.49-27.938-575.209-10.668-732.836 2.512-36.728 8.76-130.856 14.643-162.096"/><defs><linearGradient id="b" x1="657.074" x2="611.663" y1="921.872" y2="927.044" gradientUnits="userSpaceOnUse"><stop offset="0" stop-color="#1b1a64"/><stop offset="1" stop-color="#453fac"/></linearGradient></defs><path fill="url(#b)" d="m568.892 841.687 3.131.812c5.587 9.772 14.516 51.096 23.25 63.673.527.759 4.869 2.236 6.067 2.603l-.049.948-2.809 1.075c.754 2.635.053 1.429 2.804 3.292l3.014.025c.938 3.095.703 3.994.544 7.304 1.861 3.816 3.506 5.085 6.508 7.961 8.204-6.479 6.328-11.794 7.579-21.253.422-3.191 4.335-5.303 1.809-8.395l-2.724-.626 1.375-2.731c-4.743 2.597-4.959 2.504-6.108 7.837l-1.157.239c-4.735-7.124 8.006-5.968 4.813-15.157-1.698 1.017-2.715 1.921-4.251 3.145l-.825-.545c.993-2.006 2.678-5.731 3.888-7.406-1.671.288-3.112.542-4.801.731-.25-2.133-.212-1.201.379-3.022 1.809-5.57.159-13.346.352-18.488 16.532 40.122 10.645 46.264 52.474 65.353-2.853 8.847-6.022 16.242-15.915 19.06-8.099 2.307-19.597.329-26.511-4.465-31.008-21.501-44.72-66.964-52.837-101.97" transform="scale(1.81686 3.25521)"/><path fill="#bd7af5" d="M1037.572 1844.936c1.027 26.572.013 31.042.097 54.124 8.03-9.827 3.001-25.485 9.567-24.414 4.777 6.065 3.387 2.178 4.928 11.237-2.22 12.018-2.835 9.01-.845 18.35 13.612 16.123 40.34-21.211 40.07 22.344l.653-4.974c3.063-1.875 3.899-4.454 5.867-8.884-5.604 40.781-10.78 96.966-14.548 139.056-13.35 14.896-6.48 33.565-9.628 58.434-1.422 11.247-3.577 21.472-5.187 32.751-8.07-6.751-5.409-24.277-4.733-37.852-2.409 4.58-2.385 7.839-2.963 13.803l-2.32 2.112c-3.78-6.78-4.824-24.567-5.983-34.97-6.036-12.13-4.924 2.343-15.142-7.986l-1.319-19.707-2.658-2.568c-.661 11.423-.372 13.158-3.95 22.093l-2.016-.394c-4.121-17.757-4.085-50.176-4.533-70.459 2.512-36.728 8.76-130.856 14.643-162.096"/><path fill="#9075e7" d="M1068.546 2142.96c1.61-11.28 3.765-21.504 5.187-32.75 3.147-24.87-3.722-43.539 9.628-58.435-4.568 70.612-8.828 124.587-10.02 195.954-8.826 18.184-5.794 54.616-5.658 80.15 1.112 22.9 1.087 100.397-5.429 118.564-3.304-16.41 4.933-78.164.438-93.29-1.615-5.434-23.819-7.175-22.15-33.149 6.94 2.712 6.814 7.198 15.424 8.763 6.421-5.843 4.259-2.275 7.75-13.408 2.654-31.471-.139-28.314-3.456-54.342-2.891-22.683 10.999-27.09 8.748-64.115l-1.625-3.672 2.222 3.594-3.197-2.617-2.936 3.594c-3.209-12.657 2.543-38.757 5.076-51.182l.198 7.75.69-1.458z"/><defs><linearGradient id="c" x1="586.855" x2="622.997" y1="1003.537" y2="890.016" gradientUnits="userSpaceOnUse"><stop offset="0" stop-color="#272a6b"/><stop offset="1" stop-color="#4946b4"/></linearGradient></defs><path fill="url(#c)" d="M539.858 822.826c4.555 11.491 10.805 37.198 14.419 49.056 24.039 78.884 95.933 185.248 140.524 46 1.008-3.154 2.942-8.181 4.497-11.1 6-15.262 40.616-3.298 32.676 15.332-.879 2.128-2.025 5.19-2.978 7.181-10.701 24.151-16.159 41.417-33.004 62.739-40.703 51.526-97.487 27.936-130.657-18.482-21.327-29.844-36.261-64.012-47.749-98.916-4.225-12.833-10.881-31.207-12.122-44.879 9.389 8.51 1.027 13.939 13.642 15.094l.313.936c-3.252.226-3.974-.356-5.741 1.377-.044 5.498 4.022 9.113 4.744 15.388.608-.973 1.169-1.837 1.8-2.788 7.739 4.755 7.128 2.684 15.162 2.865 1.964 2.191 1.307 1.755 1.411 5.605 2.569.78 12.831 5.375 12.974 5.379 1.552-3.993-11.223-35.855-9.911-50.787" transform="scale(1.81686 3.25521)"/><path fill="#7259e3" d="M1270.527 2951.766c10.9-49.681 73.793-10.736 59.367 49.909-1.597 6.927-3.679 16.894-5.41 23.375-15.422-4.755-15.12 13.806-36.637-13.753l-1.434.638c-5.303-3.086-5.598-3.874-10.118-10.27l-1.204-1.732-1.067 7.712-2.954 1.787c-1.421-5.674-.48-47.432-.543-57.666"/><path fill="#4550b6" d="m1287.847 3011.297 3.297-2.653c20.062 6.022 23.35 11.201 38.75-6.97-1.597 6.928-3.679 16.895-5.41 23.376-15.422-4.755-15.12 13.806-36.637-13.753"/><path fill="#82f2f1" d="m1540.236 2106.775.55-2.728c9.606-48.668 22.45-180.342 43.847-191.97 76.57-41.617 20.274 195.02 15.506 220.258-5.853 43.503-15.597 91.442-22.618 135.03l-64.82 391.722c-4.31 41.132-15.463 88.369-21.02 128.154-8.738 62.52-33.834 128.783-68.108 60.508-3.206-6.393-3.542-29.362-2.492-37.848 17.914-111.325 35.788-223.705 56.199-333.715a30264 30264 0 0 0 62.956-369.41"/><path fill="#5c90ec" d="M1493.26 2448.318c14.281 15.957 13.576 46.146 17.999 66.875l1.535 3.438-.645 5.622 6.766-8.194 2.867 1.302c.774 8.747 1.15 9.196-.343 17.894-2.162 15.674-5.026 30.674-4.18 46.449-4.434 13.486-6.78 31.347-9.272 46.582l-2.982 14.154-.27 16.842c2.223-4.528 1.288-2.904 4.738-5.322l3.228 5.127c-4.31 41.132-15.463 88.369-21.02 128.154-8.738 62.52-33.834 128.783-68.108 60.508-3.206-6.393-3.542-29.362-2.492-37.848 17.914-111.325 35.788-223.705 56.199-333.715.067 8.415-.013 10.83 1.099 19.304l2.166 1.78c5.815-9.857 10.221-34.83 12.716-48.952"/><path fill="#73caef" d="M1493.26 2448.318c14.281 15.957 13.576 46.146 17.999 66.875l-3.434 9.577c-2.673-20.361-2.357-25.605-10.047-40.498q-2.133 1.732-4.265 3.464c-20.646 84.863-34.763 163.34-51.491 251.692-5.527 29.193-26.023 144.05 19.88 116.817 11.226-6.66 20.372-73.558 23.64-95.212 6.182-21.465 6.026-47.288 6.743-71.315l-.034-.156 12.483-30.28c2.224-4.528 1.289-2.904 4.739-5.322l3.228 5.127c-4.31 41.132-15.463 88.369-21.02 128.154-8.738 62.52-33.834 128.783-68.108 60.508-3.206-6.393-3.542-29.362-2.492-37.848 17.914-111.325 35.788-223.705 56.199-333.715.067 8.415-.013 10.83 1.099 19.304l2.166 1.78c5.815-9.857 10.221-34.83 12.716-48.952"/><path fill="#66a7ee" d="M1485.9 2597.254c2.693 12.093 1.627 13.564 6.502 18.701 5.605-4.352 8.88-12.581 13.095-20.885l1.596 1.878c-.609 12.956-1.463 18.988.894 31.338l-2.982 14.154-.27 16.842-12.484 30.28.034.156c-.717 24.027-.561 49.85-6.742 71.315-7.914-20.188-12.798-34.12-10.26-60.205 2.555-31.048 3.944-65.729 5.13-97.096l1.663-1.64 2.876 7.45z"/><path fill="#73caef" d="M1495.05 2581.661c-.181 7.321-1.031 9.454.844 14.004 8.824-15.524 11.482-56.53 25.545-60.41-2.162 15.674-5.026 30.674-4.18 46.449-4.434 13.486-6.78 31.347-9.272 46.582-2.357-12.35-1.503-18.382-.894-31.338l-1.596-1.878c-4.215 8.304-7.49 16.533-13.095 20.885-4.875-5.137-3.809-6.608-6.501-18.701-1.973-6.283-1.466-2.865-1.01-10.772l1.062 2.933c.37-10.784.077-24.81 3.142-33.44 3.868 5.64 4.615 16.536 5.955 25.686"/><path fill="#4ccaf2" d="M1497.778 2484.272c7.69 14.893 7.374 20.137 10.047 40.498l3.434-9.577 1.535 3.438-.645 5.622 6.766-8.194 2.867 1.302c.774 8.747 1.15 9.196-.343 17.894-14.063 3.88-16.721 44.886-25.545 60.41-1.875-4.55-1.025-6.683-.844-14.004-.577-8.834 1.567-88.766 2.728-97.389"/><path fill="#a2eff4" d="m1540.236 2106.775.55-2.728c9.606-48.668 22.45-180.342 43.847-191.97 76.57-41.617 20.274 195.02 15.506 220.258l-3.348-7.24c.196-26.067 6.882-55.563 8.973-81.666 1.127-11.97-4.658-33.496-1.37-43.87 8.427-26.583 17.244-67.087-10.951-64.783-18.952 17.894-37.996 147.468-50.475 192.816l-1.824.87z"/><path fill="#42e2ef" d="M1493.26 2448.318c2.608-13.72 3.128-21.91 9.657-29.837 18.202-4.206 5.83 59.46 21.946 70.14 6.728 17.103-3.38 74.71-7.603 93.083-.847-15.775 2.017-30.775 4.179-46.449 1.493-8.698 1.117-9.147.343-17.894l-2.867-1.302-6.766 8.194.645-5.622-1.535-3.438c-4.423-20.729-3.718-50.918-17.998-66.875"/><path fill="#42e2ef" d="m1541.459 2186.638 1.795 4.053c.303 14.297 9.371 49.125 19.358 50.834l1.168-3.734c-.506-13.285-5.274-27.435-7.825-42.451 25.705 25.898 2.362 127.63-5.623 166.367-6.185 19.31-7.976 43.343-20.38 49.746l-4.037-6.748-8.464 5.54c-7.128-2.848-7.826-7.825-13.749-18.551 4.831-43.027 24.061-176.54 37.757-205.056"/><path fill="#9075e7" d="M1060.407 1705.88c3.22-52.796 40.95-161.927 63.557-195.466 39.113-58.027 86.752-33.109 118.677 40.209 20.157 46.289 92.57 310.205 49.81 358.395-36.01 40.583-57.106-63.6-56.505-110.716-43.673-261.95-80.826-266.049-124.204-6.263a2374 2374 0 0 0-7.858 63.828c-1.722 15.706-5.797 42.864-5.975 56.852-1.968 4.43-2.804 7.009-5.867 8.884l-.652 4.974c.269-43.555-26.46-6.221-40.071-22.344-1.99-9.34-1.376-6.332.845-18.35-1.541-9.06-.151-5.172-4.928-11.237-6.566-1.07-1.537 14.587-9.567 24.414-.084-23.082.93-27.552-.097-54.124l.3-2.494c1.614-15.537 3.056-28.857 5.25-44.163 4.396-26.198 11.187-68.744 17.285-92.4"/><path fill="#c5c4f2" d="m1102.53 1793.09-2.083-8.613c2.832-6.436 3.573-6.517 7.343-11.26l.295-4.274c-4.688-1.299-5.834-.036-8.574-4.818l5.378-4.502c4.85.928 2.645-.563 6.67 5.332-.053 9.193.049 17.897.183 27.084a2374 2374 0 0 0-7.858 63.828c-1.722 15.706-5.797 42.864-5.975 56.852-1.968 4.43-2.804 7.009-5.867 8.884l-.652 4.974c.269-43.555-26.46-6.221-40.071-22.344-1.99-9.34-1.376-6.332.845-18.35-1.541-9.06-.151-5.172-4.928-11.237-6.566-1.07-1.537 14.587-9.567 24.414-.084-23.082.93-27.552-.097-54.124l.3-2.494 4.97-4.74 5.246 2.882c2.706-7.093 4.864-15.101 7.084-22.764 13.389-4.356 21.074-9.915 38.285-14.974 1.141-3.044.754-1.836 1.675-4.954l.618-2.13z"/><path fill="#daa8f3" d="m1102.53 1793.09-2.083-8.613c2.832-6.436 3.573-6.517 7.343-11.26l.295-4.274c-4.688-1.299-5.834-.036-8.574-4.818l5.378-4.502c4.85.928 2.645-.563 6.67 5.332-.053 9.193.049 17.897.183 27.084a2374 2374 0 0 0-7.858 63.828l-1.377-6.12c-7.177-10.11-7.905-14.681-17.05-20.697l1.558-.433c-12.179-5.179-13.09-1.445-24.675-.738l-2.357-2.48c-5.9 11.457-4.896 13.918-11.895 15.185 2.706-7.093 4.864-15.101 7.084-22.764 13.389-4.356 21.074-9.915 38.285-14.974 1.141-3.044.754-1.836 1.675-4.954l.618-2.13z"/><path fill="#bd7af5" d="m1060.407 1705.88 3.51 1.566c2.1 21.829-14.146 56.787-9.22 79.847l1.816 1.39c.505-12.07-.614-12.881 2.784-20.678l1.46 2.683-1.386 16.276c8.052 2.457 10.578-5.101 20.027.163 7.68-2.42 10.518 4.655 14.06 15.719-17.212 5.059-24.897 10.618-38.286 14.974-2.22 7.663-4.378 15.67-7.084 22.764l-5.247-2.881-4.969 4.74c1.614-15.538 3.056-28.858 5.25-44.164 4.396-26.198 11.187-68.744 17.285-92.4"/><defs><linearGradient id="d" x1="329.4" x2="405.29" y1="787.232" y2="704.499" gradientUnits="userSpaceOnUse"><stop offset="0" stop-color="#272c6c"/><stop offset="1" stop-color="#513bba"/></linearGradient></defs><path fill="url(#d)" d="M410.129 716.742c.477 5.565-.733 19.678.975 22.168 6.574-1.365 4.525-6.985 15.167-6.505-1.1-4.09-1.439-2.912-.099-6.121l2.01-.209c1.817 2.292 1.172 2.359 1.267 6.071l.744.48 2.214-3.045 1.11.358c1.605 5.821-2.251 5.849-.386 10.442 2.801.784 3.345.311 6.038-.759 2.025-4.852 5.349-28.491 6.092-34.671a143 143 0 0 1 4.215-2.287c-2.718 24.498-7.505 51.605-13.176 75.432-4.841 20.335-13.751 54.457-40.965 50.333-27.383-3.896-32.854-36.038-38.368-58.244-2.427-8.281-2.489-19.487-12.605-22.11-19.824-5.141-79.387 15.094-73.59-22.559 3.078-19.991 45.995-11.176 60.966-12.792 22.093-2.384 39.69-.051 49.725 21.674 7.922 13.231 8.872 37.588 15.538 46.071l.969.226c4.921-5.19 9.229-52.982 12.159-63.953" transform="scale(1.81686 3.25521)"/><path fill="#42e2ef" d="M1767.42 2382.195c-27.987-54.857-57.417-106.663-86.966-159.043-14.11-24.173-29.266-56.416-18.369-92.731 11.083-36.92 37.439-41.4 53.565-12.871 38.685 68.434 77.097 138.551 115.763 207.168 12.119 21.484 28.979 55.433 25.963 87.988-1.126 12.972-4.088 25.212-8.594 35.567-10.828 24.54-127.195 229.053-136.242 239.684-8.781 10.397-19.595 13.718-29.808 9.15-6.243-2.906-9.91-7.783-13.997-16.315-11.602-14.355-10.107-42.796-7.787-64.16 7.022-21.201 66.317-120.586 80.807-146.295 10.381-21.534 26.615-40.105 31.259-64.086 1.677-8.655-2.786-16.767-5.594-24.056"/><path fill="#a2eff4" d="M1767.42 2382.195c-27.987-54.857-57.417-106.663-86.966-159.043-14.11-24.173-29.266-56.416-18.369-92.731 11.083-36.92 37.439-41.4 53.565-12.871 38.685 68.434 77.097 138.551 115.763 207.168 12.119 21.484 28.979 55.433 25.963 87.988-1.126 12.972-4.088 25.212-8.594 35.567-10.828 24.54-127.195 229.053-136.242 239.684-8.781 10.397-19.595 13.718-29.808 9.15-6.243-2.906-9.91-7.783-13.997-16.315 10.116 1.774 25.073 21.036 35.701 2.028 45.137-80.716 90.018-161.927 136.298-240.599 4.015-6.83 7.085-11.663 7.794-21.312 5.25-72.281-24.31-70.566-46.548-108.798-2.253-4.07-3.027-7.787-7.789-15.176l-8.957 1.97c3.615-9.174 2.994-4.324 2.41-14.812-11.267-11.24-19.321-32.858-30.735-46.637l-.96-10.219c-3.976 4.118-5.459 9.017-8.171 15.658-7.86 4.147-9.884.973-16.792-7.142-8.232.902-14.604 3.545-21.092-6.208l-3.005 5.765 1.519 2.5c10.187 16.921 49.362 89.099 51.166 108.132 7.104 7.256 6.939 15.17 10.464 31.556z"/><path fill="#82f2f1" d="M1759.574 2345.942c-14.104-29.83-86.724-138.698-81.735-172.826 6.963-10.957 28.932-14.703 38.056-14.954 9.993-.277 63.301 94.385 73.432 112.214 3.163 5.566 14.719 23.2 14.746 30.162-5.572-5.42-10.97-10.631-16.43-16.445-11.266-11.24-19.32-32.858-30.734-46.637l-.96-10.219c-3.976 4.118-5.459 9.017-8.171 15.658-7.86 4.147-9.884.973-16.792-7.142-8.232.902-14.604 3.545-21.092-6.208l-3.005 5.765 1.519 2.5c10.187 16.921 49.362 89.099 51.166 108.132"/><path fill="#82f2f1" d="M1660.948 2616.632c7.022-21.201 66.317-120.586 80.807-146.295l3.659 8.935c-2.486 9.704-13.541 24.19-18.692 34.531-18.272 36.69-39.513 88.37-63.114 114.31-2.355-6.1-1.6-3.912-2.66-11.48"/><path fill="#9075e7" d="M1279.578 2214.995c18.023-33.988 49.984-111.866 77.698-114.196 8.912-.75 21.07 5.787 27.408 17.073 4.938 8.796 6.502 20.86 6.051 33.008-2.481 66.98-94.32 190.615-120.55 248.88l1.45 3.164c21.648 46.83 52.004 95.098 75.469 137.999 23.115 42.265 60.933 91.588 27.098 152.79-25.758 46.591-93.21-101.749-107.24-127.68-20.158-31.074-41.42-72.545-59.78-106.94-32.756-61.36-9.18-102.025 17.61-147.106 18.778-31.595 35.998-66.061 54.786-96.992"/><path fill="#bfc4f5" d="M1279.578 2214.995c18.023-33.988 49.984-111.866 77.698-114.196 8.912-.75 21.07 5.787 27.408 17.073 4.938 8.796 6.502 20.86 6.051 33.008-2.481 66.98-94.32 190.615-120.55 248.88l1.45 3.164c21.648 46.83 52.004 95.098 75.469 137.999 23.115 42.265 60.933 91.588 27.098 152.79-25.758 46.591-93.21-101.749-107.24-127.68l1.279-11.634c4.577 8.939 14.651 21.885 20.516 31.15 18.744 28.743 34.59 62.424 51.699 93.938 7.056 10.807 24.81 12.318 30.634-1.514 20.07-47.653-4.482-78.486-20.43-107.721a11987 11987 0 0 0-52.655-95.469c-11.697-20.742-26.212-43.922-36.24-66.748l-1.487-3.434c17.1-48.434 54.313-87.738 65.766-138.246 6.054-26.692 34.363-53.62 44.503-76.321l-3.16-3.207-2.146 3.77-3.991-5.277.329-7.363c-10.446-11.351-8.794 14.746-32.348 7.672l-7.035-5.374-1.831 2.467c-3.074 4.083-5.338 6.68-9.135 7.93-7.491 16.143-16.923 26.85-26.47 38.945-4.22-6.093-2.936-4.365-5.182-14.602"/><path fill="#66a7ee" d="M1311.23 2190.652c8.426-21.94 15.21-44.785 31.399-48.786 7.558 11.986-8.603 35.336-13.398 43.763l-7.035-5.374-1.831 2.467c-3.074 4.083-5.338 6.68-9.135 7.93"/><path fill="#bd7af5" d="M1279.578 2214.995c2.246 10.237.961 8.509 5.182 14.602l-1.67 3.9c-20.374 46.65-82.718 126.341-81.126 175.446 1.379 42.497 53.15 100.004 66.277 145.456l-1.28 11.634c-20.157-31.074-41.418-72.545-59.78-106.94-32.755-61.36-9.18-102.025 17.612-147.106 18.777-31.595 35.997-66.061 54.785-96.992"/><path fill="#c7c9f2" d="M4257.757 3583.465c-4.16 4.558-13.972 16.374-18.369 19.304-89.407 59.603-93.568-266.309-7.103-225.977 9.901 4.59 16.079 11.719 25.436 19.596l2.616-16.08c5.123-6.999 11.864-5.567 16.697 1.92 6.777 50.684.563 172.559.618 230.437.09 76.595-45.476 103.06-81.196 74.642-6.468-4.623-12.082-11.817-16.315-21.778-1.472-11.816-2.326-9.765-.128-18.717 9.575-8.366 24.092 16.08 42.06 20.377l2.508.586c30.614-9.472 32.031-35.449 33.176-84.31m-25.273-5.208c25.473-16.178 26.726-40.82 27.017-85.45.345-53.645-7.994-93.066-42.86-87.174-37.5 31.771-37.536 177.312 15.843 172.624"/><path fill="#ccd0f1" d="M4196.456 3687.307c-6.468-4.623-12.082-11.817-16.315-21.778-1.472-11.816-2.326-9.765-.128-18.717 9.575-8.366 24.092 16.08 42.06 20.377l2.508.586c5.469 2.897 8.576 1.628 14.226.423l4.651 4.362-.236 7c-7.849 10.058-26.526 5.5-35.92 2.766a76 76 0 0 1-5.74-1.888z"/><path fill="#bfc4f5" d="M4260.337 3380.308c5.123-6.999 11.864-5.567 16.697 1.92-5.632 8.561-1.763 8.269-5.051 25.814-5.923 4.818-3.07 4.427-8.703 3.255-2.216-7.324-.8-18.066-.254-26.92z"/><path fill="#c7c9f2" d="M3382.448 3382.944c-1.126-24.934-1.78-76.562.364-100.65 4.233-5.958 14.226-4.46 20.294-4.33.163 70.768 2.017 172.591-.145 240.885.181 18.718 1.417 67.35-.782 83.106-14.117 11.621-16.95 7.194-20.403-14.356-8.012 3.972-11.283 13.445-17.533 17.22-35.755 21.42-57.83-15.624-67.605-70.442-2.853-30.534-3.416-59.017.654-89.225a443 443 0 0 1 1.2-7.292c9.501-53.093 34.629-78.158 64.498-58.268 6.177 4.101 11.192 10.384 17.369 14.485zm-63.59 152.93c10.61 57.878 57.65 55.274 62.845-2.344l.545-98.502c-22.62-43.425-46.457-50.814-61.482 8.659-5.814 22.981-3.289 34.244-5.887 54.98 1.272 12.142 2.471 25.228 3.98 37.207"/><path fill="#bfc4f5" d="M3297.292 3445.152a443 443 0 0 1 1.2-7.292c9.501-53.093 34.629-78.158 64.498-58.268 6.177 4.101 11.192 10.384 17.369 14.485l2.09-11.133c.89 5.241 1.616 5.665.762 9.05-4.596 18.197-1.253 29.036-.963 43.034-22.62-43.425-46.457-50.814-61.482 8.659-5.814 22.981-3.289 34.244-5.887 54.98 1.272 12.142 2.471 25.228 3.98 37.207l-2.599 6.673c-10.01 1.237-11.428-6.38-19.622-8.17-2.853-30.534-3.416-59.017.654-89.225"/><path fill="#ccd0f1" d="M3297.292 3445.152c4.033-5.014 5.487-7.487 10.32-9.766 12.01 8.952 2.162 44.596 7.267 63.281 1.272 12.142 2.471 25.228 3.98 37.207l-2.599 6.673c-10.01 1.237-11.428-6.38-19.622-8.17-2.853-30.534-3.416-59.017.654-89.225"/><path fill="#c5c4f2" d="M3649.545 3389.292c18.714-24.707 42.569-20.996 60.501 4.004l3.616 3.646c3.416-14.583 5.178-20.41 14.77-23.73 2.635 2.473 4.87 3.385 5.215 10.058 3.343 66.243.89 134.473 1.327 201.14.272 40.982-1.708 86.1-26.6 103.157l-.926-9.05c-6.395-11.523-7.685-9.342-18.35-11.914 24.291-19.205 24.31-38.346 25.054-82.324-1.562 2.311-3.143 4.557-4.778 6.706-16.497 21.875-26 21.973-45.04 17.122l-7.286-3.776c-37.463-45.02-42.678-164.746-7.503-215.039m65.007 152.279c.273-32.227 4.542-98.308-8.448-120.866-2.617-4.525-10.556-11.719-14.299-14.942l-17.006.359c-37.01 30.143-37.99 143.261.527 170.833 14.953 10.71 31.777-11.589 39.226-35.384"/><path fill="#bfc4f5" d="M3649.545 3389.292c18.714-24.707 42.569-20.996 60.501 4.004-8.52 10.807-14.28 6.966-24.6 4.102l6.922 4.655-.563 3.71-17.006.359-2.543-2.995 5.468-4.688c-4.742-6.966-11.373 6.999-19.949-.097l-1.035-7.325c-4.161 4.265-4.67 9.506-7.831 17.513-.49-7.063.618-7.877.636-14.843z"/><path fill="#ccd0f1" d="M3657.048 3604.331c9.993-19.694 1.472-16.927 7.813-22.298 6.286 2.279 17.696 7.064 20.948 17.546-5.668 4.166-15.261 6.64-21.475 8.528z"/><path fill="#c5c4f2" d="M2250.381 3576.304c-21.348-53.45-23.274-148.34 10.265-184.994 84.92-92.806 135.447 165.332 46.548 217.383-25.581 4.492-37.972.065-56.813-32.39m56.595-.065c10.175-11.784 17.278-20.964 21.221-43.62 4.106-23.21 5.542-74.772-2.87-95.703-32.922-81.804-81.977 5.566-66.734 83.529 3.78 19.4 3.78 22.656 10.247 40.201 11.065 15.886 16.17 20.085 31.45 17.123a99 99 0 0 0 6.686-1.53"/><path fill="#ccd0f1" d="m2250.381 3576.304 1.98-8.757c6.886-4.752 9.103-5.143 16.48-6.9 11.064 15.885 16.17 20.084 31.45 17.122a99 99 0 0 0 6.685-1.53l.11 5.143-5.815 7.91.818 2.311 6.722-2.246-.4 6.055c-3.379 2.8-5.05 4.167-8.648 6.315l7.431 6.966c-25.581 4.492-37.972.065-56.813-32.39"/><path fill="#bfc4f5" d="M2338.59 3461.72c12.354 11.1 6.613 58.464 2.688 77.572-3.415-3.678-3.252-3.288-5.541-9.082-1.036-22.721.654-46.094 2.853-68.49"/><path fill="#c7c9f2" d="M3228.142 3608.4c-83.085 27.702-101.162-189.844-31.359-231.803 8.594-5.176 19.859-3.614 28.997-2.995 15.535 9.18 26.181 18.132 35.411 44.043 10.683 31.934 12.682 66.862 9.32 103.385-5.632 44.076-16.37 75.652-42.369 87.37m19.186-78.906c3.416-34.245 3.707-59.538-3.542-92.155-9.775-27.507-16.225-29.525-33.14-34.408-32.849 17.676-40.225 70.671-32.304 126.628 4.888 34.44 19.023 48.568 38.045 51.367 19.859-11.523 22.929-17.415 30.941-51.432"/><path fill="#ccd0f1" d="M3261.191 3417.645c10.683 31.934 12.682 66.862 9.32 103.385-7.303 7.553-5.832 17.741-12.082 21.452-5.523-4.687-6.45-5.892-11.1-12.988 3.415-34.245 3.706-59.538-3.543-92.155 3.088-6.283 10.646-10.547 17.405-19.694"/><path fill="#bfc4f5" d="M3247.328 3529.494c4.652 7.096 5.578 8.3 11.101 12.988 6.25-3.71 4.779-13.9 12.083-21.452-5.633 44.076-16.37 75.652-42.37 87.37-.472-9.082 1.054-12.565 3.961-19.759-6.395 4.037-18.695 4.85-25.145 1.01l-.091-4.46 9.066-.13.454-4.135c19.859-11.523 22.929-17.415 30.941-51.432"/><path fill="#bfc4f5" d="M3225.78 3373.602c15.535 9.18 26.181 18.132 35.411 44.043-6.759 9.147-14.317 13.411-17.405 19.694-9.775-27.507-16.225-29.525-33.14-34.408 6.613-1.53 7.867-4.882 13.717-6.673l1.2-.358c-1.018-5.11-1.981-8.496-3.29-13.346z"/><path fill="#c7c9f2" d="M2874.036 3608.889c-74.636-43.946-52.78-256.576 21.021-236.133 58.503 16.21 68.75 168.261 19.84 227.734-17.15 10.189-22.801 10.905-40.86 8.399m33.085-40.072c12.082-21.191 17.497-41.146 17.406-71.29-.418-142.154-78.834-115.266-75.127 9.93 1.29 43.13 16.806 67.675 40.516 72.297 4.778-2.083 12.373-7.682 17.205-10.937"/><path fill="#ccd0f1" d="M2889.916 3579.754c4.778-2.083 12.373-7.682 17.205-10.937l7.522 4.785c2.653 11.524.49 13.574.255 26.888-17.152 10.189-22.802 10.905-40.862 8.399 6.632-22.982 12.846-7.357 20.567-19.922-4.124-6.055-7.376-4.33-13.663-4.98l4.034-1.238c1.235-2.669 2.144-1.92 4.942-2.995"/><path fill="#84868d" d="M4794.585 4476.955c7.576 6.218 6.83 16.895 10.628 30.372 25.146 88.9 38.336 95.247 84.611 128.483-59.484 47.558-66.17 45.182-91.588 157.584-10.465-14.583-16.733-68.75-34.629-100.488-16.788-29.785-44.531-39.909-50.89-55.436l.945-6.576c7.812-11.588 13.553-12.337 22.529-19.987 32.467-27.669 46.711-77.571 58.394-133.952"/><path fill="#c6bcb3" d="M1659.49 1716.902c33.969-40.706 37.499-86.937 46.538-155.905 11.27 131.803 29.11 158.522 100.518 185.296-50.645 21.006-79.759 36.257-94.951 134.32-2.257 16.23-4.239 34.02-6.254 50.475-3.68-25.146-5.549-46.084-9.985-71.924-10.533-46.4-17.898-61.598-41.32-86.55-17.496-12.85-31.778-18.072-49.994-24.475 22.98-10.866 33.957-15.482 55.449-31.237"/><path fill="#9aacb7" d="M1604.042 1748.139c22.98-10.866 33.957-15.482 55.449-31.237-6.208 17.845-12.633 19.368-24.31 28.672 2.437 4.984 4.254 7.207 7.13 11.181 7.943-.397 4.847-2.197 11.506 7.66l.22 8.2c-17.497-12.852-31.78-18.073-49.995-24.476"/><path fill="#c5c4f2" d="M4111.681 3413.283c-39.644-37.63-48.383 42.415-65.752 29.264-1.417-4.46-3.088-7.291-2.616-12.044 4.996-50.977 34.684-57.324 55.196-56.966 56.395 13.249 39.971 101.758 41.679 174.74.418 17.578 1.835 35.253 3.615 52.571-12.972 17.253-26.726-9.863-25.835-10.514-23.747 17.252-46.403 37.37-68.641-1.335-11.81-20.866-14.644-56.054-4.579-80.664 14.39-56.51 48.492-29.525 67.95-41.08 10.048-16.472 4.161-35.222-1.017-53.972m-40.552 160.905c21.185 11.133 30.305.326 47.438-20.052l.454-58.236c-23.164-.065-47.783-8.724-58.938 34.864 1.653 23.177 1.326 27.083 11.046 43.424"/><path fill="#bfc4f5" d="M4111.681 3413.283c-39.644-37.63-48.383 42.415-65.752 29.264-1.417-4.46-3.088-7.291-2.616-12.044 4.996-50.977 34.684-57.324 55.196-56.966-2.725 1.66-1.835.098-2.98 3.939l-1.344 1.074 6.086 1.042 1.545 4.199c-3.67 3.776-8.013 2.278-12.482 1.953l-.418 3.45c12.064 14.193 19.604-11.132 23.801 16.179z"/><path fill="#ccd0f1" d="M4044.748 3508.335c5.814-3.71 8.612-5.729 14.063-10.84 2.67 8.138 1.017 21.485 1.272 33.269 1.653 23.177 1.326 27.083 11.046 43.424-5.996 17.708-11.791 10.091-21.802 14.811-11.81-20.866-14.644-56.054-4.579-80.664"/><path fill="#c5c4f2" d="M2606.467 3373.57c8.303-.456 13.754-.88 22.057.618 20.04 10.221 29.197 24.512 37.355 60.091 1.926 20.931 4.596 45.215 4.869 66.113-27.58 2.93-60.683 1.27-88.681 1.107 1.799 28.776 3.96 42.35 14.317 66.016-4.797.814-7.05.456-11.773-1.205-4.56 6.348-3.398 6.088-5.869 17.35-32.413-70.93-24.364-178.32 27.725-210.09m42.806 97.005c-2.162-24.22-3.09-42.578-15.244-58.269-6.377-8.365-14.444-11.458-22.166-8.496-19.222 7.618-25.872 36.914-29.887 67.383 19.331 1.725 48.11 1.563 67.297-.618"/><path fill="#ccd0f1" d="M2649.273 3470.575c6.14-2.149 4.088.716 7.085-6.934.237-21.55-1.126-23.014 9.52-29.362 1.927 20.931 4.597 45.215 4.87 66.113-27.58 2.93-60.683 1.27-88.681 1.107l-1.744-2.213c-5.887-.814-5.669-1.237-10.665 4.557l-1.563-5.794c.273-8.562.2-23.6 2.217-30.567l4.942 7.52c4.978-.684 2.87.814 6.722-3.809 19.331 1.725 48.11 1.563 67.297-.618"/><path fill="#c7c9f2" d="M2606.467 3373.57c8.303-.456 13.754-.88 22.057.618 2.544 6.934 4.142 12.044 6.34 19.368-9.883 1.563-14.498.912-24.436-.358-.436-10.351-.49-11.328-3.96-19.629"/><path fill="#c7c9f2" d="M3962.208 3402.085c-.418.195-.854.39-1.29.586l-2.144 1.042c-53.524 25.683-15.588 170.8-30.614 202.93-6.831.683-9.883 1.822-16.533-1.889-13.481-40.852 23.02-221.321-39.59-198.112-40.061 14.844-8.993 147.624-23.91 193.653-5.087 7.617-5.54 7.259-12.463 7.877l-2.798-4.752c-5.65-28.776-4.27-190.983-2.198-226.01 6.268-6.054 3.597-5.37 10.338-4.264 6.122 5.99 7.521 10.58 11.319 20.996 9.266-1.237 16.333-13.997 25.29-19.596 27.726-17.415 37.936 20.117 49.782 29.46 13.045-2.116 21.167-6.934 34.811-1.92"/><path fill="#c5c4f2" d="M3580.286 3605.666c-12.536-29.753 21.203-242.025-44.55-195.182-32.394 23.079-8.12 143.066-18.459 193.033-6.377 6.088-12.064 4.623-18.295-1.009-.8-2.441-1.6-4.85-2.399-7.291 1.418-44.206-3.016-175.782.636-213.119l3.98-4.753c6.703-1.757 7.085-2.18 13.226 1.986 3.979 8.333 2.762 5.404 3.125 18.88 2.435 3.94 2.87 1.14 6.141-3.385 29.106-40.332 64.826-31.152 73.038 41.113 2.798 24.577 1.926 48.438 1.708 75.098.272 21.68 3.16 79.492-2.308 94.01-3.543 1.53-4.142 1.921-7.758 2.54z"/><path fill="#ccd0f1" d="m3590.079 3488.153 1.472 2.571.98-7.52 2.944 3.126c1.236 8.659 2.053 15.885 2.962 24.707.272 21.68 3.16 79.492-2.308 94.01-3.543 1.53-4.142 1.921-7.758 2.54 4.779-36.98-7.031-87.077 1.708-119.434"/><path fill="#c7c9f2" d="M3580.286 3605.666c3.543-26.367-3.107-122.266 6.16-133.106 3.579 6.771 2.47 4.883 3.633 15.593-8.74 32.357 3.07 82.454-1.708 119.433z"/><path fill="#c5c4f2" d="M4447.419 3417.938c-87.863-80.632-72.62 234.44-3.87 150.195 7.522-9.244 7.94-44.824 26.58-33.105 15.062 51.074-62.7 121.875-93.222 33.333-28.162-81.64-1.163-221.094 56.14-194.206 18.006 4.297 55.415 53.418 35.865 84.961-12.19 2.507-19.803-22.428-21.493-41.178"/><path fill="#ccd0f1" d="M4433.048 3374.155c18.005 4.297 55.414 53.418 35.864 84.961-12.19 2.507-19.803-22.428-21.493-41.178-1.78-19.27-10.502-20.996-20.076-27.865l.345-3.71 7.685-2.8c-2.852-6.022-2.453-2.767-2.325-9.408"/><path fill="#c5c4f2" d="M2202.125 3296.063c5.45-.163 19.095-1.335 22.91 4.752-10.21 59.668-45.42 236.426-63.989 301.368-1.417 4.98-13.118 4.59-18.514 2.246-6.34-20.182-17.496-78.516-22.493-102.897 8.05 4.232 8.303 10.644 16.461 18.75l2.471-3.288-.109-10.45 3.143-2.929 10.048 49.447c14.316-57.52 38.299-194.141 50.072-257"/><path fill="#c7c9f2" d="M2764.68 3316.864c9.011-1.042 13.063-2.963 19.949 5.24 3.452 12.598 1.744 38.998 1.635 55.014 6.213.162 10.374.423 16.551 1.725 5.669 7.585 4.524 3.776 6.123 14.323l-3.27 8.04c-6.323 7.13-12.7 5.274-20.476 5.143.363 45.54-2.943 116.277 2.816 159.473 2.344 17.61 12.482 4.948 21.657 12.044 3.343 10.905 2.09 9.733 1.726 24.414-61.882 57.553-47.13-142.024-46.82-195.442-6.469-.39-10.447-.749-16.825-2.474-5.468-7.162-4.433-3.679-6.304-13.705l2.525-7.194c6.196-7.845 12.827-5.827 20.803-5.729z"/><path fill="#bfc4f5" d="M2775.054 3436.558c9.157 10.221 6.359 62.24 1.926 77.278-11.356-15.82-7.413-56.51-1.926-77.278"/><path fill="#c7c9f2" d="M3060.646 3603.517c-4.56-4.069-8.775-9.212-12.554-15.299-27.599-44.857-27.562-139.811-2.38-187.468 9.61-18.391 22.983-28.97 37.045-29.264 22.62-.65 50.981 25.358 52.071 72.721.2 8.66-.454 7.78-3.67 12.826-22.838 2.409-16.024-33.691-32.358-47.526-47.311-40.072-57.158 83.691-45.004 136.98 4.306 18.912 13.082 27.538 22.257 33.007l1.98 1.14.182 7.16-2.598.684-1.69 2.507c-5.323 7.747-6.504 10.351-13.281 12.532"/><path fill="#ccd0f1" d="M3927.397 3404.006c10.992-21.517 22.184-32.813 38.554-32.715 58.648.358 42.406 127.8 44.44 195.54.273 9.538-1.253 28.809-2.525 37.533-6.123 3.874-7.504 5.86-13.408 2.995-16.697-30.306 6.94-151.823-14.19-190.072-5.015-9.05-11.628-11.784-18.06-15.202-13.644-5.013-21.766-.195-34.81 1.92"/><path fill="#ccd0f1" d="M2433.902 3511.395c-.345-3.841-.6-7.715-.8-11.621-1.653-32.031 3.616-68.294 15.299-93.262 9.429-20.377 23.092-33.04 37.827-35.026 17.441-2.246 29.578 9.05 42.06 29.004 6.813 14.941 14.77 35.807 11.283 55.99-17.77 12.825-20.803-27.702-30.451-44.5-31.068-17.935-43.205-2.538-54.215 50.294-14.008 21.484-2.126 36.263-9.52 58.952-6.36-.39-5.197-1.693-11.483-9.831"/><path fill="#bfc4f5" d="M2528.288 3400.49c6.813 14.941 14.77 35.807 11.283 55.99-17.77 12.825-20.803-27.702-30.451-44.5 5.832 2.67 8.576 4.233 14.535 4.884 4.415-5.99 3.016-4.07 4.633-16.374"/><path fill="#c7c9f2" d="M3439.261 3376.271c9.248-1.009 14.408-3.092 21.167 6.934 1.908 25.195.981 67.513.872 94.336-.109 42.838-.036 85.71.218 128.58-7.94.391-15.262 2.442-21.566-5.273-1.726-19.694-1.018-63.216-.909-85.45.2-44.888-1.108-94.693.218-139.127"/><path fill="#c7c9f2" d="M2393.313 3375.816c6.923 2.897 5.814.358 9.012 8.333 1.054 24.674 2.889 207.357-.309 220.638l-6.268 4.232c-5.996-.977-9.084-.196-13.427-6.739-1.98-35.71-1.907-182.063-.654-218.229 2.962-6.868 5.869-5.957 11.646-8.235"/><path fill="#c7c9f2" d="M4320.384 3375.946c5.941.39 10.03-.651 14.771 5.338 3.852 43.978.018 169.922.273 220.052.018 3.744-1.218 3.842-3.78 7.39-5.922-.488-10.537.032-15.951-4.134-3.27-28.483-1.2-180.957-.836-218.88.054-5.827 2.017-5.958 5.523-9.766"/><path fill="#c5c4f2" d="M2433.902 3511.395c6.286 8.138 5.124 9.44 11.483 9.83 7.394-22.688-4.488-37.467 9.52-58.951-1.2 50.39 3.434 159.31 55.232 105.599 8.067-8.333 8.013-41.276 27.453-33.431 8.176 19.206-9.284 51.432-18.386 62.272-11.72 13.997-26.145 18.685-39.88 12.988-28.507-11.328-40.934-49.87-45.422-98.307"/><path fill="#c5c4f2" d="M2118.06 3375.23a5441 5441 0 0 1 14.425 77.539c2.162 11.067 8.43 40.95 9.52 50.846l-3.143 2.93.11 10.449-2.472 3.288c-8.158-8.106-8.412-14.518-16.46-18.75l-4.343-19.955c-5.196-29.817-14.008-69.205-20.149-99.349l2.762-2.897c11.337 4.297 8.557 14.55 19.75-4.101"/><path fill="#c7c9f2" d="M2115.697 3481.577c1.49-12.142 3.925-24.511 6.45-36.067l5.523 9.05 4.815-1.791c2.162 11.067 8.43 40.95 9.52 50.846l-3.143 2.93.11 10.449-2.472 3.288c-8.158-8.106-8.412-14.518-16.46-18.75z"/><path fill="#c7c9f2" d="m2596.384 3567.515 2.216 1.986c40.534 35.807 41.806-21.875 63.718-9.799 1.58 4.72 3.016 6.12 1.926 10.84-9.43 40.853-44.277 45.638-62.428 36.198-8.594-4.33-16.497-12.24-23.074-23.08 2.471-11.262 1.308-11.002 5.869-17.35 4.723 1.66 6.976 2.019 11.773 1.205"/><path fill="#ccd0f1" d="m3095.639 3579.038 1.817-1.758c18.859-18.717 16.533-47.135 35.665-43.099 6.795 18.62-12.41 55.404-21.04 64.616-17.623 13.965-32.849 16.667-51.435 4.72 6.777-2.18 7.958-4.785 13.281-12.532l1.69-2.507 2.598-.683-.182-7.162z"/><path fill="#c7c9f2" d="m3095.639 3579.038 1.817-1.758c18.859-18.717 16.533-47.135 35.665-43.099 6.795 18.62-12.41 55.404-21.04 64.616 1.672-6.477 3.253-10.449 2.562-17.317-13.081.65-10.065 7.356-19.004-2.442"/><path fill="#c5c4f2" d="M3708.375 3687.567c-19.895 15.755-56.795 15.853-70.803-22.494-2.362-6.477-1.654-8.3-.563-15.136 9.593-10.71 20.003 4.752 28.96 13.509a295 295 0 0 0 23.129 3.157c10.665 2.572 11.955.391 18.35 11.915z"/><path fill="#c7c9f2" d="M3665.97 3663.446a295 295 0 0 0 23.128 3.157c10.665 2.572 11.955.391 18.35 11.915l.927 9.049c-10.211-.326-31.505.033-40.28-7.227l.145-3.255c-1.98-3.222-3.18-3.71-5.632-5.436l.073-4.069z"/><path fill="#c7c9f2" d="M2078.542 3296.095c7.631-.586 16.207-.325 23.928-.358l15.59 79.493c-11.193 18.652-8.413 8.398-19.75 4.101l-2.762 2.897z"/><path fill="#0f1222" fill-opacity=".012" d="M3861.064 2729.783c6.631 5.101 5.705 2.289 8.957 11.41.745 56.608-7.104 59.095 2.017 117.005l-1.98 2.012c-4.252-6.64-4.125-9.046-8.177-8.594-1.69-14.668-.926-102.979-.817-121.833"/><path fill="#c5c4f2" d="M2386.41 3292.97c6.267-6.152 14.134-2.115 17.605 9.082 3.488 11.166 1.29 25.26-4.906 31.609-6.286 6.412-14.28 2.441-17.805-8.887-3.525-11.296-1.236-25.586 5.105-31.804"/><path fill="#bfc4f5" d="M4319.621 3292.515c4.288-3.614 9.32-2.735 13.136 2.31 3.815 5.046 5.777 13.412 5.105 21.81-.654 8.432-3.833 15.496-8.285 18.458-6.468 4.297-13.699-1.335-16.37-12.76-2.67-11.394.164-24.545 6.414-29.818"/><path fill="#bfc4f5" d="M3443.913 3293.036c6.431-5.339 14.062-.326 17.06 11.165s.236 25.195-6.177 30.599c-6.45 5.436-14.117.456-17.133-11.1s-.218-25.293 6.25-30.664"/></svg>